ISO-10303-21;
HEADER;
/* Generated by software containing ST-Developer
 * from STEP Tools, Inc. (www.steptools.com) 
 */
/* OPTION: using custom renumber hook */

FILE_DESCRIPTION(
/* description */ ('STEP AP242',
'CAx-IF Rec.Pracs.---Representation and Presentation of Product Manufa
cturing Information (PMI)---4.0---2014-10-13',
'CAx-IF Rec.Pracs.---3D Tessellated Geometry---0.4---2014-09-14','2;1'),

/* implementation_level */ '2;1');

FILE_NAME(
/* name */ '67dc4a2552500464e798ceb1',
/* time_stamp */ '2025-03-20T17:02:29Z',
/* author */ (''),
/* organization */ (''),
/* preprocessor_version */ 'ST-DEVELOPER v20',
/* originating_system */ 'ONSHAPE BY PTC INC, 1.195',
/* authorisation */ '  ');

FILE_SCHEMA (('AP242_MANAGED_MODEL_BASED_3D_ENGINEERING_MIM_LF { 1 0 10303 442 1 1 4 }'));
ENDSEC;

DATA;
#10=SHAPE_REPRESENTATION_RELATIONSHIP('','',#567,#11);
#11=ADVANCED_BREP_SHAPE_REPRESENTATION('',(#565),#981);
#12=SPHERICAL_SURFACE('',#590,0.001);
#13=SPHERICAL_SURFACE('',#593,0.001);
#14=SPHERICAL_SURFACE('',#610,0.001);
#15=SPHERICAL_SURFACE('',#612,0.001);
#16=SPHERICAL_SURFACE('',#614,0.001);
#17=SPHERICAL_SURFACE('',#616,0.001);
#18=SPHERICAL_SURFACE('',#626,0.001);
#19=SPHERICAL_SURFACE('',#628,0.001);
#20=CIRCLE('',#588,0.001);
#21=CIRCLE('',#589,0.001);
#22=CIRCLE('',#591,0.001);
#23=CIRCLE('',#592,0.001);
#24=CIRCLE('',#594,0.001);
#25=CIRCLE('',#595,0.001);
#26=CIRCLE('',#597,0.001);
#27=CIRCLE('',#599,0.001);
#28=CIRCLE('',#601,0.001);
#29=CIRCLE('',#602,0.001);
#30=CIRCLE('',#604,0.001);
#31=CIRCLE('',#606,0.001);
#32=CIRCLE('',#608,0.001);
#33=CIRCLE('',#609,0.001);
#34=CIRCLE('',#611,0.001);
#35=CIRCLE('',#613,0.001);
#36=CIRCLE('',#615,0.001);
#37=CIRCLE('',#617,0.001);
#38=CIRCLE('',#619,0.001);
#39=CIRCLE('',#621,0.001);
#40=CIRCLE('',#623,0.001);
#41=CIRCLE('',#625,0.001);
#42=CIRCLE('',#627,0.001);
#43=CIRCLE('',#629,0.001);
#44=ELLIPSE('',#580,0.00141421356237309,0.001);
#45=ELLIPSE('',#581,0.00141421356237309,0.001);
#46=ELLIPSE('',#583,0.00141421356237309,0.001);
#47=ELLIPSE('',#585,0.00141421356237309,0.001);
#48=ELLIPSE('',#632,0.00141421356237309,0.001);
#49=ELLIPSE('',#633,0.00141421356237309,0.001);
#50=ELLIPSE('',#635,0.00141421356237309,0.001);
#51=ELLIPSE('',#637,0.00141421356237309,0.001);
#52=CYLINDRICAL_SURFACE('',#579,0.001);
#53=CYLINDRICAL_SURFACE('',#582,0.001);
#54=CYLINDRICAL_SURFACE('',#584,0.001);
#55=CYLINDRICAL_SURFACE('',#586,0.001);
#56=CYLINDRICAL_SURFACE('',#587,0.001);
#57=CYLINDRICAL_SURFACE('',#596,0.001);
#58=CYLINDRICAL_SURFACE('',#598,0.001);
#59=CYLINDRICAL_SURFACE('',#600,0.001);
#60=CYLINDRICAL_SURFACE('',#603,0.001);
#61=CYLINDRICAL_SURFACE('',#605,0.001);
#62=CYLINDRICAL_SURFACE('',#607,0.001);
#63=CYLINDRICAL_SURFACE('',#618,0.001);
#64=CYLINDRICAL_SURFACE('',#620,0.001);
#65=CYLINDRICAL_SURFACE('',#622,0.001);
#66=CYLINDRICAL_SURFACE('',#624,0.001);
#67=CYLINDRICAL_SURFACE('',#630,0.001);
#68=CYLINDRICAL_SURFACE('',#631,0.001);
#69=CYLINDRICAL_SURFACE('',#634,0.001);
#70=CYLINDRICAL_SURFACE('',#636,0.001);
#71=CYLINDRICAL_SURFACE('',#638,0.001);
#72=ORIENTED_EDGE('',*,*,#224,.T.);
#73=ORIENTED_EDGE('',*,*,#225,.T.);
#74=ORIENTED_EDGE('',*,*,#226,.F.);
#75=ORIENTED_EDGE('',*,*,#227,.T.);
#76=ORIENTED_EDGE('',*,*,#226,.T.);
#77=ORIENTED_EDGE('',*,*,#228,.T.);
#78=ORIENTED_EDGE('',*,*,#229,.F.);
#79=ORIENTED_EDGE('',*,*,#230,.T.);
#80=ORIENTED_EDGE('',*,*,#229,.T.);
#81=ORIENTED_EDGE('',*,*,#231,.T.);
#82=ORIENTED_EDGE('',*,*,#232,.F.);
#83=ORIENTED_EDGE('',*,*,#233,.T.);
#84=ORIENTED_EDGE('',*,*,#234,.T.);
#85=ORIENTED_EDGE('',*,*,#235,.T.);
#86=ORIENTED_EDGE('',*,*,#236,.T.);
#87=ORIENTED_EDGE('',*,*,#237,.T.);
#88=ORIENTED_EDGE('',*,*,#238,.T.);
#89=ORIENTED_EDGE('',*,*,#239,.T.);
#90=ORIENTED_EDGE('',*,*,#240,.T.);
#91=ORIENTED_EDGE('',*,*,#241,.T.);
#92=ORIENTED_EDGE('',*,*,#242,.T.);
#93=ORIENTED_EDGE('',*,*,#243,.T.);
#94=ORIENTED_EDGE('',*,*,#244,.T.);
#95=ORIENTED_EDGE('',*,*,#245,.T.);
#96=ORIENTED_EDGE('',*,*,#246,.T.);
#97=ORIENTED_EDGE('',*,*,#247,.T.);
#98=ORIENTED_EDGE('',*,*,#248,.T.);
#99=ORIENTED_EDGE('',*,*,#249,.T.);
#100=ORIENTED_EDGE('',*,*,#232,.T.);
#101=ORIENTED_EDGE('',*,*,#250,.T.);
#102=ORIENTED_EDGE('',*,*,#224,.F.);
#103=ORIENTED_EDGE('',*,*,#251,.T.);
#104=ORIENTED_EDGE('',*,*,#252,.T.);
#105=ORIENTED_EDGE('',*,*,#253,.T.);
#106=ORIENTED_EDGE('',*,*,#254,.T.);
#107=ORIENTED_EDGE('',*,*,#255,.T.);
#108=ORIENTED_EDGE('',*,*,#256,.T.);
#109=ORIENTED_EDGE('',*,*,#257,.T.);
#110=ORIENTED_EDGE('',*,*,#258,.T.);
#111=ORIENTED_EDGE('',*,*,#259,.T.);
#112=ORIENTED_EDGE('',*,*,#260,.T.);
#113=ORIENTED_EDGE('',*,*,#261,.T.);
#114=ORIENTED_EDGE('',*,*,#262,.T.);
#115=ORIENTED_EDGE('',*,*,#263,.T.);
#116=ORIENTED_EDGE('',*,*,#264,.T.);
#117=ORIENTED_EDGE('',*,*,#265,.T.);
#118=ORIENTED_EDGE('',*,*,#266,.T.);
#119=ORIENTED_EDGE('',*,*,#267,.T.);
#120=ORIENTED_EDGE('',*,*,#268,.F.);
#121=ORIENTED_EDGE('',*,*,#260,.F.);
#122=ORIENTED_EDGE('',*,*,#269,.F.);
#123=ORIENTED_EDGE('',*,*,#225,.F.);
#124=ORIENTED_EDGE('',*,*,#269,.T.);
#125=ORIENTED_EDGE('',*,*,#263,.F.);
#126=ORIENTED_EDGE('',*,*,#270,.F.);
#127=ORIENTED_EDGE('',*,*,#228,.F.);
#128=ORIENTED_EDGE('',*,*,#268,.T.);
#129=ORIENTED_EDGE('',*,*,#250,.F.);
#130=ORIENTED_EDGE('',*,*,#271,.F.);
#131=ORIENTED_EDGE('',*,*,#261,.F.);
#132=ORIENTED_EDGE('',*,*,#270,.T.);
#133=ORIENTED_EDGE('',*,*,#262,.F.);
#134=ORIENTED_EDGE('',*,*,#271,.T.);
#135=ORIENTED_EDGE('',*,*,#231,.F.);
#136=ORIENTED_EDGE('',*,*,#272,.F.);
#137=ORIENTED_EDGE('',*,*,#254,.F.);
#138=ORIENTED_EDGE('',*,*,#273,.F.);
#139=ORIENTED_EDGE('',*,*,#237,.F.);
#140=ORIENTED_EDGE('',*,*,#274,.F.);
#141=ORIENTED_EDGE('',*,*,#272,.T.);
#142=ORIENTED_EDGE('',*,*,#275,.F.);
#143=ORIENTED_EDGE('',*,*,#276,.F.);
#144=ORIENTED_EDGE('',*,*,#273,.T.);
#145=ORIENTED_EDGE('',*,*,#277,.F.);
#146=ORIENTED_EDGE('',*,*,#275,.T.);
#147=ORIENTED_EDGE('',*,*,#236,.F.);
#148=ORIENTED_EDGE('',*,*,#278,.F.);
#149=ORIENTED_EDGE('',*,*,#238,.F.);
#150=ORIENTED_EDGE('',*,*,#274,.T.);
#151=ORIENTED_EDGE('',*,*,#241,.F.);
#152=ORIENTED_EDGE('',*,*,#279,.F.);
#153=ORIENTED_EDGE('',*,*,#255,.F.);
#154=ORIENTED_EDGE('',*,*,#280,.F.);
#155=ORIENTED_EDGE('',*,*,#252,.F.);
#156=ORIENTED_EDGE('',*,*,#281,.F.);
#157=ORIENTED_EDGE('',*,*,#245,.F.);
#158=ORIENTED_EDGE('',*,*,#277,.T.);
#159=ORIENTED_EDGE('',*,*,#253,.F.);
#160=ORIENTED_EDGE('',*,*,#282,.F.);
#161=ORIENTED_EDGE('',*,*,#249,.F.);
#162=ORIENTED_EDGE('',*,*,#276,.T.);
#163=ORIENTED_EDGE('',*,*,#248,.F.);
#164=ORIENTED_EDGE('',*,*,#283,.F.);
#165=ORIENTED_EDGE('',*,*,#234,.F.);
#166=ORIENTED_EDGE('',*,*,#284,.F.);
#167=ORIENTED_EDGE('',*,*,#235,.F.);
#168=ORIENTED_EDGE('',*,*,#285,.F.);
#169=ORIENTED_EDGE('',*,*,#267,.F.);
#170=ORIENTED_EDGE('',*,*,#278,.T.);
#171=ORIENTED_EDGE('',*,*,#284,.T.);
#172=ORIENTED_EDGE('',*,*,#286,.F.);
#173=ORIENTED_EDGE('',*,*,#281,.T.);
#174=ORIENTED_EDGE('',*,*,#279,.T.);
#175=ORIENTED_EDGE('',*,*,#287,.F.);
#176=ORIENTED_EDGE('',*,*,#282,.T.);
#177=ORIENTED_EDGE('',*,*,#280,.T.);
#178=ORIENTED_EDGE('',*,*,#288,.F.);
#179=ORIENTED_EDGE('',*,*,#285,.T.);
#180=ORIENTED_EDGE('',*,*,#283,.T.);
#181=ORIENTED_EDGE('',*,*,#289,.F.);
#182=ORIENTED_EDGE('',*,*,#286,.T.);
#183=ORIENTED_EDGE('',*,*,#266,.F.);
#184=ORIENTED_EDGE('',*,*,#290,.F.);
#185=ORIENTED_EDGE('',*,*,#239,.F.);
#186=ORIENTED_EDGE('',*,*,#287,.T.);
#187=ORIENTED_EDGE('',*,*,#240,.F.);
#188=ORIENTED_EDGE('',*,*,#291,.F.);
#189=ORIENTED_EDGE('',*,*,#242,.F.);
#190=ORIENTED_EDGE('',*,*,#288,.T.);
#191=ORIENTED_EDGE('',*,*,#244,.F.);
#192=ORIENTED_EDGE('',*,*,#292,.F.);
#193=ORIENTED_EDGE('',*,*,#246,.F.);
#194=ORIENTED_EDGE('',*,*,#289,.T.);
#195=ORIENTED_EDGE('',*,*,#247,.F.);
#196=ORIENTED_EDGE('',*,*,#293,.F.);
#197=ORIENTED_EDGE('',*,*,#264,.F.);
#198=ORIENTED_EDGE('',*,*,#291,.T.);
#199=ORIENTED_EDGE('',*,*,#290,.T.);
#200=ORIENTED_EDGE('',*,*,#294,.F.);
#201=ORIENTED_EDGE('',*,*,#293,.T.);
#202=ORIENTED_EDGE('',*,*,#292,.T.);
#203=ORIENTED_EDGE('',*,*,#295,.F.);
#204=ORIENTED_EDGE('',*,*,#294,.T.);
#205=ORIENTED_EDGE('',*,*,#265,.F.);
#206=ORIENTED_EDGE('',*,*,#295,.T.);
#207=ORIENTED_EDGE('',*,*,#243,.F.);
#208=ORIENTED_EDGE('',*,*,#296,.F.);
#209=ORIENTED_EDGE('',*,*,#259,.F.);
#210=ORIENTED_EDGE('',*,*,#297,.F.);
#211=ORIENTED_EDGE('',*,*,#230,.F.);
#212=ORIENTED_EDGE('',*,*,#297,.T.);
#213=ORIENTED_EDGE('',*,*,#258,.F.);
#214=ORIENTED_EDGE('',*,*,#298,.F.);
#215=ORIENTED_EDGE('',*,*,#227,.F.);
#216=ORIENTED_EDGE('',*,*,#296,.T.);
#217=ORIENTED_EDGE('',*,*,#233,.F.);
#218=ORIENTED_EDGE('',*,*,#299,.F.);
#219=ORIENTED_EDGE('',*,*,#256,.F.);
#220=ORIENTED_EDGE('',*,*,#298,.T.);
#221=ORIENTED_EDGE('',*,*,#257,.F.);
#222=ORIENTED_EDGE('',*,*,#299,.T.);
#223=ORIENTED_EDGE('',*,*,#251,.F.);
#224=EDGE_CURVE('',#300,#301,#340,.T.);
#225=EDGE_CURVE('',#301,#302,#341,.F.);
#226=EDGE_CURVE('',#303,#302,#342,.T.);
#227=EDGE_CURVE('',#303,#300,#343,.T.);
#228=EDGE_CURVE('',#302,#304,#344,.T.);
#229=EDGE_CURVE('',#305,#304,#345,.T.);
#230=EDGE_CURVE('',#305,#303,#346,.F.);
#231=EDGE_CURVE('',#304,#306,#347,.T.);
#232=EDGE_CURVE('',#307,#306,#348,.T.);
#233=EDGE_CURVE('',#307,#305,#349,.F.);
#234=EDGE_CURVE('',#308,#309,#350,.T.);
#235=EDGE_CURVE('',#309,#310,#351,.F.);
#236=EDGE_CURVE('',#310,#311,#352,.F.);
#237=EDGE_CURVE('',#311,#308,#353,.T.);
#238=EDGE_CURVE('',#312,#313,#354,.T.);
#239=EDGE_CURVE('',#313,#314,#355,.T.);
#240=EDGE_CURVE('',#314,#315,#356,.F.);
#241=EDGE_CURVE('',#315,#312,#357,.F.);
#242=EDGE_CURVE('',#316,#317,#358,.T.);
#243=EDGE_CURVE('',#317,#318,#359,.T.);
#244=EDGE_CURVE('',#318,#319,#360,.F.);
#245=EDGE_CURVE('',#319,#316,#361,.F.);
#246=EDGE_CURVE('',#320,#321,#362,.T.);
#247=EDGE_CURVE('',#321,#322,#363,.F.);
#248=EDGE_CURVE('',#322,#323,#364,.F.);
#249=EDGE_CURVE('',#323,#320,#365,.T.);
#250=EDGE_CURVE('',#306,#301,#366,.F.);
#251=EDGE_CURVE('',#300,#307,#367,.T.);
#252=EDGE_CURVE('',#324,#325,#368,.T.);
#253=EDGE_CURVE('',#325,#326,#369,.F.);
#254=EDGE_CURVE('',#326,#327,#370,.F.);
#255=EDGE_CURVE('',#327,#324,#371,.T.);
#256=EDGE_CURVE('',#328,#329,#372,.T.);
#257=EDGE_CURVE('',#329,#330,#373,.F.);
#258=EDGE_CURVE('',#330,#331,#374,.F.);
#259=EDGE_CURVE('',#331,#328,#375,.T.);
#260=EDGE_CURVE('',#332,#333,#376,.T.);
#261=EDGE_CURVE('',#333,#334,#377,.T.);
#262=EDGE_CURVE('',#334,#335,#378,.F.);
#263=EDGE_CURVE('',#335,#332,#379,.F.);
#264=EDGE_CURVE('',#336,#337,#380,.T.);
#265=EDGE_CURVE('',#337,#338,#381,.F.);
#266=EDGE_CURVE('',#338,#339,#382,.F.);
#267=EDGE_CURVE('',#339,#336,#383,.T.);
#268=EDGE_CURVE('',#333,#301,#44,.F.);
#269=EDGE_CURVE('',#302,#332,#45,.T.);
#270=EDGE_CURVE('',#304,#335,#46,.T.);
#271=EDGE_CURVE('',#334,#306,#47,.F.);
#272=EDGE_CURVE('',#327,#311,#20,.T.);
#273=EDGE_CURVE('',#308,#326,#21,.T.);
#274=EDGE_CURVE('',#327,#312,#22,.F.);
#275=EDGE_CURVE('',#312,#311,#23,.F.);
#276=EDGE_CURVE('',#308,#323,#24,.F.);
#277=EDGE_CURVE('',#323,#326,#25,.F.);
#278=EDGE_CURVE('',#313,#310,#26,.T.);
#279=EDGE_CURVE('',#324,#315,#27,.T.);
#280=EDGE_CURVE('',#325,#319,#28,.T.);
#281=EDGE_CURVE('',#316,#324,#29,.T.);
#282=EDGE_CURVE('',#320,#325,#30,.T.);
#283=EDGE_CURVE('',#309,#322,#31,.T.);
#284=EDGE_CURVE('',#310,#339,#32,.T.);
#285=EDGE_CURVE('',#336,#309,#33,.T.);
#286=EDGE_CURVE('',#313,#339,#34,.F.);
#287=EDGE_CURVE('',#316,#315,#35,.F.);
#288=EDGE_CURVE('',#320,#319,#36,.F.);
#289=EDGE_CURVE('',#336,#322,#37,.F.);
#290=EDGE_CURVE('',#314,#338,#38,.T.);
#291=EDGE_CURVE('',#317,#314,#39,.T.);
#292=EDGE_CURVE('',#321,#318,#40,.T.);
#293=EDGE_CURVE('',#337,#321,#41,.T.);
#294=EDGE_CURVE('',#317,#338,#42,.F.);
#295=EDGE_CURVE('',#337,#318,#43,.F.);
#296=EDGE_CURVE('',#328,#305,#48,.F.);
#297=EDGE_CURVE('',#303,#331,#49,.T.);
#298=EDGE_CURVE('',#300,#330,#50,.T.);
#299=EDGE_CURVE('',#329,#307,#51,.F.);
#300=VERTEX_POINT('',#828);
#301=VERTEX_POINT('',#829);
#302=VERTEX_POINT('',#831);
#303=VERTEX_POINT('',#833);
#304=VERTEX_POINT('',#837);
#305=VERTEX_POINT('',#839);
#306=VERTEX_POINT('',#843);
#307=VERTEX_POINT('',#845);
#308=VERTEX_POINT('',#849);
#309=VERTEX_POINT('',#850);
#310=VERTEX_POINT('',#852);
#311=VERTEX_POINT('',#854);
#312=VERTEX_POINT('',#858);
#313=VERTEX_POINT('',#859);
#314=VERTEX_POINT('',#861);
#315=VERTEX_POINT('',#863);
#316=VERTEX_POINT('',#867);
#317=VERTEX_POINT('',#868);
#318=VERTEX_POINT('',#870);
#319=VERTEX_POINT('',#872);
#320=VERTEX_POINT('',#876);
#321=VERTEX_POINT('',#877);
#322=VERTEX_POINT('',#879);
#323=VERTEX_POINT('',#881);
#324=VERTEX_POINT('',#888);
#325=VERTEX_POINT('',#889);
#326=VERTEX_POINT('',#891);
#327=VERTEX_POINT('',#893);
#328=VERTEX_POINT('',#896);
#329=VERTEX_POINT('',#897);
#330=VERTEX_POINT('',#899);
#331=VERTEX_POINT('',#901);
#332=VERTEX_POINT('',#905);
#333=VERTEX_POINT('',#906);
#334=VERTEX_POINT('',#908);
#335=VERTEX_POINT('',#910);
#336=VERTEX_POINT('',#913);
#337=VERTEX_POINT('',#914);
#338=VERTEX_POINT('',#916);
#339=VERTEX_POINT('',#918);
#340=LINE('',#827,#384);
#341=LINE('',#830,#385);
#342=LINE('',#832,#386);
#343=LINE('',#834,#387);
#344=LINE('',#836,#388);
#345=LINE('',#838,#389);
#346=LINE('',#840,#390);
#347=LINE('',#842,#391);
#348=LINE('',#844,#392);
#349=LINE('',#846,#393);
#350=LINE('',#848,#394);
#351=LINE('',#851,#395);
#352=LINE('',#853,#396);
#353=LINE('',#855,#397);
#354=LINE('',#857,#398);
#355=LINE('',#860,#399);
#356=LINE('',#862,#400);
#357=LINE('',#864,#401);
#358=LINE('',#866,#402);
#359=LINE('',#869,#403);
#360=LINE('',#871,#404);
#361=LINE('',#873,#405);
#362=LINE('',#875,#406);
#363=LINE('',#878,#407);
#364=LINE('',#880,#408);
#365=LINE('',#882,#409);
#366=LINE('',#884,#410);
#367=LINE('',#885,#411);
#368=LINE('',#887,#412);
#369=LINE('',#890,#413);
#370=LINE('',#892,#414);
#371=LINE('',#894,#415);
#372=LINE('',#895,#416);
#373=LINE('',#898,#417);
#374=LINE('',#900,#418);
#375=LINE('',#902,#419);
#376=LINE('',#904,#420);
#377=LINE('',#907,#421);
#378=LINE('',#909,#422);
#379=LINE('',#911,#423);
#380=LINE('',#912,#424);
#381=LINE('',#915,#425);
#382=LINE('',#917,#426);
#383=LINE('',#919,#427);
#384=VECTOR('',#643,1.);
#385=VECTOR('',#644,1.);
#386=VECTOR('',#645,1.);
#387=VECTOR('',#646,1.);
#388=VECTOR('',#649,1.);
#389=VECTOR('',#650,1.);
#390=VECTOR('',#651,1.);
#391=VECTOR('',#654,1.);
#392=VECTOR('',#655,1.);
#393=VECTOR('',#656,1.);
#394=VECTOR('',#659,1.);
#395=VECTOR('',#660,1.);
#396=VECTOR('',#661,1.);
#397=VECTOR('',#662,1.);
#398=VECTOR('',#665,1.);
#399=VECTOR('',#666,1.);
#400=VECTOR('',#667,1.);
#401=VECTOR('',#668,1.);
#402=VECTOR('',#671,1.);
#403=VECTOR('',#672,1.);
#404=VECTOR('',#673,1.);
#405=VECTOR('',#674,1.);
#406=VECTOR('',#677,1.);
#407=VECTOR('',#678,1.);
#408=VECTOR('',#679,1.);
#409=VECTOR('',#680,1.);
#410=VECTOR('',#683,1.);
#411=VECTOR('',#684,1.);
#412=VECTOR('',#687,1.);
#413=VECTOR('',#688,1.);
#414=VECTOR('',#689,1.);
#415=VECTOR('',#690,1.);
#416=VECTOR('',#691,1.);
#417=VECTOR('',#692,1.);
#418=VECTOR('',#693,1.);
#419=VECTOR('',#694,1.);
#420=VECTOR('',#697,1.);
#421=VECTOR('',#698,1.);
#422=VECTOR('',#699,1.);
#423=VECTOR('',#700,1.);
#424=VECTOR('',#701,1.);
#425=VECTOR('',#702,1.);
#426=VECTOR('',#703,1.);
#427=VECTOR('',#704,1.);
#428=EDGE_LOOP('',(#72,#73,#74,#75));
#429=EDGE_LOOP('',(#76,#77,#78,#79));
#430=EDGE_LOOP('',(#80,#81,#82,#83));
#431=EDGE_LOOP('',(#84,#85,#86,#87));
#432=EDGE_LOOP('',(#88,#89,#90,#91));
#433=EDGE_LOOP('',(#92,#93,#94,#95));
#434=EDGE_LOOP('',(#96,#97,#98,#99));
#435=EDGE_LOOP('',(#100,#101,#102,#103));
#436=EDGE_LOOP('',(#104,#105,#106,#107));
#437=EDGE_LOOP('',(#108,#109,#110,#111));
#438=EDGE_LOOP('',(#112,#113,#114,#115));
#439=EDGE_LOOP('',(#116,#117,#118,#119));
#440=EDGE_LOOP('',(#120,#121,#122,#123));
#441=EDGE_LOOP('',(#124,#125,#126,#127));
#442=EDGE_LOOP('',(#128,#129,#130,#131));
#443=EDGE_LOOP('',(#132,#133,#134,#135));
#444=EDGE_LOOP('',(#136,#137,#138,#139));
#445=EDGE_LOOP('',(#140,#141,#142));
#446=EDGE_LOOP('',(#143,#144,#145));
#447=EDGE_LOOP('',(#146,#147,#148,#149));
#448=EDGE_LOOP('',(#150,#151,#152,#153));
#449=EDGE_LOOP('',(#154,#155,#156,#157));
#450=EDGE_LOOP('',(#158,#159,#160,#161));
#451=EDGE_LOOP('',(#162,#163,#164,#165));
#452=EDGE_LOOP('',(#166,#167,#168,#169));
#453=EDGE_LOOP('',(#170,#171,#172));
#454=EDGE_LOOP('',(#173,#174,#175));
#455=EDGE_LOOP('',(#176,#177,#178));
#456=EDGE_LOOP('',(#179,#180,#181));
#457=EDGE_LOOP('',(#182,#183,#184,#185));
#458=EDGE_LOOP('',(#186,#187,#188,#189));
#459=EDGE_LOOP('',(#190,#191,#192,#193));
#460=EDGE_LOOP('',(#194,#195,#196,#197));
#461=EDGE_LOOP('',(#198,#199,#200));
#462=EDGE_LOOP('',(#201,#202,#203));
#463=EDGE_LOOP('',(#204,#205,#206,#207));
#464=EDGE_LOOP('',(#208,#209,#210,#211));
#465=EDGE_LOOP('',(#212,#213,#214,#215));
#466=EDGE_LOOP('',(#216,#217,#218,#219));
#467=EDGE_LOOP('',(#220,#221,#222,#223));
#468=FACE_BOUND('',#428,.T.);
#469=FACE_BOUND('',#429,.T.);
#470=FACE_BOUND('',#430,.T.);
#471=FACE_BOUND('',#431,.T.);
#472=FACE_BOUND('',#432,.T.);
#473=FACE_BOUND('',#433,.T.);
#474=FACE_BOUND('',#434,.T.);
#475=FACE_BOUND('',#435,.T.);
#476=FACE_BOUND('',#436,.T.);
#477=FACE_BOUND('',#437,.T.);
#478=FACE_BOUND('',#438,.T.);
#479=FACE_BOUND('',#439,.T.);
#480=FACE_BOUND('',#440,.T.);
#481=FACE_BOUND('',#441,.T.);
#482=FACE_BOUND('',#442,.T.);
#483=FACE_BOUND('',#443,.T.);
#484=FACE_BOUND('',#444,.T.);
#485=FACE_BOUND('',#445,.T.);
#486=FACE_BOUND('',#446,.T.);
#487=FACE_BOUND('',#447,.T.);
#488=FACE_BOUND('',#448,.T.);
#489=FACE_BOUND('',#449,.T.);
#490=FACE_BOUND('',#450,.T.);
#491=FACE_BOUND('',#451,.T.);
#492=FACE_BOUND('',#452,.T.);
#493=FACE_BOUND('',#453,.T.);
#494=FACE_BOUND('',#454,.T.);
#495=FACE_BOUND('',#455,.T.);
#496=FACE_BOUND('',#456,.T.);
#497=FACE_BOUND('',#457,.T.);
#498=FACE_BOUND('',#458,.T.);
#499=FACE_BOUND('',#459,.T.);
#500=FACE_BOUND('',#460,.T.);
#501=FACE_BOUND('',#461,.T.);
#502=FACE_BOUND('',#462,.T.);
#503=FACE_BOUND('',#463,.T.);
#504=FACE_BOUND('',#464,.T.);
#505=FACE_BOUND('',#465,.T.);
#506=FACE_BOUND('',#466,.T.);
#507=FACE_BOUND('',#467,.T.);
#508=PLANE('',#569);
#509=PLANE('',#570);
#510=PLANE('',#571);
#511=PLANE('',#572);
#512=PLANE('',#573);
#513=PLANE('',#574);
#514=PLANE('',#575);
#515=PLANE('',#576);
#516=PLANE('',#577);
#517=PLANE('',#578);
#518=ADVANCED_FACE('',(#468),#508,.T.);
#519=ADVANCED_FACE('',(#469),#509,.F.);
#520=ADVANCED_FACE('',(#470),#510,.F.);
#521=ADVANCED_FACE('',(#471),#511,.T.);
#522=ADVANCED_FACE('',(#472),#512,.F.);
#523=ADVANCED_FACE('',(#473),#513,.F.);
#524=ADVANCED_FACE('',(#474),#514,.T.);
#525=ADVANCED_FACE('',(#475),#515,.T.);
#526=ADVANCED_FACE('',(#476,#477),#516,.T.);
#527=ADVANCED_FACE('',(#478,#479),#517,.F.);
#528=ADVANCED_FACE('',(#480),#52,.T.);
#529=ADVANCED_FACE('',(#481),#53,.T.);
#530=ADVANCED_FACE('',(#482),#54,.T.);
#531=ADVANCED_FACE('',(#483),#55,.T.);
#532=ADVANCED_FACE('',(#484),#56,.T.);
#533=ADVANCED_FACE('',(#485),#12,.T.);
#534=ADVANCED_FACE('',(#486),#13,.T.);
#535=ADVANCED_FACE('',(#487),#57,.T.);
#536=ADVANCED_FACE('',(#488),#58,.T.);
#537=ADVANCED_FACE('',(#489),#59,.T.);
#538=ADVANCED_FACE('',(#490),#60,.T.);
#539=ADVANCED_FACE('',(#491),#61,.T.);
#540=ADVANCED_FACE('',(#492),#62,.T.);
#541=ADVANCED_FACE('',(#493),#14,.T.);
#542=ADVANCED_FACE('',(#494),#15,.T.);
#543=ADVANCED_FACE('',(#495),#16,.T.);
#544=ADVANCED_FACE('',(#496),#17,.T.);
#545=ADVANCED_FACE('',(#497),#63,.T.);
#546=ADVANCED_FACE('',(#498),#64,.T.);
#547=ADVANCED_FACE('',(#499),#65,.T.);
#548=ADVANCED_FACE('',(#500),#66,.T.);
#549=ADVANCED_FACE('',(#501),#18,.T.);
#550=ADVANCED_FACE('',(#502),#19,.T.);
#551=ADVANCED_FACE('',(#503),#67,.T.);
#552=ADVANCED_FACE('',(#504),#68,.T.);
#553=ADVANCED_FACE('',(#505),#69,.T.);
#554=ADVANCED_FACE('',(#506),#70,.T.);
#555=ADVANCED_FACE('',(#507),#71,.T.);
#556=CLOSED_SHELL('',(#518,#519,#520,#521,#522,#523,#524,#525,#526,#527,
#528,#529,#530,#531,#532,#533,#534,#535,#536,#537,#538,#539,#540,#541,#542,
#543,#544,#545,#546,#547,#548,#549,#550,#551,#552,#553,#554,#555));
#557=STYLED_ITEM('',(#558),#565);
#558=PRESENTATION_STYLE_ASSIGNMENT((#559));
#559=SURFACE_STYLE_USAGE(.BOTH.,#560);
#560=SURFACE_SIDE_STYLE('',(#561));
#561=SURFACE_STYLE_FILL_AREA(#562);
#562=FILL_AREA_STYLE('',(#563));
#563=FILL_AREA_STYLE_COLOUR('',#564);
#564=COLOUR_RGB('',0.615686274509804,0.811764705882353,0.929411764705882);
#565=MANIFOLD_SOLID_BREP('Part 1',#556);
#566=SHAPE_DEFINITION_REPRESENTATION(#986,#567);
#567=SHAPE_REPRESENTATION('Part 1',(#568),#981);
#568=AXIS2_PLACEMENT_3D('',#825,#639,#640);
#569=AXIS2_PLACEMENT_3D('',#826,#641,#642);
#570=AXIS2_PLACEMENT_3D('',#835,#647,#648);
#571=AXIS2_PLACEMENT_3D('',#841,#652,#653);
#572=AXIS2_PLACEMENT_3D('',#847,#657,#658);
#573=AXIS2_PLACEMENT_3D('',#856,#663,#664);
#574=AXIS2_PLACEMENT_3D('',#865,#669,#670);
#575=AXIS2_PLACEMENT_3D('',#874,#675,#676);
#576=AXIS2_PLACEMENT_3D('',#883,#681,#682);
#577=AXIS2_PLACEMENT_3D('',#886,#685,#686);
#578=AXIS2_PLACEMENT_3D('',#903,#695,#696);
#579=AXIS2_PLACEMENT_3D('',#920,#705,#706);
#580=AXIS2_PLACEMENT_3D('',#921,#707,#708);
#581=AXIS2_PLACEMENT_3D('',#922,#709,#710);
#582=AXIS2_PLACEMENT_3D('',#923,#711,#712);
#583=AXIS2_PLACEMENT_3D('',#924,#713,#714);
#584=AXIS2_PLACEMENT_3D('',#925,#715,#716);
#585=AXIS2_PLACEMENT_3D('',#926,#717,#718);
#586=AXIS2_PLACEMENT_3D('',#927,#719,#720);
#587=AXIS2_PLACEMENT_3D('',#928,#721,#722);
#588=AXIS2_PLACEMENT_3D('',#929,#723,#724);
#589=AXIS2_PLACEMENT_3D('',#930,#725,#726);
#590=AXIS2_PLACEMENT_3D('',#931,#727,#728);
#591=AXIS2_PLACEMENT_3D('',#932,#729,#730);
#592=AXIS2_PLACEMENT_3D('',#933,#731,#732);
#593=AXIS2_PLACEMENT_3D('',#934,#733,#734);
#594=AXIS2_PLACEMENT_3D('',#935,#735,#736);
#595=AXIS2_PLACEMENT_3D('',#936,#737,#738);
#596=AXIS2_PLACEMENT_3D('',#937,#739,#740);
#597=AXIS2_PLACEMENT_3D('',#938,#741,#742);
#598=AXIS2_PLACEMENT_3D('',#939,#743,#744);
#599=AXIS2_PLACEMENT_3D('',#940,#745,#746);
#600=AXIS2_PLACEMENT_3D('',#941,#747,#748);
#601=AXIS2_PLACEMENT_3D('',#942,#749,#750);
#602=AXIS2_PLACEMENT_3D('',#943,#751,#752);
#603=AXIS2_PLACEMENT_3D('',#944,#753,#754);
#604=AXIS2_PLACEMENT_3D('',#945,#755,#756);
#605=AXIS2_PLACEMENT_3D('',#946,#757,#758);
#606=AXIS2_PLACEMENT_3D('',#947,#759,#760);
#607=AXIS2_PLACEMENT_3D('',#948,#761,#762);
#608=AXIS2_PLACEMENT_3D('',#949,#763,#764);
#609=AXIS2_PLACEMENT_3D('',#950,#765,#766);
#610=AXIS2_PLACEMENT_3D('',#951,#767,#768);
#611=AXIS2_PLACEMENT_3D('',#952,#769,#770);
#612=AXIS2_PLACEMENT_3D('',#953,#771,#772);
#613=AXIS2_PLACEMENT_3D('',#954,#773,#774);
#614=AXIS2_PLACEMENT_3D('',#955,#775,#776);
#615=AXIS2_PLACEMENT_3D('',#956,#777,#778);
#616=AXIS2_PLACEMENT_3D('',#957,#779,#780);
#617=AXIS2_PLACEMENT_3D('',#958,#781,#782);
#618=AXIS2_PLACEMENT_3D('',#959,#783,#784);
#619=AXIS2_PLACEMENT_3D('',#960,#785,#786);
#620=AXIS2_PLACEMENT_3D('',#961,#787,#788);
#621=AXIS2_PLACEMENT_3D('',#962,#789,#790);
#622=AXIS2_PLACEMENT_3D('',#963,#791,#792);
#623=AXIS2_PLACEMENT_3D('',#964,#793,#794);
#624=AXIS2_PLACEMENT_3D('',#965,#795,#796);
#625=AXIS2_PLACEMENT_3D('',#966,#797,#798);
#626=AXIS2_PLACEMENT_3D('',#967,#799,#800);
#627=AXIS2_PLACEMENT_3D('',#968,#801,#802);
#628=AXIS2_PLACEMENT_3D('',#969,#803,#804);
#629=AXIS2_PLACEMENT_3D('',#970,#805,#806);
#630=AXIS2_PLACEMENT_3D('',#971,#807,#808);
#631=AXIS2_PLACEMENT_3D('',#972,#809,#810);
#632=AXIS2_PLACEMENT_3D('',#973,#811,#812);
#633=AXIS2_PLACEMENT_3D('',#974,#813,#814);
#634=AXIS2_PLACEMENT_3D('',#975,#815,#816);
#635=AXIS2_PLACEMENT_3D('',#976,#817,#818);
#636=AXIS2_PLACEMENT_3D('',#977,#819,#820);
#637=AXIS2_PLACEMENT_3D('',#978,#821,#822);
#638=AXIS2_PLACEMENT_3D('',#979,#823,#824);
#639=DIRECTION('',(0.,0.,1.));
#640=DIRECTION('',(1.,0.,0.));
#641=DIRECTION('',(1.,-1.70628538620669E-16,0.));
#642=DIRECTION('',(1.70628538620669E-16,1.,0.));
#643=DIRECTION('',(0.,0.,-1.));
#644=DIRECTION('',(-1.70628538620669E-16,-1.,0.));
#645=DIRECTION('',(0.,0.,-1.));
#646=DIRECTION('',(-1.70628538620669E-16,-1.,0.));
#647=DIRECTION('',(0.,1.,0.));
#648=DIRECTION('',(0.,0.,1.));
#649=DIRECTION('',(1.,0.,0.));
#650=DIRECTION('',(0.,0.,-1.));
#651=DIRECTION('',(1.,0.,0.));
#652=DIRECTION('',(1.,-1.70628538620669E-16,0.));
#653=DIRECTION('',(1.70628538620669E-16,1.,0.));
#654=DIRECTION('',(-1.70628538620669E-16,-1.,0.));
#655=DIRECTION('',(0.,0.,-1.));
#656=DIRECTION('',(-1.70628538620669E-16,-1.,0.));
#657=DIRECTION('',(1.,0.,0.));
#658=DIRECTION('',(0.,0.,-1.));
#659=DIRECTION('',(0.,0.,-1.));
#660=DIRECTION('',(0.,-1.,0.));
#661=DIRECTION('',(0.,0.,-1.));
#662=DIRECTION('',(0.,-1.,0.));
#663=DIRECTION('',(-1.7347234759768E-16,-1.,0.));
#664=DIRECTION('',(1.,-1.7347234759768E-16,0.));
#665=DIRECTION('',(0.,0.,-1.));
#666=DIRECTION('',(-1.,1.7347234759768E-16,0.));
#667=DIRECTION('',(0.,0.,-1.));
#668=DIRECTION('',(-1.,1.7347234759768E-16,0.));
#669=DIRECTION('',(1.,0.,0.));
#670=DIRECTION('',(0.,0.,-1.));
#671=DIRECTION('',(0.,0.,-1.));
#672=DIRECTION('',(0.,-1.,0.));
#673=DIRECTION('',(0.,0.,-1.));
#674=DIRECTION('',(0.,-1.,0.));
#675=DIRECTION('',(1.73472347597681E-16,-1.,0.));
#676=DIRECTION('',(1.,1.73472347597681E-16,0.));
#677=DIRECTION('',(0.,0.,-1.));
#678=DIRECTION('',(-1.,-1.73472347597681E-16,0.));
#679=DIRECTION('',(0.,0.,-1.));
#680=DIRECTION('',(-1.,-1.73472347597681E-16,0.));
#681=DIRECTION('',(0.,1.,0.));
#682=DIRECTION('',(0.,0.,1.));
#683=DIRECTION('',(1.,0.,0.));
#684=DIRECTION('',(1.,0.,0.));
#685=DIRECTION('',(0.,0.,1.));
#686=DIRECTION('',(1.,0.,0.));
#687=DIRECTION('',(0.,-1.,0.));
#688=DIRECTION('',(-1.,-1.73472347597681E-16,0.));
#689=DIRECTION('',(0.,-1.,0.));
#690=DIRECTION('',(-1.,1.7347234759768E-16,0.));
#691=DIRECTION('',(-1.70628538620669E-16,-1.,0.));
#692=DIRECTION('',(1.,0.,0.));
#693=DIRECTION('',(-1.70628538620669E-16,-1.,0.));
#694=DIRECTION('',(1.,0.,0.));
#695=DIRECTION('',(0.,0.,1.));
#696=DIRECTION('',(1.,0.,0.));
#697=DIRECTION('',(-1.70628538620669E-16,-1.,0.));
#698=DIRECTION('',(1.,0.,0.));
#699=DIRECTION('',(-1.70628538620669E-16,-1.,0.));
#700=DIRECTION('',(1.,0.,0.));
#701=DIRECTION('',(-1.,-1.73472347597681E-16,0.));
#702=DIRECTION('',(0.,-1.,0.));
#703=DIRECTION('',(-1.,1.7347234759768E-16,0.));
#704=DIRECTION('',(0.,-1.,0.));
#705=DIRECTION('',(1.70628538620669E-16,1.,0.));
#706=DIRECTION('',(-1.,1.70628538620669E-16,0.));
#707=DIRECTION('',(-0.707106781186548,0.707106781186548,0.));
#708=DIRECTION('',(0.707106781186548,0.707106781186548,0.));
#709=DIRECTION('',(0.707106781186548,0.707106781186548,0.));
#710=DIRECTION('',(-0.707106781186548,0.707106781186548,0.));
#711=DIRECTION('',(1.,0.,0.));
#712=DIRECTION('',(0.,0.,-1.));
#713=DIRECTION('',(0.707106781186548,-0.707106781186548,0.));
#714=DIRECTION('',(-0.707106781186548,-0.707106781186548,0.));
#715=DIRECTION('',(-1.,0.,0.));
#716=DIRECTION('',(0.,0.,1.));
#717=DIRECTION('',(-0.707106781186548,-0.707106781186548,0.));
#718=DIRECTION('',(0.707106781186548,-0.707106781186548,0.));
#719=DIRECTION('',(-1.70628538620669E-16,-1.,0.));
#720=DIRECTION('',(1.,-1.70628538620669E-16,0.));
#721=DIRECTION('',(0.,-1.,0.));
#722=DIRECTION('',(0.,0.,-1.));
#723=DIRECTION('',(0.,1.,0.));
#724=DIRECTION('',(0.,0.,1.));
#725=DIRECTION('',(0.,-1.,0.));
#726=DIRECTION('',(0.,0.,-1.));
#727=DIRECTION('',(1.,0.,0.));
#728=DIRECTION('',(0.,0.,-1.));
#729=DIRECTION('',(1.,0.,0.));
#730=DIRECTION('',(0.,0.,-1.));
#731=DIRECTION('',(0.,0.,1.));
#732=DIRECTION('',(1.,0.,0.));
#733=DIRECTION('',(0.,0.,1.));
#734=DIRECTION('',(1.,0.,0.));
#735=DIRECTION('',(0.,0.,1.));
#736=DIRECTION('',(1.,0.,0.));
#737=DIRECTION('',(1.,0.,0.));
#738=DIRECTION('',(0.,0.,-1.));
#739=DIRECTION('',(0.,0.,1.));
#740=DIRECTION('',(1.,0.,0.));
#741=DIRECTION('',(8.67361737988403E-16,0.,-1.));
#742=DIRECTION('',(-1.,0.,-8.67361737988403E-16));
#743=DIRECTION('',(1.,-1.7347234759768E-16,0.));
#744=DIRECTION('',(1.7347234759768E-16,1.,0.));
#745=DIRECTION('',(-1.,0.,0.));
#746=DIRECTION('',(0.,0.,1.));
#747=DIRECTION('',(0.,1.,0.));
#748=DIRECTION('',(0.,0.,1.));
#749=DIRECTION('',(0.,-1.,0.));
#750=DIRECTION('',(0.,0.,-1.));
#751=DIRECTION('',(0.,1.,0.));
#752=DIRECTION('',(0.,0.,1.));
#753=DIRECTION('',(-1.,-1.73472347597681E-16,0.));
#754=DIRECTION('',(1.73472347597681E-16,-1.,0.));
#755=DIRECTION('',(-1.,0.,0.));
#756=DIRECTION('',(0.,0.,1.));
#757=DIRECTION('',(0.,0.,-1.));
#758=DIRECTION('',(-1.,0.,0.));
#759=DIRECTION('',(0.,0.,-1.));
#760=DIRECTION('',(-1.,0.,0.));
#761=DIRECTION('',(0.,1.,0.));
#762=DIRECTION('',(0.,0.,1.));
#763=DIRECTION('',(0.,1.,0.));
#764=DIRECTION('',(0.,0.,1.));
#765=DIRECTION('',(0.,-1.,0.));
#766=DIRECTION('',(0.,0.,-1.));
#767=DIRECTION('',(1.,0.,0.));
#768=DIRECTION('',(0.,0.,-1.));
#769=DIRECTION('',(1.,0.,0.));
#770=DIRECTION('',(0.,0.,-1.));
#771=DIRECTION('',(0.,0.,1.));
#772=DIRECTION('',(1.,0.,0.));
#773=DIRECTION('',(0.,0.,1.));
#774=DIRECTION('',(1.,0.,0.));
#775=DIRECTION('',(0.,0.,1.));
#776=DIRECTION('',(1.,0.,0.));
#777=DIRECTION('',(0.,0.,1.));
#778=DIRECTION('',(1.,0.,0.));
#779=DIRECTION('',(1.,0.,0.));
#780=DIRECTION('',(0.,0.,-1.));
#781=DIRECTION('',(1.,0.,0.));
#782=DIRECTION('',(0.,0.,-1.));
#783=DIRECTION('',(-1.,1.7347234759768E-16,0.));
#784=DIRECTION('',(-1.7347234759768E-16,-1.,0.));
#785=DIRECTION('',(-1.,0.,0.));
#786=DIRECTION('',(0.,0.,1.));
#787=DIRECTION('',(0.,0.,-1.));
#788=DIRECTION('',(-1.,0.,0.));
#789=DIRECTION('',(0.,0.,-1.));
#790=DIRECTION('',(-1.,0.,0.));
#791=DIRECTION('',(0.,0.,1.));
#792=DIRECTION('',(1.,0.,0.));
#793=DIRECTION('',(8.67361737988403E-16,0.,-1.));
#794=DIRECTION('',(-1.,0.,-8.67361737988403E-16));
#795=DIRECTION('',(1.,1.73472347597681E-16,0.));
#796=DIRECTION('',(-1.73472347597681E-16,1.,0.));
#797=DIRECTION('',(-1.,0.,0.));
#798=DIRECTION('',(0.,0.,1.));
#799=DIRECTION('',(0.,1.,-8.67361737988403E-16));
#800=DIRECTION('',(0.,8.67361737988403E-16,1.));
#801=DIRECTION('',(0.,1.,0.));
#802=DIRECTION('',(0.,0.,1.));
#803=DIRECTION('',(0.,-1.,0.));
#804=DIRECTION('',(0.,0.,-1.));
#805=DIRECTION('',(0.,-1.,0.));
#806=DIRECTION('',(0.,0.,-1.));
#807=DIRECTION('',(0.,-1.,0.));
#808=DIRECTION('',(0.,0.,-1.));
#809=DIRECTION('',(-1.,0.,0.));
#810=DIRECTION('',(0.,0.,1.));
#811=DIRECTION('',(-0.707106781186548,0.707106781186548,0.));
#812=DIRECTION('',(0.707106781186548,0.707106781186548,0.));
#813=DIRECTION('',(-0.707106781186548,-0.707106781186548,0.));
#814=DIRECTION('',(-0.707106781186548,0.707106781186548,0.));
#815=DIRECTION('',(-1.70628538620669E-16,-1.,0.));
#816=DIRECTION('',(1.,-1.70628538620669E-16,0.));
#817=DIRECTION('',(0.707106781186548,-0.707106781186548,0.));
#818=DIRECTION('',(0.707106781186548,0.707106781186548,0.));
#819=DIRECTION('',(1.70628538620669E-16,1.,0.));
#820=DIRECTION('',(-1.,1.70628538620669E-16,0.));
#821=DIRECTION('',(0.707106781186548,0.707106781186548,0.));
#822=DIRECTION('',(0.707106781186548,-0.707106781186548,0.));
#823=DIRECTION('',(1.,0.,0.));
#824=DIRECTION('',(0.,0.,-1.));
#825=CARTESIAN_POINT('',(0.,0.,0.));
#826=CARTESIAN_POINT('',(-0.01525,1.7347234759768E-18,0.01));
#827=CARTESIAN_POINT('',(-0.01525,-0.01525,0.01));
#828=CARTESIAN_POINT('',(-0.01525,-0.01525,0.009));
#829=CARTESIAN_POINT('',(-0.01525,-0.01525,0.001));
#830=CARTESIAN_POINT('',(-0.01525,0.01525,0.001));
#831=CARTESIAN_POINT('',(-0.01525,0.01525,0.001));
#832=CARTESIAN_POINT('',(-0.01525,0.01525,0.01));
#833=CARTESIAN_POINT('',(-0.01525,0.01525,0.009));
#834=CARTESIAN_POINT('',(-0.01525,1.7347234759768E-18,0.009));
#835=CARTESIAN_POINT('',(1.7347234759768E-18,0.01525,0.01));
#836=CARTESIAN_POINT('',(1.7347234759768E-18,0.01525,0.001));
#837=CARTESIAN_POINT('',(0.01525,0.01525,0.001));
#838=CARTESIAN_POINT('',(0.01525,0.01525,0.01));
#839=CARTESIAN_POINT('',(0.01525,0.01525,0.009));
#840=CARTESIAN_POINT('',(-0.01525,0.01525,0.009));
#841=CARTESIAN_POINT('',(0.01525,1.7347234759768E-18,0.01));
#842=CARTESIAN_POINT('',(0.01525,1.7347234759768E-18,0.001));
#843=CARTESIAN_POINT('',(0.01525,-0.01525,0.001));
#844=CARTESIAN_POINT('',(0.01525,-0.01525,0.01));
#845=CARTESIAN_POINT('',(0.01525,-0.01525,0.009));
#846=CARTESIAN_POINT('',(0.01525,0.01525,0.009));
#847=CARTESIAN_POINT('',(0.02,-3.46944695195361E-18,0.01));
#848=CARTESIAN_POINT('',(0.02,-0.019,0.01));
#849=CARTESIAN_POINT('',(0.02,-0.019,0.009));
#850=CARTESIAN_POINT('',(0.02,-0.019,0.001));
#851=CARTESIAN_POINT('',(0.02,0.02,0.001));
#852=CARTESIAN_POINT('',(0.02,0.019,0.001));
#853=CARTESIAN_POINT('',(0.02,0.019,0.01));
#854=CARTESIAN_POINT('',(0.02,0.019,0.009));
#855=CARTESIAN_POINT('',(0.02,-3.46944695195361E-18,0.009));
#856=CARTESIAN_POINT('',(0.,0.02,0.01));
#857=CARTESIAN_POINT('',(0.019,0.02,0.));
#858=CARTESIAN_POINT('',(0.019,0.02,0.009));
#859=CARTESIAN_POINT('',(0.019,0.02,0.001));
#860=CARTESIAN_POINT('',(0.,0.02,0.001));
#861=CARTESIAN_POINT('',(-0.019,0.02,0.001));
#862=CARTESIAN_POINT('',(-0.019,0.02,0.01));
#863=CARTESIAN_POINT('',(-0.019,0.02,0.009));
#864=CARTESIAN_POINT('',(0.02,0.02,0.009));
#865=CARTESIAN_POINT('',(-0.02,3.46944695195361E-18,0.01));
#866=CARTESIAN_POINT('',(-0.02,0.019,0.01));
#867=CARTESIAN_POINT('',(-0.02,0.019,0.009));
#868=CARTESIAN_POINT('',(-0.02,0.019,0.001));
#869=CARTESIAN_POINT('',(-0.02,3.46944695195361E-18,0.001));
#870=CARTESIAN_POINT('',(-0.02,-0.019,0.001));
#871=CARTESIAN_POINT('',(-0.02,-0.019,0.01));
#872=CARTESIAN_POINT('',(-0.02,-0.019,0.009));
#873=CARTESIAN_POINT('',(-0.02,0.02,0.009));
#874=CARTESIAN_POINT('',(3.46944695195361E-18,-0.02,0.01));
#875=CARTESIAN_POINT('',(-0.019,-0.02,0.));
#876=CARTESIAN_POINT('',(-0.019,-0.02,0.009));
#877=CARTESIAN_POINT('',(-0.019,-0.02,0.001));
#878=CARTESIAN_POINT('',(0.02,-0.02,0.001));
#879=CARTESIAN_POINT('',(0.019,-0.02,0.001));
#880=CARTESIAN_POINT('',(0.019,-0.02,0.01));
#881=CARTESIAN_POINT('',(0.019,-0.02,0.009));
#882=CARTESIAN_POINT('',(3.46944695195361E-18,-0.02,0.009));
#883=CARTESIAN_POINT('',(-3.46944695195361E-18,-0.01525,0.01));
#884=CARTESIAN_POINT('',(-0.01525,-0.01525,0.001));
#885=CARTESIAN_POINT('',(-3.46944695195361E-18,-0.01525,0.009));
#886=CARTESIAN_POINT('',(0.,0.,0.01));
#887=CARTESIAN_POINT('',(-0.019,-0.02,0.01));
#888=CARTESIAN_POINT('',(-0.019,0.019,0.01));
#889=CARTESIAN_POINT('',(-0.019,-0.019,0.01));
#890=CARTESIAN_POINT('',(3.29597460435593E-18,-0.019,0.01));
#891=CARTESIAN_POINT('',(0.019,-0.019,0.01));
#892=CARTESIAN_POINT('',(0.019,0.,0.01));
#893=CARTESIAN_POINT('',(0.019,0.019,0.01));
#894=CARTESIAN_POINT('',(-0.02,0.019,0.01));
#895=CARTESIAN_POINT('',(0.01625,-0.01525,0.01));
#896=CARTESIAN_POINT('',(0.01625,0.01625,0.01));
#897=CARTESIAN_POINT('',(0.01625,-0.01625,0.01));
#898=CARTESIAN_POINT('',(0.,-0.01625,0.01));
#899=CARTESIAN_POINT('',(-0.01625,-0.01625,0.01));
#900=CARTESIAN_POINT('',(-0.01625,2.77271375258588E-18,0.01));
#901=CARTESIAN_POINT('',(-0.01625,0.01625,0.01));
#902=CARTESIAN_POINT('',(0.01525,0.01625,0.01));
#903=CARTESIAN_POINT('',(0.,0.,0.));
#904=CARTESIAN_POINT('',(-0.01625,-0.01525,0.));
#905=CARTESIAN_POINT('',(-0.01625,0.01625,0.));
#906=CARTESIAN_POINT('',(-0.01625,-0.01625,0.));
#907=CARTESIAN_POINT('',(0.01525,-0.01625,0.));
#908=CARTESIAN_POINT('',(0.01625,-0.01625,0.));
#909=CARTESIAN_POINT('',(0.01625,-2.77271375258588E-18,0.));
#910=CARTESIAN_POINT('',(0.01625,0.01625,0.));
#911=CARTESIAN_POINT('',(0.,0.01625,0.));
#912=CARTESIAN_POINT('',(-0.02,-0.019,0.));
#913=CARTESIAN_POINT('',(0.019,-0.019,0.));
#914=CARTESIAN_POINT('',(-0.019,-0.019,0.));
#915=CARTESIAN_POINT('',(-0.019,0.,0.));
#916=CARTESIAN_POINT('',(-0.019,0.019,0.));
#917=CARTESIAN_POINT('',(3.29597460435593E-18,0.019,0.));
#918=CARTESIAN_POINT('',(0.019,0.019,0.));
#919=CARTESIAN_POINT('',(0.019,-0.02,0.));
#920=CARTESIAN_POINT('',(-0.01625,2.77271375258588E-18,0.001));
#921=CARTESIAN_POINT('',(-0.01625,-0.01625,0.001));
#922=CARTESIAN_POINT('',(-0.01625,0.01625,0.001));
#923=CARTESIAN_POINT('',(1.7347234759768E-18,0.01625,0.001));
#924=CARTESIAN_POINT('',(0.01625,0.01625,0.001));
#925=CARTESIAN_POINT('',(0.,-0.01625,0.001));
#926=CARTESIAN_POINT('',(0.01625,-0.01625,0.001));
#927=CARTESIAN_POINT('',(0.01625,1.56409493735614E-18,0.001));
#928=CARTESIAN_POINT('',(0.019,-3.46944695195361E-18,0.009));
#929=CARTESIAN_POINT('',(0.019,0.019,0.009));
#930=CARTESIAN_POINT('',(0.019,-0.019,0.009));
#931=CARTESIAN_POINT('',(0.019,0.019,0.009));
#932=CARTESIAN_POINT('',(0.019,0.019,0.009));
#933=CARTESIAN_POINT('',(0.019,0.019,0.009));
#934=CARTESIAN_POINT('',(0.019,-0.019,0.009));
#935=CARTESIAN_POINT('',(0.019,-0.019,0.009));
#936=CARTESIAN_POINT('',(0.019,-0.019,0.009));
#937=CARTESIAN_POINT('',(0.019,0.019,0.01));
#938=CARTESIAN_POINT('',(0.019,0.019,0.001));
#939=CARTESIAN_POINT('',(3.29597460435593E-18,0.019,0.009));
#940=CARTESIAN_POINT('',(-0.019,0.019,0.009));
#941=CARTESIAN_POINT('',(-0.019,0.,0.009));
#942=CARTESIAN_POINT('',(-0.019,-0.019,0.009));
#943=CARTESIAN_POINT('',(-0.019,0.019,0.009));
#944=CARTESIAN_POINT('',(3.29597460435593E-18,-0.019,0.009));
#945=CARTESIAN_POINT('',(-0.019,-0.019,0.009));
#946=CARTESIAN_POINT('',(0.019,-0.019,0.01));
#947=CARTESIAN_POINT('',(0.019,-0.019,0.001));
#948=CARTESIAN_POINT('',(0.019,0.,0.001));
#949=CARTESIAN_POINT('',(0.019,0.019,0.001));
#950=CARTESIAN_POINT('',(0.019,-0.019,0.001));
#951=CARTESIAN_POINT('',(0.019,0.019,0.001));
#952=CARTESIAN_POINT('',(0.019,0.019,0.001));
#953=CARTESIAN_POINT('',(-0.019,0.019,0.009));
#954=CARTESIAN_POINT('',(-0.019,0.019,0.009));
#955=CARTESIAN_POINT('',(-0.019,-0.019,0.009));
#956=CARTESIAN_POINT('',(-0.019,-0.019,0.009));
#957=CARTESIAN_POINT('',(0.019,-0.019,0.001));
#958=CARTESIAN_POINT('',(0.019,-0.019,0.001));
#959=CARTESIAN_POINT('',(-1.73472347597681E-19,0.019,0.001));
#960=CARTESIAN_POINT('',(-0.019,0.019,0.001));
#961=CARTESIAN_POINT('',(-0.019,0.019,0.01));
#962=CARTESIAN_POINT('',(-0.019,0.019,0.001));
#963=CARTESIAN_POINT('',(-0.019,-0.019,0.01));
#964=CARTESIAN_POINT('',(-0.019,-0.019,0.001));
#965=CARTESIAN_POINT('',(3.29597460435593E-18,-0.019,0.001));
#966=CARTESIAN_POINT('',(-0.019,-0.019,0.001));
#967=CARTESIAN_POINT('',(-0.019,0.019,0.001));
#968=CARTESIAN_POINT('',(-0.019,0.019,0.001));
#969=CARTESIAN_POINT('',(-0.019,-0.019,0.001));
#970=CARTESIAN_POINT('',(-0.019,-0.019,0.001));
#971=CARTESIAN_POINT('',(-0.019,3.46944695195361E-18,0.001));
#972=CARTESIAN_POINT('',(0.,0.01625,0.009));
#973=CARTESIAN_POINT('',(0.01625,0.01625,0.009));
#974=CARTESIAN_POINT('',(-0.01625,0.01625,0.009));
#975=CARTESIAN_POINT('',(-0.01625,1.90535201459747E-18,0.009));
#976=CARTESIAN_POINT('',(-0.01625,-0.01625,0.009));
#977=CARTESIAN_POINT('',(0.01625,-2.77271375258588E-18,0.009));
#978=CARTESIAN_POINT('',(0.01625,-0.01625,0.009));
#979=CARTESIAN_POINT('',(-3.46944695195361E-18,-0.01625,0.009));
#980=MECHANICAL_DESIGN_GEOMETRIC_PRESENTATION_REPRESENTATION('',(#557),
#981);
#981=(
GEOMETRIC_REPRESENTATION_CONTEXT(3)
GLOBAL_UNCERTAINTY_ASSIGNED_CONTEXT((#982))
GLOBAL_UNIT_ASSIGNED_CONTEXT((#985,#984,#983))
REPRESENTATION_CONTEXT('Part 1','TOP_LEVEL_ASSEMBLY_PART')
);
#982=UNCERTAINTY_MEASURE_WITH_UNIT(LENGTH_MEASURE(1.E-8),#985,
'DISTANCE_ACCURACY_VALUE','Maximum Tolerance applied to model');
#983=(
NAMED_UNIT(*)
SI_UNIT($,.STERADIAN.)
SOLID_ANGLE_UNIT()
);
#984=(
NAMED_UNIT(*)
PLANE_ANGLE_UNIT()
SI_UNIT($,.RADIAN.)
);
#985=(
LENGTH_UNIT()
NAMED_UNIT(*)
SI_UNIT($,.METRE.)
);
#986=PRODUCT_DEFINITION_SHAPE('','',#987);
#987=PRODUCT_DEFINITION('','',#989,#988);
#988=PRODUCT_DEFINITION_CONTEXT('',#995,'design');
#989=PRODUCT_DEFINITION_FORMATION_WITH_SPECIFIED_SOURCE('','',#991,
 .NOT_KNOWN.);
#990=PRODUCT_RELATED_PRODUCT_CATEGORY('','',(#991));
#991=PRODUCT('Part 1','Part 1','Part 1',(#993));
#992=PRODUCT_CATEGORY('','');
#993=PRODUCT_CONTEXT('',#995,'mechanical');
#994=APPLICATION_PROTOCOL_DEFINITION('international standard',
'ap242_managed_model_based_3d_engineering',2011,#995);
#995=APPLICATION_CONTEXT('managed model based 3d engineering');
ENDSEC;
END-ISO-10303-21;
