ISO-10303-21;
HEADER;
/* Generated by software containing ST-Developer
 * from STEP Tools, Inc. (www.steptools.com) 
 */
/* OPTION: using custom renumber hook */

FILE_DESCRIPTION(
/* description */ ('STEP AP242',
'CAx-IF Rec.Pracs.---Representation and Presentation of Product Manufa
cturing Information (PMI)---4.0---2014-10-13',
'CAx-IF Rec.Pracs.---3D Tessellated Geometry---0.4---2014-09-14','2;1'),

/* implementation_level */ '2;1');

FILE_NAME(
/* name */ '67dc495aa539221d370f6133',
/* time_stamp */ '2025-03-20T16:59:07Z',
/* author */ (''),
/* organization */ (''),
/* preprocessor_version */ 'ST-DEVELOPER v20',
/* originating_system */ 'ONSHAPE BY PTC INC, 1.195',
/* authorisation */ '  ');

FILE_SCHEMA (('AP242_MANAGED_MODEL_BASED_3D_ENGINEERING_MIM_LF { 1 0 10303 442 1 1 4 }'));
ENDSEC;

DATA;
#10=SHAPE_REPRESENTATION_RELATIONSHIP('','',#655,#11);
#11=ADVANCED_BREP_SHAPE_REPRESENTATION('',(#653),#1210);
#12=SPHERICAL_SURFACE('',#720,0.002);
#13=SPHERICAL_SURFACE('',#724,0.002);
#14=TOROIDAL_SURFACE('',#711,0.01,0.002);
#15=TOROIDAL_SURFACE('',#715,0.01,0.002);
#16=TOROIDAL_SURFACE('',#728,0.03294140625,0.002);
#17=(
BOUNDED_SURFACE()
B_SPLINE_SURFACE(3,2,((#1103,#1104,#1105),(#1106,#1107,#1108),(#1109,#1110,
#1111),(#1112,#1113,#1114),(#1115,#1116,#1117),(#1118,#1119,#1120),(#1121,
#1122,#1123)),.UNSPECIFIED.,.F.,.F.,.F.)
B_SPLINE_SURFACE_WITH_KNOTS((4,1,1,1,4),(3,3),(4.71238898038469,5.10508806208341,
5.49778714378214,5.89048622548086,6.28318530717959),(0.,1.),
 .UNSPECIFIED.)
GEOMETRIC_REPRESENTATION_ITEM()
RATIONAL_B_SPLINE_SURFACE(((1.,1.,1.),(1.,0.999999999998233,1.),(1.,0.973464424251736,
1.),(1.,0.869029034408519,1.),(1.,0.746571860820826,1.),(1.,0.707106781206806,
1.),(1.,0.707106781186548,1.)))
REPRESENTATION_ITEM('')
SURFACE()
);
#18=(
BOUNDED_SURFACE()
B_SPLINE_SURFACE(3,2,((#1126,#1127,#1128),(#1129,#1130,#1131),(#1132,#1133,
#1134),(#1135,#1136,#1137),(#1138,#1139,#1140),(#1141,#1142,#1143),(#1144,
#1145,#1146)),.UNSPECIFIED.,.F.,.F.,.F.)
B_SPLINE_SURFACE_WITH_KNOTS((4,1,1,1,4),(3,3),(6.28318530717959,6.67588438887831,
7.06858347057703,7.46128255227576,7.85398163397448),(0.,1.),
 .UNSPECIFIED.)
GEOMETRIC_REPRESENTATION_ITEM()
RATIONAL_B_SPLINE_SURFACE(((1.,0.707106781186548,1.),(1.,0.707106781206806,
1.),(1.,0.746571860820825,1.),(1.,0.869029034408516,1.),(1.,0.973464424251735,
1.),(1.,0.999999999998233,1.),(1.,1.,1.)))
REPRESENTATION_ITEM('')
SURFACE()
);
#19=(
BOUNDED_SURFACE()
B_SPLINE_SURFACE(3,2,((#1155,#1156,#1157),(#1158,#1159,#1160),(#1161,#1162,
#1163),(#1164,#1165,#1166),(#1167,#1168,#1169),(#1170,#1171,#1172),(#1173,
#1174,#1175)),.UNSPECIFIED.,.F.,.F.,.F.)
B_SPLINE_SURFACE_WITH_KNOTS((4,1,1,1,4),(3,3),(1.5707963267949,1.96349540849362,
2.35619449019234,2.74889357189107,3.14159265358979),(0.,1.),
 .UNSPECIFIED.)
GEOMETRIC_REPRESENTATION_ITEM()
RATIONAL_B_SPLINE_SURFACE(((1.,1.,1.),(1.,0.999999999998232,1.),(1.,0.973464424251729,
1.),(1.,0.86902903440854,1.),(1.,0.746571860820745,1.),(1.,0.70710678120698,
1.),(1.,0.707106781186547,1.)))
REPRESENTATION_ITEM('')
SURFACE()
);
#20=(
BOUNDED_SURFACE()
B_SPLINE_SURFACE(3,2,((#1187,#1188,#1189),(#1190,#1191,#1192),(#1193,#1194,
#1195),(#1196,#1197,#1198),(#1199,#1200,#1201),(#1202,#1203,#1204),(#1205,
#1206,#1207)),.UNSPECIFIED.,.F.,.F.,.F.)
B_SPLINE_SURFACE_WITH_KNOTS((4,1,1,1,4),(3,3),(4.71238898038469,5.10508806208341,
5.49778714378214,5.89048622548086,6.28318530717959),(0.,1.),
 .UNSPECIFIED.)
GEOMETRIC_REPRESENTATION_ITEM()
RATIONAL_B_SPLINE_SURFACE(((1.,1.,1.),(1.,0.999999999998233,1.),(1.,0.973464424251729,
1.),(1.,0.869029034408541,1.),(1.,0.746571860820745,1.),(1.,0.70710678120698,
1.),(1.,0.707106781186547,1.)))
REPRESENTATION_ITEM('')
SURFACE()
);
#21=ELLIPSE('',#683,0.00447213595499958,0.004);
#22=ELLIPSE('',#684,0.00447213595499958,0.004);
#23=ELLIPSE('',#686,0.00447213595499958,0.004);
#24=ELLIPSE('',#687,0.00447213595499958,0.004);
#25=ELLIPSE('',#689,0.00447213595499958,0.004);
#26=ELLIPSE('',#690,0.00447213595499958,0.004);
#27=ELLIPSE('',#692,0.00447213595499958,0.004);
#28=ELLIPSE('',#693,0.00447213595499958,0.004);
#29=ELLIPSE('',#695,0.00282842712474619,0.002);
#30=ELLIPSE('',#696,0.00282842712474619,0.002);
#31=ELLIPSE('',#698,0.00282842712474619,0.002);
#32=ELLIPSE('',#700,0.00282842712474619,0.002);
#33=CYLINDRICAL_SURFACE('',#670,0.03494140625);
#34=CYLINDRICAL_SURFACE('',#682,0.004);
#35=CYLINDRICAL_SURFACE('',#685,0.004);
#36=CYLINDRICAL_SURFACE('',#688,0.004);
#37=CYLINDRICAL_SURFACE('',#691,0.004);
#38=CYLINDRICAL_SURFACE('',#694,0.002);
#39=CYLINDRICAL_SURFACE('',#697,0.002);
#40=CYLINDRICAL_SURFACE('',#699,0.002);
#41=CYLINDRICAL_SURFACE('',#701,0.002);
#42=CYLINDRICAL_SURFACE('',#702,0.008);
#43=CYLINDRICAL_SURFACE('',#705,0.002);
#44=CYLINDRICAL_SURFACE('',#707,0.002);
#45=CYLINDRICAL_SURFACE('',#709,0.002);
#46=CYLINDRICAL_SURFACE('',#713,0.002);
#47=CYLINDRICAL_SURFACE('',#718,0.002);
#48=CYLINDRICAL_SURFACE('',#722,0.002);
#49=CYLINDRICAL_SURFACE('',#726,0.002);
#50=B_SPLINE_CURVE_WITH_KNOTS('',3,(#940,#941,#942,#943,#944,#945),
 .UNSPECIFIED.,.F.,.F.,(4,1,1,4),(0.,0.00209099927245526,0.00313649890868288,
0.00418199854491051),.UNSPECIFIED.);
#51=B_SPLINE_CURVE_WITH_KNOTS('',3,(#968,#969,#970,#971,#972,#973,#974),
 .UNSPECIFIED.,.F.,.F.,(4,1,1,1,4),(0.,0.00105512630901555,0.0021102526180311,
0.00316537892704664,0.00422050523606219),.UNSPECIFIED.);
#52=B_SPLINE_CURVE_WITH_KNOTS('',3,(#1076,#1077,#1078,#1079),
 .UNSPECIFIED.,.F.,.F.,(4,4),(0.,0.000899708367569811),.UNSPECIFIED.);
#53=B_SPLINE_CURVE_WITH_KNOTS('',3,(#1083,#1084,#1085,#1086),
 .UNSPECIFIED.,.F.,.F.,(4,4),(0.,0.000899708367569812),.UNSPECIFIED.);
#54=CIRCLE('',#658,0.002);
#55=CIRCLE('',#659,0.002);
#56=CIRCLE('',#661,0.01);
#57=CIRCLE('',#663,0.002);
#58=CIRCLE('',#664,0.002);
#59=CIRCLE('',#666,0.01);
#60=CIRCLE('',#668,0.03294140625);
#61=CIRCLE('',#671,0.03494140625);
#62=CIRCLE('',#672,0.03494140625);
#63=CIRCLE('',#703,0.008);
#64=CIRCLE('',#704,0.008);
#65=CIRCLE('',#706,0.002);
#66=CIRCLE('',#708,0.002);
#67=CIRCLE('',#710,0.002);
#68=CIRCLE('',#712,0.002);
#69=CIRCLE('',#714,0.002);
#70=CIRCLE('',#716,0.002);
#71=CIRCLE('',#717,0.002);
#72=CIRCLE('',#719,0.002);
#73=CIRCLE('',#721,0.002);
#74=CIRCLE('',#723,0.002);
#75=CIRCLE('',#725,0.002);
#76=CIRCLE('',#727,0.002);
#77=ORIENTED_EDGE('',*,*,#259,.F.);
#78=ORIENTED_EDGE('',*,*,#260,.T.);
#79=ORIENTED_EDGE('',*,*,#261,.F.);
#80=ORIENTED_EDGE('',*,*,#262,.T.);
#81=ORIENTED_EDGE('',*,*,#263,.T.);
#82=ORIENTED_EDGE('',*,*,#264,.T.);
#83=ORIENTED_EDGE('',*,*,#265,.T.);
#84=ORIENTED_EDGE('',*,*,#266,.T.);
#85=ORIENTED_EDGE('',*,*,#267,.T.);
#86=ORIENTED_EDGE('',*,*,#268,.T.);
#87=ORIENTED_EDGE('',*,*,#269,.T.);
#88=ORIENTED_EDGE('',*,*,#270,.F.);
#89=ORIENTED_EDGE('',*,*,#271,.T.);
#90=ORIENTED_EDGE('',*,*,#270,.T.);
#91=ORIENTED_EDGE('',*,*,#272,.T.);
#92=ORIENTED_EDGE('',*,*,#273,.F.);
#93=ORIENTED_EDGE('',*,*,#274,.F.);
#94=ORIENTED_EDGE('',*,*,#275,.T.);
#95=ORIENTED_EDGE('',*,*,#276,.T.);
#96=ORIENTED_EDGE('',*,*,#277,.T.);
#97=ORIENTED_EDGE('',*,*,#278,.T.);
#98=ORIENTED_EDGE('',*,*,#279,.T.);
#99=ORIENTED_EDGE('',*,*,#280,.T.);
#100=ORIENTED_EDGE('',*,*,#281,.T.);
#101=ORIENTED_EDGE('',*,*,#261,.T.);
#102=ORIENTED_EDGE('',*,*,#282,.T.);
#103=ORIENTED_EDGE('',*,*,#283,.T.);
#104=ORIENTED_EDGE('',*,*,#263,.F.);
#105=ORIENTED_EDGE('',*,*,#284,.T.);
#106=ORIENTED_EDGE('',*,*,#285,.T.);
#107=ORIENTED_EDGE('',*,*,#286,.T.);
#108=ORIENTED_EDGE('',*,*,#276,.F.);
#109=ORIENTED_EDGE('',*,*,#287,.T.);
#110=ORIENTED_EDGE('',*,*,#288,.T.);
#111=ORIENTED_EDGE('',*,*,#259,.T.);
#112=ORIENTED_EDGE('',*,*,#289,.T.);
#113=ORIENTED_EDGE('',*,*,#273,.T.);
#114=ORIENTED_EDGE('',*,*,#290,.T.);
#115=ORIENTED_EDGE('',*,*,#265,.F.);
#116=ORIENTED_EDGE('',*,*,#291,.T.);
#117=ORIENTED_EDGE('',*,*,#274,.T.);
#118=ORIENTED_EDGE('',*,*,#292,.T.);
#119=ORIENTED_EDGE('',*,*,#293,.T.);
#120=ORIENTED_EDGE('',*,*,#294,.F.);
#121=ORIENTED_EDGE('',*,*,#289,.F.);
#122=ORIENTED_EDGE('',*,*,#294,.T.);
#123=ORIENTED_EDGE('',*,*,#295,.T.);
#124=ORIENTED_EDGE('',*,*,#292,.F.);
#125=ORIENTED_EDGE('',*,*,#293,.F.);
#126=ORIENTED_EDGE('',*,*,#295,.F.);
#127=ORIENTED_EDGE('',*,*,#296,.F.);
#128=ORIENTED_EDGE('',*,*,#297,.T.);
#129=ORIENTED_EDGE('',*,*,#298,.T.);
#130=ORIENTED_EDGE('',*,*,#299,.F.);
#131=ORIENTED_EDGE('',*,*,#300,.T.);
#132=ORIENTED_EDGE('',*,*,#301,.T.);
#133=ORIENTED_EDGE('',*,*,#302,.T.);
#134=ORIENTED_EDGE('',*,*,#303,.T.);
#135=ORIENTED_EDGE('',*,*,#304,.T.);
#136=ORIENTED_EDGE('',*,*,#305,.T.);
#137=ORIENTED_EDGE('',*,*,#306,.T.);
#138=ORIENTED_EDGE('',*,*,#307,.T.);
#139=ORIENTED_EDGE('',*,*,#308,.T.);
#140=ORIENTED_EDGE('',*,*,#309,.T.);
#141=ORIENTED_EDGE('',*,*,#310,.T.);
#142=ORIENTED_EDGE('',*,*,#311,.T.);
#143=ORIENTED_EDGE('',*,*,#312,.F.);
#144=ORIENTED_EDGE('',*,*,#313,.T.);
#145=ORIENTED_EDGE('',*,*,#314,.T.);
#146=ORIENTED_EDGE('',*,*,#296,.T.);
#147=ORIENTED_EDGE('',*,*,#314,.F.);
#148=ORIENTED_EDGE('',*,*,#315,.T.);
#149=ORIENTED_EDGE('',*,*,#316,.T.);
#150=ORIENTED_EDGE('',*,*,#297,.F.);
#151=ORIENTED_EDGE('',*,*,#316,.F.);
#152=ORIENTED_EDGE('',*,*,#317,.T.);
#153=ORIENTED_EDGE('',*,*,#318,.T.);
#154=ORIENTED_EDGE('',*,*,#298,.F.);
#155=ORIENTED_EDGE('',*,*,#318,.F.);
#156=ORIENTED_EDGE('',*,*,#319,.T.);
#157=ORIENTED_EDGE('',*,*,#312,.T.);
#158=ORIENTED_EDGE('',*,*,#299,.T.);
#159=ORIENTED_EDGE('',*,*,#300,.F.);
#160=ORIENTED_EDGE('',*,*,#320,.T.);
#161=ORIENTED_EDGE('',*,*,#287,.F.);
#162=ORIENTED_EDGE('',*,*,#321,.T.);
#163=ORIENTED_EDGE('',*,*,#303,.F.);
#164=ORIENTED_EDGE('',*,*,#322,.T.);
#165=ORIENTED_EDGE('',*,*,#278,.F.);
#166=ORIENTED_EDGE('',*,*,#323,.T.);
#167=ORIENTED_EDGE('',*,*,#268,.F.);
#168=ORIENTED_EDGE('',*,*,#324,.T.);
#169=ORIENTED_EDGE('',*,*,#301,.F.);
#170=ORIENTED_EDGE('',*,*,#325,.T.);
#171=ORIENTED_EDGE('',*,*,#306,.F.);
#172=ORIENTED_EDGE('',*,*,#326,.T.);
#173=ORIENTED_EDGE('',*,*,#302,.F.);
#174=ORIENTED_EDGE('',*,*,#327,.T.);
#175=ORIENTED_EDGE('',*,*,#310,.F.);
#176=ORIENTED_EDGE('',*,*,#328,.T.);
#177=ORIENTED_EDGE('',*,*,#329,.T.);
#178=ORIENTED_EDGE('',*,*,#330,.T.);
#179=ORIENTED_EDGE('',*,*,#331,.F.);
#180=ORIENTED_EDGE('',*,*,#308,.F.);
#181=ORIENTED_EDGE('',*,*,#332,.F.);
#182=ORIENTED_EDGE('',*,*,#315,.F.);
#183=ORIENTED_EDGE('',*,*,#307,.F.);
#184=ORIENTED_EDGE('',*,*,#330,.F.);
#185=ORIENTED_EDGE('',*,*,#333,.F.);
#186=ORIENTED_EDGE('',*,*,#317,.F.);
#187=ORIENTED_EDGE('',*,*,#332,.T.);
#188=ORIENTED_EDGE('',*,*,#331,.T.);
#189=ORIENTED_EDGE('',*,*,#313,.F.);
#190=ORIENTED_EDGE('',*,*,#334,.F.);
#191=ORIENTED_EDGE('',*,*,#328,.F.);
#192=ORIENTED_EDGE('',*,*,#309,.F.);
#193=ORIENTED_EDGE('',*,*,#333,.T.);
#194=ORIENTED_EDGE('',*,*,#329,.F.);
#195=ORIENTED_EDGE('',*,*,#334,.T.);
#196=ORIENTED_EDGE('',*,*,#319,.F.);
#197=ORIENTED_EDGE('',*,*,#285,.F.);
#198=ORIENTED_EDGE('',*,*,#335,.T.);
#199=ORIENTED_EDGE('',*,*,#336,.F.);
#200=ORIENTED_EDGE('',*,*,#337,.T.);
#201=ORIENTED_EDGE('',*,*,#260,.F.);
#202=ORIENTED_EDGE('',*,*,#288,.F.);
#203=ORIENTED_EDGE('',*,*,#338,.F.);
#204=ORIENTED_EDGE('',*,*,#282,.F.);
#205=ORIENTED_EDGE('',*,*,#338,.T.);
#206=ORIENTED_EDGE('',*,*,#320,.F.);
#207=ORIENTED_EDGE('',*,*,#323,.F.);
#208=ORIENTED_EDGE('',*,*,#272,.F.);
#209=ORIENTED_EDGE('',*,*,#269,.F.);
#210=ORIENTED_EDGE('',*,*,#339,.F.);
#211=ORIENTED_EDGE('',*,*,#290,.F.);
#212=ORIENTED_EDGE('',*,*,#325,.F.);
#213=ORIENTED_EDGE('',*,*,#321,.F.);
#214=ORIENTED_EDGE('',*,*,#339,.T.);
#215=ORIENTED_EDGE('',*,*,#262,.F.);
#216=ORIENTED_EDGE('',*,*,#281,.F.);
#217=ORIENTED_EDGE('',*,*,#340,.F.);
#218=ORIENTED_EDGE('',*,*,#284,.F.);
#219=ORIENTED_EDGE('',*,*,#340,.T.);
#220=ORIENTED_EDGE('',*,*,#280,.F.);
#221=ORIENTED_EDGE('',*,*,#341,.F.);
#222=ORIENTED_EDGE('',*,*,#335,.F.);
#223=ORIENTED_EDGE('',*,*,#277,.F.);
#224=ORIENTED_EDGE('',*,*,#286,.F.);
#225=ORIENTED_EDGE('',*,*,#342,.F.);
#226=ORIENTED_EDGE('',*,*,#271,.F.);
#227=ORIENTED_EDGE('',*,*,#342,.T.);
#228=ORIENTED_EDGE('',*,*,#337,.F.);
#229=ORIENTED_EDGE('',*,*,#343,.F.);
#230=ORIENTED_EDGE('',*,*,#266,.F.);
#231=ORIENTED_EDGE('',*,*,#327,.F.);
#232=ORIENTED_EDGE('',*,*,#324,.F.);
#233=ORIENTED_EDGE('',*,*,#344,.F.);
#234=ORIENTED_EDGE('',*,*,#344,.T.);
#235=ORIENTED_EDGE('',*,*,#267,.F.);
#236=ORIENTED_EDGE('',*,*,#345,.F.);
#237=ORIENTED_EDGE('',*,*,#311,.F.);
#238=ORIENTED_EDGE('',*,*,#345,.T.);
#239=ORIENTED_EDGE('',*,*,#343,.T.);
#240=ORIENTED_EDGE('',*,*,#346,.F.);
#241=ORIENTED_EDGE('',*,*,#346,.T.);
#242=ORIENTED_EDGE('',*,*,#336,.T.);
#243=ORIENTED_EDGE('',*,*,#347,.F.);
#244=ORIENTED_EDGE('',*,*,#304,.F.);
#245=ORIENTED_EDGE('',*,*,#347,.T.);
#246=ORIENTED_EDGE('',*,*,#341,.T.);
#247=ORIENTED_EDGE('',*,*,#348,.F.);
#248=ORIENTED_EDGE('',*,*,#348,.T.);
#249=ORIENTED_EDGE('',*,*,#279,.F.);
#250=ORIENTED_EDGE('',*,*,#349,.F.);
#251=ORIENTED_EDGE('',*,*,#305,.F.);
#252=ORIENTED_EDGE('',*,*,#349,.T.);
#253=ORIENTED_EDGE('',*,*,#322,.F.);
#254=ORIENTED_EDGE('',*,*,#326,.F.);
#255=ORIENTED_EDGE('',*,*,#275,.F.);
#256=ORIENTED_EDGE('',*,*,#291,.F.);
#257=ORIENTED_EDGE('',*,*,#264,.F.);
#258=ORIENTED_EDGE('',*,*,#283,.F.);
#259=EDGE_CURVE('',#350,#351,#402,.T.);
#260=EDGE_CURVE('',#350,#352,#54,.T.);
#261=EDGE_CURVE('',#353,#352,#403,.T.);
#262=EDGE_CURVE('',#353,#354,#55,.T.);
#263=EDGE_CURVE('',#354,#355,#404,.T.);
#264=EDGE_CURVE('',#355,#356,#50,.T.);
#265=EDGE_CURVE('',#356,#351,#405,.T.);
#266=EDGE_CURVE('',#357,#358,#56,.T.);
#267=EDGE_CURVE('',#358,#359,#406,.T.);
#268=EDGE_CURVE('',#359,#360,#407,.T.);
#269=EDGE_CURVE('',#360,#361,#408,.T.);
#270=EDGE_CURVE('',#362,#361,#409,.T.);
#271=EDGE_CURVE('',#362,#357,#410,.F.);
#272=EDGE_CURVE('',#361,#363,#57,.T.);
#273=EDGE_CURVE('',#364,#363,#411,.T.);
#274=EDGE_CURVE('',#365,#364,#412,.T.);
#275=EDGE_CURVE('',#365,#366,#51,.T.);
#276=EDGE_CURVE('',#366,#367,#413,.T.);
#277=EDGE_CURVE('',#367,#362,#58,.T.);
#278=EDGE_CURVE('',#368,#369,#414,.F.);
#279=EDGE_CURVE('',#369,#370,#415,.F.);
#280=EDGE_CURVE('',#370,#371,#59,.T.);
#281=EDGE_CURVE('',#371,#353,#416,.F.);
#282=EDGE_CURVE('',#352,#368,#417,.T.);
#283=EDGE_CURVE('',#366,#355,#60,.T.);
#284=EDGE_CURVE('',#354,#372,#418,.T.);
#285=EDGE_CURVE('',#372,#373,#419,.T.);
#286=EDGE_CURVE('',#373,#367,#420,.T.);
#287=EDGE_CURVE('',#374,#375,#421,.F.);
#288=EDGE_CURVE('',#375,#350,#422,.F.);
#289=EDGE_CURVE('',#351,#364,#423,.T.);
#290=EDGE_CURVE('',#363,#374,#424,.F.);
#291=EDGE_CURVE('',#356,#365,#61,.F.);
#292=EDGE_CURVE('',#364,#376,#425,.T.);
#293=EDGE_CURVE('',#376,#377,#62,.T.);
#294=EDGE_CURVE('',#351,#377,#426,.T.);
#295=EDGE_CURVE('',#377,#376,#427,.T.);
#296=EDGE_CURVE('',#378,#379,#428,.T.);
#297=EDGE_CURVE('',#378,#380,#429,.T.);
#298=EDGE_CURVE('',#380,#381,#430,.T.);
#299=EDGE_CURVE('',#379,#381,#431,.T.);
#300=EDGE_CURVE('',#382,#383,#432,.T.);
#301=EDGE_CURVE('',#383,#384,#433,.F.);
#302=EDGE_CURVE('',#384,#385,#434,.F.);
#303=EDGE_CURVE('',#385,#382,#435,.T.);
#304=EDGE_CURVE('',#386,#387,#436,.F.);
#305=EDGE_CURVE('',#387,#388,#437,.T.);
#306=EDGE_CURVE('',#388,#389,#438,.T.);
#307=EDGE_CURVE('',#389,#390,#439,.T.);
#308=EDGE_CURVE('',#390,#391,#440,.T.);
#309=EDGE_CURVE('',#391,#392,#441,.F.);
#310=EDGE_CURVE('',#392,#393,#442,.T.);
#311=EDGE_CURVE('',#393,#386,#443,.F.);
#312=EDGE_CURVE('',#394,#379,#444,.T.);
#313=EDGE_CURVE('',#394,#395,#445,.T.);
#314=EDGE_CURVE('',#395,#378,#446,.T.);
#315=EDGE_CURVE('',#395,#396,#447,.F.);
#316=EDGE_CURVE('',#396,#380,#448,.T.);
#317=EDGE_CURVE('',#396,#397,#449,.F.);
#318=EDGE_CURVE('',#397,#381,#450,.T.);
#319=EDGE_CURVE('',#397,#394,#451,.T.);
#320=EDGE_CURVE('',#382,#375,#21,.F.);
#321=EDGE_CURVE('',#374,#383,#22,.F.);
#322=EDGE_CURVE('',#385,#369,#23,.F.);
#323=EDGE_CURVE('',#368,#382,#24,.T.);
#324=EDGE_CURVE('',#359,#384,#25,.T.);
#325=EDGE_CURVE('',#383,#360,#26,.T.);
#326=EDGE_CURVE('',#388,#385,#27,.T.);
#327=EDGE_CURVE('',#384,#393,#28,.F.);
#328=EDGE_CURVE('',#392,#398,#52,.F.);
#329=EDGE_CURVE('',#398,#399,#452,.T.);
#330=EDGE_CURVE('',#399,#389,#53,.T.);
#331=EDGE_CURVE('',#391,#395,#29,.T.);
#332=EDGE_CURVE('',#396,#390,#30,.F.);
#333=EDGE_CURVE('',#397,#399,#31,.F.);
#334=EDGE_CURVE('',#398,#394,#32,.T.);
#335=EDGE_CURVE('',#372,#400,#63,.F.);
#336=EDGE_CURVE('',#401,#400,#453,.F.);
#337=EDGE_CURVE('',#401,#373,#64,.F.);
#338=EDGE_CURVE('',#368,#375,#65,.T.);
#339=EDGE_CURVE('',#374,#360,#66,.T.);
#340=EDGE_CURVE('',#372,#371,#67,.T.);
#341=EDGE_CURVE('',#400,#370,#68,.T.);
#342=EDGE_CURVE('',#357,#373,#69,.T.);
#343=EDGE_CURVE('',#358,#401,#70,.T.);
#344=EDGE_CURVE('',#393,#359,#71,.T.);
#345=EDGE_CURVE('',#386,#358,#72,.T.);
#346=EDGE_CURVE('',#386,#401,#73,.T.);
#347=EDGE_CURVE('',#387,#400,#74,.T.);
#348=EDGE_CURVE('',#387,#370,#75,.T.);
#349=EDGE_CURVE('',#388,#369,#76,.T.);
#350=VERTEX_POINT('',#930);
#351=VERTEX_POINT('',#931);
#352=VERTEX_POINT('',#933);
#353=VERTEX_POINT('',#935);
#354=VERTEX_POINT('',#937);
#355=VERTEX_POINT('',#939);
#356=VERTEX_POINT('',#946);
#357=VERTEX_POINT('',#950);
#358=VERTEX_POINT('',#951);
#359=VERTEX_POINT('',#953);
#360=VERTEX_POINT('',#955);
#361=VERTEX_POINT('',#957);
#362=VERTEX_POINT('',#959);
#363=VERTEX_POINT('',#963);
#364=VERTEX_POINT('',#965);
#365=VERTEX_POINT('',#967);
#366=VERTEX_POINT('',#975);
#367=VERTEX_POINT('',#977);
#368=VERTEX_POINT('',#981);
#369=VERTEX_POINT('',#982);
#370=VERTEX_POINT('',#984);
#371=VERTEX_POINT('',#986);
#372=VERTEX_POINT('',#992);
#373=VERTEX_POINT('',#994);
#374=VERTEX_POINT('',#998);
#375=VERTEX_POINT('',#999);
#376=VERTEX_POINT('',#1006);
#377=VERTEX_POINT('',#1008);
#378=VERTEX_POINT('',#1015);
#379=VERTEX_POINT('',#1016);
#380=VERTEX_POINT('',#1018);
#381=VERTEX_POINT('',#1020);
#382=VERTEX_POINT('',#1024);
#383=VERTEX_POINT('',#1025);
#384=VERTEX_POINT('',#1027);
#385=VERTEX_POINT('',#1029);
#386=VERTEX_POINT('',#1033);
#387=VERTEX_POINT('',#1034);
#388=VERTEX_POINT('',#1036);
#389=VERTEX_POINT('',#1038);
#390=VERTEX_POINT('',#1040);
#391=VERTEX_POINT('',#1042);
#392=VERTEX_POINT('',#1044);
#393=VERTEX_POINT('',#1046);
#394=VERTEX_POINT('',#1050);
#395=VERTEX_POINT('',#1052);
#396=VERTEX_POINT('',#1056);
#397=VERTEX_POINT('',#1060);
#398=VERTEX_POINT('',#1080);
#399=VERTEX_POINT('',#1082);
#400=VERTEX_POINT('',#1097);
#401=VERTEX_POINT('',#1099);
#402=LINE('',#929,#454);
#403=LINE('',#934,#455);
#404=LINE('',#938,#456);
#405=LINE('',#947,#457);
#406=LINE('',#952,#458);
#407=LINE('',#954,#459);
#408=LINE('',#956,#460);
#409=LINE('',#958,#461);
#410=LINE('',#960,#462);
#411=LINE('',#964,#463);
#412=LINE('',#966,#464);
#413=LINE('',#976,#465);
#414=LINE('',#980,#466);
#415=LINE('',#983,#467);
#416=LINE('',#987,#468);
#417=LINE('',#988,#469);
#418=LINE('',#991,#470);
#419=LINE('',#993,#471);
#420=LINE('',#995,#472);
#421=LINE('',#997,#473);
#422=LINE('',#1000,#474);
#423=LINE('',#1001,#475);
#424=LINE('',#1002,#476);
#425=LINE('',#1005,#477);
#426=LINE('',#1009,#478);
#427=LINE('',#1011,#479);
#428=LINE('',#1014,#480);
#429=LINE('',#1017,#481);
#430=LINE('',#1019,#482);
#431=LINE('',#1021,#483);
#432=LINE('',#1023,#484);
#433=LINE('',#1026,#485);
#434=LINE('',#1028,#486);
#435=LINE('',#1030,#487);
#436=LINE('',#1032,#488);
#437=LINE('',#1035,#489);
#438=LINE('',#1037,#490);
#439=LINE('',#1039,#491);
#440=LINE('',#1041,#492);
#441=LINE('',#1043,#493);
#442=LINE('',#1045,#494);
#443=LINE('',#1047,#495);
#444=LINE('',#1049,#496);
#445=LINE('',#1051,#497);
#446=LINE('',#1053,#498);
#447=LINE('',#1055,#499);
#448=LINE('',#1057,#500);
#449=LINE('',#1059,#501);
#450=LINE('',#1061,#502);
#451=LINE('',#1063,#503);
#452=LINE('',#1081,#504);
#453=LINE('',#1098,#505);
#454=VECTOR('',#733,1.);
#455=VECTOR('',#736,1.);
#456=VECTOR('',#739,1.);
#457=VECTOR('',#740,1.);
#458=VECTOR('',#745,1.);
#459=VECTOR('',#746,1.);
#460=VECTOR('',#747,1.);
#461=VECTOR('',#748,1.);
#462=VECTOR('',#749,1.);
#463=VECTOR('',#754,1.);
#464=VECTOR('',#755,1.);
#465=VECTOR('',#756,1.);
#466=VECTOR('',#761,1.);
#467=VECTOR('',#762,1.);
#468=VECTOR('',#765,1.);
#469=VECTOR('',#766,1.);
#470=VECTOR('',#771,1.);
#471=VECTOR('',#772,1.);
#472=VECTOR('',#773,1.);
#473=VECTOR('',#776,1.);
#474=VECTOR('',#777,1.);
#475=VECTOR('',#778,1.);
#476=VECTOR('',#779,1.);
#477=VECTOR('',#784,1.);
#478=VECTOR('',#787,1.);
#479=VECTOR('',#790,1.);
#480=VECTOR('',#795,1.);
#481=VECTOR('',#796,1.);
#482=VECTOR('',#797,1.);
#483=VECTOR('',#798,1.);
#484=VECTOR('',#801,1.);
#485=VECTOR('',#802,1.);
#486=VECTOR('',#803,1.);
#487=VECTOR('',#804,1.);
#488=VECTOR('',#807,1.);
#489=VECTOR('',#808,1.);
#490=VECTOR('',#809,1.);
#491=VECTOR('',#810,1.);
#492=VECTOR('',#811,1.);
#493=VECTOR('',#812,1.);
#494=VECTOR('',#813,1.);
#495=VECTOR('',#814,1.);
#496=VECTOR('',#817,1.);
#497=VECTOR('',#818,1.);
#498=VECTOR('',#819,1.);
#499=VECTOR('',#822,1.);
#500=VECTOR('',#823,1.);
#501=VECTOR('',#826,1.);
#502=VECTOR('',#827,1.);
#503=VECTOR('',#830,1.);
#504=VECTOR('',#855,1.);
#505=VECTOR('',#876,1.);
#506=EDGE_LOOP('',(#77,#78,#79,#80,#81,#82,#83));
#507=EDGE_LOOP('',(#84,#85,#86,#87,#88,#89));
#508=EDGE_LOOP('',(#90,#91,#92,#93,#94,#95,#96));
#509=EDGE_LOOP('',(#97,#98,#99,#100,#101,#102));
#510=EDGE_LOOP('',(#103,#104,#105,#106,#107,#108));
#511=EDGE_LOOP('',(#109,#110,#111,#112,#113,#114));
#512=EDGE_LOOP('',(#115,#116,#117,#118,#119,#120));
#513=EDGE_LOOP('',(#121,#122,#123,#124));
#514=EDGE_LOOP('',(#125,#126));
#515=EDGE_LOOP('',(#127,#128,#129,#130));
#516=EDGE_LOOP('',(#131,#132,#133,#134));
#517=EDGE_LOOP('',(#135,#136,#137,#138,#139,#140,#141,#142));
#518=EDGE_LOOP('',(#143,#144,#145,#146));
#519=EDGE_LOOP('',(#147,#148,#149,#150));
#520=EDGE_LOOP('',(#151,#152,#153,#154));
#521=EDGE_LOOP('',(#155,#156,#157,#158));
#522=EDGE_LOOP('',(#159,#160,#161,#162));
#523=EDGE_LOOP('',(#163,#164,#165,#166));
#524=EDGE_LOOP('',(#167,#168,#169,#170));
#525=EDGE_LOOP('',(#171,#172,#173,#174,#175,#176,#177,#178));
#526=EDGE_LOOP('',(#179,#180,#181,#182));
#527=EDGE_LOOP('',(#183,#184,#185,#186,#187));
#528=EDGE_LOOP('',(#188,#189,#190,#191,#192));
#529=EDGE_LOOP('',(#193,#194,#195,#196));
#530=EDGE_LOOP('',(#197,#198,#199,#200));
#531=EDGE_LOOP('',(#201,#202,#203,#204));
#532=EDGE_LOOP('',(#205,#206,#207));
#533=EDGE_LOOP('',(#208,#209,#210,#211));
#534=EDGE_LOOP('',(#212,#213,#214));
#535=EDGE_LOOP('',(#215,#216,#217,#218));
#536=EDGE_LOOP('',(#219,#220,#221,#222));
#537=EDGE_LOOP('',(#223,#224,#225,#226));
#538=EDGE_LOOP('',(#227,#228,#229,#230));
#539=EDGE_LOOP('',(#231,#232,#233));
#540=EDGE_LOOP('',(#234,#235,#236,#237));
#541=EDGE_LOOP('',(#238,#239,#240));
#542=EDGE_LOOP('',(#241,#242,#243,#244));
#543=EDGE_LOOP('',(#245,#246,#247));
#544=EDGE_LOOP('',(#248,#249,#250,#251));
#545=EDGE_LOOP('',(#252,#253,#254));
#546=EDGE_LOOP('',(#255,#256,#257,#258));
#547=FACE_BOUND('',#506,.T.);
#548=FACE_BOUND('',#507,.T.);
#549=FACE_BOUND('',#508,.T.);
#550=FACE_BOUND('',#509,.T.);
#551=FACE_BOUND('',#510,.T.);
#552=FACE_BOUND('',#511,.T.);
#553=FACE_BOUND('',#512,.T.);
#554=FACE_BOUND('',#513,.T.);
#555=FACE_BOUND('',#514,.T.);
#556=FACE_BOUND('',#515,.T.);
#557=FACE_BOUND('',#516,.T.);
#558=FACE_BOUND('',#517,.T.);
#559=FACE_BOUND('',#518,.T.);
#560=FACE_BOUND('',#519,.T.);
#561=FACE_BOUND('',#520,.T.);
#562=FACE_BOUND('',#521,.T.);
#563=FACE_BOUND('',#522,.T.);
#564=FACE_BOUND('',#523,.T.);
#565=FACE_BOUND('',#524,.T.);
#566=FACE_BOUND('',#525,.T.);
#567=FACE_BOUND('',#526,.T.);
#568=FACE_BOUND('',#527,.T.);
#569=FACE_BOUND('',#528,.T.);
#570=FACE_BOUND('',#529,.T.);
#571=FACE_BOUND('',#530,.T.);
#572=FACE_BOUND('',#531,.T.);
#573=FACE_BOUND('',#532,.T.);
#574=FACE_BOUND('',#533,.T.);
#575=FACE_BOUND('',#534,.T.);
#576=FACE_BOUND('',#535,.T.);
#577=FACE_BOUND('',#536,.T.);
#578=FACE_BOUND('',#537,.T.);
#579=FACE_BOUND('',#538,.T.);
#580=FACE_BOUND('',#539,.T.);
#581=FACE_BOUND('',#540,.T.);
#582=FACE_BOUND('',#541,.T.);
#583=FACE_BOUND('',#542,.T.);
#584=FACE_BOUND('',#543,.T.);
#585=FACE_BOUND('',#544,.T.);
#586=FACE_BOUND('',#545,.T.);
#587=FACE_BOUND('',#546,.T.);
#588=PLANE('',#657);
#589=PLANE('',#660);
#590=PLANE('',#662);
#591=PLANE('',#665);
#592=PLANE('',#667);
#593=PLANE('',#669);
#594=PLANE('',#673);
#595=PLANE('',#674);
#596=PLANE('',#675);
#597=PLANE('',#676);
#598=PLANE('',#677);
#599=PLANE('',#678);
#600=PLANE('',#679);
#601=PLANE('',#680);
#602=PLANE('',#681);
#603=ADVANCED_FACE('',(#547),#588,.T.);
#604=ADVANCED_FACE('',(#548),#589,.F.);
#605=ADVANCED_FACE('',(#549),#590,.T.);
#606=ADVANCED_FACE('',(#550),#591,.F.);
#607=ADVANCED_FACE('',(#551),#592,.T.);
#608=ADVANCED_FACE('',(#552),#593,.F.);
#609=ADVANCED_FACE('',(#553),#33,.T.);
#610=ADVANCED_FACE('',(#554),#594,.F.);
#611=ADVANCED_FACE('',(#555),#595,.F.);
#612=ADVANCED_FACE('',(#556),#596,.T.);
#613=ADVANCED_FACE('',(#557),#597,.F.);
#614=ADVANCED_FACE('',(#558),#598,.T.);
#615=ADVANCED_FACE('',(#559),#599,.F.);
#616=ADVANCED_FACE('',(#560),#600,.T.);
#617=ADVANCED_FACE('',(#561),#601,.T.);
#618=ADVANCED_FACE('',(#562),#602,.F.);
#619=ADVANCED_FACE('',(#563),#34,.T.);
#620=ADVANCED_FACE('',(#564),#35,.T.);
#621=ADVANCED_FACE('',(#565),#36,.T.);
#622=ADVANCED_FACE('',(#566),#37,.T.);
#623=ADVANCED_FACE('',(#567),#38,.T.);
#624=ADVANCED_FACE('',(#568),#39,.T.);
#625=ADVANCED_FACE('',(#569),#40,.T.);
#626=ADVANCED_FACE('',(#570),#41,.T.);
#627=ADVANCED_FACE('',(#571),#42,.F.);
#628=ADVANCED_FACE('',(#572),#43,.T.);
#629=ADVANCED_FACE('',(#573),#17,.T.);
#630=ADVANCED_FACE('',(#574),#44,.T.);
#631=ADVANCED_FACE('',(#575),#18,.T.);
#632=ADVANCED_FACE('',(#576),#45,.T.);
#633=ADVANCED_FACE('',(#577),#14,.T.);
#634=ADVANCED_FACE('',(#578),#46,.T.);
#635=ADVANCED_FACE('',(#579),#15,.T.);
#636=ADVANCED_FACE('',(#580),#19,.T.);
#637=ADVANCED_FACE('',(#581),#47,.T.);
#638=ADVANCED_FACE('',(#582),#12,.T.);
#639=ADVANCED_FACE('',(#583),#48,.T.);
#640=ADVANCED_FACE('',(#584),#13,.T.);
#641=ADVANCED_FACE('',(#585),#49,.T.);
#642=ADVANCED_FACE('',(#586),#20,.T.);
#643=ADVANCED_FACE('',(#587),#16,.T.);
#644=CLOSED_SHELL('',(#603,#604,#605,#606,#607,#608,#609,#610,#611,#612,
#613,#614,#615,#616,#617,#618,#619,#620,#621,#622,#623,#624,#625,#626,#627,
#628,#629,#630,#631,#632,#633,#634,#635,#636,#637,#638,#639,#640,#641,#642,
#643));
#645=STYLED_ITEM('',(#646),#653);
#646=PRESENTATION_STYLE_ASSIGNMENT((#647));
#647=SURFACE_STYLE_USAGE(.BOTH.,#648);
#648=SURFACE_SIDE_STYLE('',(#649));
#649=SURFACE_STYLE_FILL_AREA(#650);
#650=FILL_AREA_STYLE('',(#651));
#651=FILL_AREA_STYLE_COLOUR('',#652);
#652=COLOUR_RGB('',0.231372549019608,0.380392156862745,0.705882352941177);
#653=MANIFOLD_SOLID_BREP('Part 1',#644);
#654=SHAPE_DEFINITION_REPRESENTATION(#1215,#655);
#655=SHAPE_REPRESENTATION('Part 1',(#656),#1210);
#656=AXIS2_PLACEMENT_3D('',#927,#729,#730);
#657=AXIS2_PLACEMENT_3D('',#928,#731,#732);
#658=AXIS2_PLACEMENT_3D('',#932,#734,#735);
#659=AXIS2_PLACEMENT_3D('',#936,#737,#738);
#660=AXIS2_PLACEMENT_3D('',#948,#741,#742);
#661=AXIS2_PLACEMENT_3D('',#949,#743,#744);
#662=AXIS2_PLACEMENT_3D('',#961,#750,#751);
#663=AXIS2_PLACEMENT_3D('',#962,#752,#753);
#664=AXIS2_PLACEMENT_3D('',#978,#757,#758);
#665=AXIS2_PLACEMENT_3D('',#979,#759,#760);
#666=AXIS2_PLACEMENT_3D('',#985,#763,#764);
#667=AXIS2_PLACEMENT_3D('',#989,#767,#768);
#668=AXIS2_PLACEMENT_3D('',#990,#769,#770);
#669=AXIS2_PLACEMENT_3D('',#996,#774,#775);
#670=AXIS2_PLACEMENT_3D('',#1003,#780,#781);
#671=AXIS2_PLACEMENT_3D('',#1004,#782,#783);
#672=AXIS2_PLACEMENT_3D('',#1007,#785,#786);
#673=AXIS2_PLACEMENT_3D('',#1010,#788,#789);
#674=AXIS2_PLACEMENT_3D('',#1012,#791,#792);
#675=AXIS2_PLACEMENT_3D('',#1013,#793,#794);
#676=AXIS2_PLACEMENT_3D('',#1022,#799,#800);
#677=AXIS2_PLACEMENT_3D('',#1031,#805,#806);
#678=AXIS2_PLACEMENT_3D('',#1048,#815,#816);
#679=AXIS2_PLACEMENT_3D('',#1054,#820,#821);
#680=AXIS2_PLACEMENT_3D('',#1058,#824,#825);
#681=AXIS2_PLACEMENT_3D('',#1062,#828,#829);
#682=AXIS2_PLACEMENT_3D('',#1064,#831,#832);
#683=AXIS2_PLACEMENT_3D('',#1065,#833,#834);
#684=AXIS2_PLACEMENT_3D('',#1066,#835,#836);
#685=AXIS2_PLACEMENT_3D('',#1067,#837,#838);
#686=AXIS2_PLACEMENT_3D('',#1068,#839,#840);
#687=AXIS2_PLACEMENT_3D('',#1069,#841,#842);
#688=AXIS2_PLACEMENT_3D('',#1070,#843,#844);
#689=AXIS2_PLACEMENT_3D('',#1071,#845,#846);
#690=AXIS2_PLACEMENT_3D('',#1072,#847,#848);
#691=AXIS2_PLACEMENT_3D('',#1073,#849,#850);
#692=AXIS2_PLACEMENT_3D('',#1074,#851,#852);
#693=AXIS2_PLACEMENT_3D('',#1075,#853,#854);
#694=AXIS2_PLACEMENT_3D('',#1087,#856,#857);
#695=AXIS2_PLACEMENT_3D('',#1088,#858,#859);
#696=AXIS2_PLACEMENT_3D('',#1089,#860,#861);
#697=AXIS2_PLACEMENT_3D('',#1090,#862,#863);
#698=AXIS2_PLACEMENT_3D('',#1091,#864,#865);
#699=AXIS2_PLACEMENT_3D('',#1092,#866,#867);
#700=AXIS2_PLACEMENT_3D('',#1093,#868,#869);
#701=AXIS2_PLACEMENT_3D('',#1094,#870,#871);
#702=AXIS2_PLACEMENT_3D('',#1095,#872,#873);
#703=AXIS2_PLACEMENT_3D('',#1096,#874,#875);
#704=AXIS2_PLACEMENT_3D('',#1100,#877,#878);
#705=AXIS2_PLACEMENT_3D('',#1101,#879,#880);
#706=AXIS2_PLACEMENT_3D('',#1102,#881,#882);
#707=AXIS2_PLACEMENT_3D('',#1124,#883,#884);
#708=AXIS2_PLACEMENT_3D('',#1125,#885,#886);
#709=AXIS2_PLACEMENT_3D('',#1147,#887,#888);
#710=AXIS2_PLACEMENT_3D('',#1148,#889,#890);
#711=AXIS2_PLACEMENT_3D('',#1149,#891,#892);
#712=AXIS2_PLACEMENT_3D('',#1150,#893,#894);
#713=AXIS2_PLACEMENT_3D('',#1151,#895,#896);
#714=AXIS2_PLACEMENT_3D('',#1152,#897,#898);
#715=AXIS2_PLACEMENT_3D('',#1153,#899,#900);
#716=AXIS2_PLACEMENT_3D('',#1154,#901,#902);
#717=AXIS2_PLACEMENT_3D('',#1176,#903,#904);
#718=AXIS2_PLACEMENT_3D('',#1177,#905,#906);
#719=AXIS2_PLACEMENT_3D('',#1178,#907,#908);
#720=AXIS2_PLACEMENT_3D('',#1179,#909,#910);
#721=AXIS2_PLACEMENT_3D('',#1180,#911,#912);
#722=AXIS2_PLACEMENT_3D('',#1181,#913,#914);
#723=AXIS2_PLACEMENT_3D('',#1182,#915,#916);
#724=AXIS2_PLACEMENT_3D('',#1183,#917,#918);
#725=AXIS2_PLACEMENT_3D('',#1184,#919,#920);
#726=AXIS2_PLACEMENT_3D('',#1185,#921,#922);
#727=AXIS2_PLACEMENT_3D('',#1186,#923,#924);
#728=AXIS2_PLACEMENT_3D('',#1208,#925,#926);
#729=DIRECTION('',(0.,0.,1.));
#730=DIRECTION('',(1.,0.,0.));
#731=DIRECTION('',(1.,0.,0.));
#732=DIRECTION('',(0.,-1.,0.));
#733=DIRECTION('',(0.,0.,1.));
#734=DIRECTION('',(1.,0.,0.));
#735=DIRECTION('',(0.,-1.,0.));
#736=DIRECTION('',(0.,-1.,0.));
#737=DIRECTION('',(1.,0.,0.));
#738=DIRECTION('',(0.,-1.,0.));
#739=DIRECTION('',(0.,0.,1.));
#740=DIRECTION('',(0.,-1.,0.));
#741=DIRECTION('',(-5.78241158658936E-17,0.,-1.));
#742=DIRECTION('',(-1.,0.,5.78241158658936E-17));
#743=DIRECTION('',(-5.78241158658936E-17,0.,-1.));
#744=DIRECTION('',(-1.,0.,5.78241158658936E-17));
#745=DIRECTION('',(-1.,0.,5.78241158658936E-17));
#746=DIRECTION('',(0.,-1.,0.));
#747=DIRECTION('',(1.,0.,-5.78241158658936E-17));
#748=DIRECTION('',(0.,-1.,0.));
#749=DIRECTION('',(1.,0.,-5.78241158658936E-17));
#750=DIRECTION('',(1.,0.,0.));
#751=DIRECTION('',(0.,-1.,0.));
#752=DIRECTION('',(1.,0.,0.));
#753=DIRECTION('',(0.,-1.,0.));
#754=DIRECTION('',(0.,0.,1.));
#755=DIRECTION('',(0.,-1.,0.));
#756=DIRECTION('',(0.,0.,1.));
#757=DIRECTION('',(1.,0.,0.));
#758=DIRECTION('',(0.,-1.,0.));
#759=DIRECTION('',(1.15648231731787E-16,0.,1.));
#760=DIRECTION('',(1.,0.,-1.15648231731787E-16));
#761=DIRECTION('',(0.,-1.,0.));
#762=DIRECTION('',(-1.,0.,1.15648231731787E-16));
#763=DIRECTION('',(1.15648231731787E-16,0.,1.));
#764=DIRECTION('',(1.,0.,-1.15648231731787E-16));
#765=DIRECTION('',(-1.,0.,1.15648231731787E-16));
#766=DIRECTION('',(-1.,0.,1.15648231731787E-16));
#767=DIRECTION('',(0.,1.,0.));
#768=DIRECTION('',(1.,0.,0.));
#769=DIRECTION('',(0.,1.,0.));
#770=DIRECTION('',(1.,0.,0.));
#771=DIRECTION('',(-1.,0.,1.15648231731787E-16));
#772=DIRECTION('',(-1.15648231731787E-16,0.,1.));
#773=DIRECTION('',(1.,0.,-5.78241158658936E-17));
#774=DIRECTION('',(0.,1.,0.));
#775=DIRECTION('',(1.,0.,0.));
#776=DIRECTION('',(-1.15648231731787E-16,0.,1.));
#777=DIRECTION('',(-1.,0.,1.15648231731787E-16));
#778=DIRECTION('',(0.,0.,1.));
#779=DIRECTION('',(1.,0.,-5.78241158658936E-17));
#780=DIRECTION('',(0.,-1.,0.));
#781=DIRECTION('',(-1.,0.,0.));
#782=DIRECTION('',(0.,1.,0.));
#783=DIRECTION('',(1.,0.,0.));
#784=DIRECTION('',(0.,-1.,0.));
#785=DIRECTION('',(0.,1.,0.));
#786=DIRECTION('',(1.,0.,0.));
#787=DIRECTION('',(0.,-1.,0.));
#788=DIRECTION('',(1.,0.,0.));
#789=DIRECTION('',(0.,-1.,0.));
#790=DIRECTION('',(0.,0.,1.));
#791=DIRECTION('',(0.,1.,0.));
#792=DIRECTION('',(1.,0.,0.));
#793=DIRECTION('',(0.,1.,0.));
#794=DIRECTION('',(1.,0.,0.));
#795=DIRECTION('',(-1.,0.,1.37403839681331E-16));
#796=DIRECTION('',(6.87019198406656E-17,0.,-1.));
#797=DIRECTION('',(-1.,0.,1.37403839681331E-16));
#798=DIRECTION('',(6.87019198406656E-17,0.,-1.));
#799=DIRECTION('',(1.,0.,1.15648231731787E-16));
#800=DIRECTION('',(1.15648231731787E-16,0.,-1.));
#801=DIRECTION('',(-1.15648231731787E-16,0.,1.));
#802=DIRECTION('',(0.,-1.,0.));
#803=DIRECTION('',(-1.15648231731787E-16,0.,1.));
#804=DIRECTION('',(0.,-1.,0.));
#805=DIRECTION('',(0.,1.,0.));
#806=DIRECTION('',(1.,0.,0.));
#807=DIRECTION('',(-1.15648231731787E-16,0.,1.));
#808=DIRECTION('',(-1.,0.,1.15648231731787E-16));
#809=DIRECTION('',(-1.15648231731787E-16,0.,1.));
#810=DIRECTION('',(1.,0.,-1.37403839681331E-16));
#811=DIRECTION('',(-6.87019198406656E-17,0.,1.));
#812=DIRECTION('',(1.,0.,-1.37403839681331E-16));
#813=DIRECTION('',(-1.15648231731787E-16,0.,1.));
#814=DIRECTION('',(-1.,0.,5.78241158658936E-17));
#815=DIRECTION('',(1.37403839681331E-16,0.,1.));
#816=DIRECTION('',(1.,0.,-1.37403839681331E-16));
#817=DIRECTION('',(0.,-1.,0.));
#818=DIRECTION('',(1.,0.,-1.37403839681331E-16));
#819=DIRECTION('',(0.,-1.,0.));
#820=DIRECTION('',(-1.,0.,-6.87019198406656E-17));
#821=DIRECTION('',(-6.87019198406656E-17,0.,1.));
#822=DIRECTION('',(-6.87019198406656E-17,0.,1.));
#823=DIRECTION('',(0.,-1.,0.));
#824=DIRECTION('',(1.37403839681331E-16,0.,1.));
#825=DIRECTION('',(1.,0.,-1.37403839681331E-16));
#826=DIRECTION('',(1.,0.,-1.37403839681331E-16));
#827=DIRECTION('',(0.,-1.,0.));
#828=DIRECTION('',(-1.,0.,-6.87019198406656E-17));
#829=DIRECTION('',(-6.87019198406656E-17,0.,1.));
#830=DIRECTION('',(-6.87019198406656E-17,0.,1.));
#831=DIRECTION('',(-1.15648231731787E-16,0.,1.));
#832=DIRECTION('',(1.,0.,1.15648231731787E-16));
#833=DIRECTION('',(1.0343892305197E-16,0.447213595499958,-0.894427190999916));
#834=DIRECTION('',(0.,-0.894427190999916,-0.447213595499958));
#835=DIRECTION('',(-1.0343892305197E-16,0.447213595499958,0.894427190999916));
#836=DIRECTION('',(0.,-0.894427190999916,0.447213595499958));
#837=DIRECTION('',(0.,-1.,0.));
#838=DIRECTION('',(-1.,0.,0.));
#839=DIRECTION('',(-5.17194615259849E-17,0.894427190999916,0.447213595499958));
#840=DIRECTION('',(0.,0.447213595499958,-0.894427190999916));
#841=DIRECTION('',(5.17194615259849E-17,0.894427190999916,-0.447213595499958));
#842=DIRECTION('',(0.,-0.447213595499958,-0.894427190999916));
#843=DIRECTION('',(0.,-1.,0.));
#844=DIRECTION('',(-1.,0.,0.));
#845=DIRECTION('',(-5.17194615259848E-17,-0.894427190999916,0.447213595499958));
#846=DIRECTION('',(0.,-0.447213595499958,-0.894427190999916));
#847=DIRECTION('',(-5.17194615259849E-17,0.894427190999916,0.447213595499958));
#848=DIRECTION('',(0.,-0.447213595499958,0.894427190999916));
#849=DIRECTION('',(1.15648231731787E-16,0.,-1.));
#850=DIRECTION('',(-1.,0.,-1.15648231731787E-16));
#851=DIRECTION('',(-1.0343892305197E-16,0.447213595499958,0.894427190999916));
#852=DIRECTION('',(0.,0.894427190999916,-0.447213595499958));
#853=DIRECTION('',(-1.0343892305197E-16,-0.447213595499958,0.894427190999916));
#854=DIRECTION('',(0.,-0.894427190999916,-0.447213595499958));
#855=DIRECTION('',(6.87019198406656E-17,0.,-1.));
#856=DIRECTION('',(-6.87019198406656E-17,0.,1.));
#857=DIRECTION('',(1.,0.,6.87019198406656E-17));
#858=DIRECTION('',(-0.707106781186548,0.,0.707106781186548));
#859=DIRECTION('',(0.707106781186548,0.,0.707106781186548));
#860=DIRECTION('',(0.707106781186548,0.,0.707106781186548));
#861=DIRECTION('',(0.707106781186548,0.,-0.707106781186548));
#862=DIRECTION('',(1.,0.,-1.37403839681331E-16));
#863=DIRECTION('',(-1.37403839681331E-16,0.,-1.));
#864=DIRECTION('',(0.707106781186548,0.,-0.707106781186548));
#865=DIRECTION('',(0.707106781186548,0.,0.707106781186548));
#866=DIRECTION('',(-1.,0.,1.37403839681331E-16));
#867=DIRECTION('',(1.37403839681331E-16,0.,1.));
#868=DIRECTION('',(-0.707106781186548,0.,-0.707106781186548));
#869=DIRECTION('',(-0.707106781186548,0.,0.707106781186548));
#870=DIRECTION('',(6.87019198406656E-17,0.,-1.));
#871=DIRECTION('',(-1.,0.,-6.87019198406656E-17));
#872=DIRECTION('',(1.15648231731787E-16,0.,-1.));
#873=DIRECTION('',(-1.,0.,-1.15648231731787E-16));
#874=DIRECTION('',(1.15648231731787E-16,0.,1.));
#875=DIRECTION('',(1.,0.,-1.15648231731787E-16));
#876=DIRECTION('',(-1.15648231731787E-16,0.,1.));
#877=DIRECTION('',(-5.78241158658936E-17,0.,-1.));
#878=DIRECTION('',(-1.,0.,5.78241158658936E-17));
#879=DIRECTION('',(-1.,0.,1.15648231731787E-16));
#880=DIRECTION('',(1.15648231731787E-16,0.,1.));
#881=DIRECTION('',(-1.,-5.20417042793042E-15,0.));
#882=DIRECTION('',(-5.20417042793042E-15,1.,0.));
#883=DIRECTION('',(1.,0.,-5.78241158658936E-17));
#884=DIRECTION('',(-5.78241158658936E-17,0.,-1.));
#885=DIRECTION('',(-1.,0.,-1.73472347597681E-15));
#886=DIRECTION('',(-1.73472347597681E-15,0.,1.));
#887=DIRECTION('',(1.,0.,-1.15648231731787E-16));
#888=DIRECTION('',(-1.15648231731787E-16,0.,-1.));
#889=DIRECTION('',(-1.,0.,0.));
#890=DIRECTION('',(0.,1.,0.));
#891=DIRECTION('',(1.15648231731787E-16,0.,1.));
#892=DIRECTION('',(1.,0.,-1.15648231731787E-16));
#893=DIRECTION('',(0.,1.,0.));
#894=DIRECTION('',(1.,0.,0.));
#895=DIRECTION('',(-1.,0.,5.78241158658936E-17));
#896=DIRECTION('',(5.78241158658936E-17,0.,1.));
#897=DIRECTION('',(-1.,0.,0.));
#898=DIRECTION('',(0.,1.,0.));
#899=DIRECTION('',(-5.78241158658936E-17,0.,-1.));
#900=DIRECTION('',(-1.,0.,5.78241158658936E-17));
#901=DIRECTION('',(0.,1.,0.));
#902=DIRECTION('',(1.,0.,0.));
#903=DIRECTION('',(1.,0.,-3.46944695195362E-15));
#904=DIRECTION('',(-3.46944695195362E-15,0.,-1.));
#905=DIRECTION('',(1.,0.,-5.78241158658936E-17));
#906=DIRECTION('',(-5.78241158658936E-17,0.,-1.));
#907=DIRECTION('',(1.,0.,0.));
#908=DIRECTION('',(0.,-1.,0.));
#909=DIRECTION('',(0.,1.,0.));
#910=DIRECTION('',(1.,0.,0.));
#911=DIRECTION('',(0.,0.,-1.));
#912=DIRECTION('',(0.,1.,0.));
#913=DIRECTION('',(-1.15648231731787E-16,0.,1.));
#914=DIRECTION('',(1.,0.,1.15648231731787E-16));
#915=DIRECTION('',(0.,0.,-1.));
#916=DIRECTION('',(0.,1.,0.));
#917=DIRECTION('',(0.,1.,0.));
#918=DIRECTION('',(1.,0.,0.));
#919=DIRECTION('',(-1.,0.,0.));
#920=DIRECTION('',(0.,1.,0.));
#921=DIRECTION('',(1.,0.,-1.15648231731787E-16));
#922=DIRECTION('',(-1.15648231731787E-16,0.,-1.));
#923=DIRECTION('',(-1.,0.,0.));
#924=DIRECTION('',(0.,1.,0.));
#925=DIRECTION('',(0.,1.,0.));
#926=DIRECTION('',(1.,0.,0.));
#927=CARTESIAN_POINT('',(0.,0.,0.));
#928=CARTESIAN_POINT('',(0.09,0.005,-1.04083408558608E-17));
#929=CARTESIAN_POINT('',(0.09,0.,-1.04083408558608E-17));
#930=CARTESIAN_POINT('',(0.09,0.,-0.028));
#931=CARTESIAN_POINT('',(0.09,0.,-0.02225));
#932=CARTESIAN_POINT('',(0.09,0.002,-0.028));
#933=CARTESIAN_POINT('',(0.09,0.002,-0.03));
#934=CARTESIAN_POINT('',(0.09,0.005,-0.03));
#935=CARTESIAN_POINT('',(0.09,0.003,-0.03));
#936=CARTESIAN_POINT('',(0.09,0.003,-0.028));
#937=CARTESIAN_POINT('',(0.09,0.005,-0.028));
#938=CARTESIAN_POINT('',(0.09,0.005,-1.04083408558608E-17));
#939=CARTESIAN_POINT('',(0.09,0.005,-0.0189551279341502));
#940=CARTESIAN_POINT('',(0.09,0.005,-0.0189551279341502));
#941=CARTESIAN_POINT('',(0.09,0.005,-0.0196629798054954));
#942=CARTESIAN_POINT('',(0.09,0.00483055540456391,-0.0207172189554024));
#943=CARTESIAN_POINT('',(0.09,0.00403796709495692,-0.0219261348533176));
#944=CARTESIAN_POINT('',(0.09,0.00335967538146136,-0.02225));
#945=CARTESIAN_POINT('',(0.09,0.003,-0.02225));
#946=CARTESIAN_POINT('',(0.09,0.003,-0.02225));
#947=CARTESIAN_POINT('',(0.09,0.005,-0.02225));
#948=CARTESIAN_POINT('',(0.06,0.005,0.03));
#949=CARTESIAN_POINT('',(0.038,0.013,0.03));
#950=CARTESIAN_POINT('',(0.038,0.003,0.03));
#951=CARTESIAN_POINT('',(0.028,0.013,0.03));
#952=CARTESIAN_POINT('',(-0.026,0.013,0.03));
#953=CARTESIAN_POINT('',(-0.026,0.013,0.03));
#954=CARTESIAN_POINT('',(-0.026,0.005,0.03));
#955=CARTESIAN_POINT('',(-0.026,0.002,0.03));
#956=CARTESIAN_POINT('',(0.06,0.002,0.03));
#957=CARTESIAN_POINT('',(0.09,0.002,0.03));
#958=CARTESIAN_POINT('',(0.09,0.005,0.03));
#959=CARTESIAN_POINT('',(0.09,0.003,0.03));
#960=CARTESIAN_POINT('',(0.038,0.003,0.03));
#961=CARTESIAN_POINT('',(0.09,0.005,-1.04083408558608E-17));
#962=CARTESIAN_POINT('',(0.09,0.002,0.028));
#963=CARTESIAN_POINT('',(0.09,0.,0.028));
#964=CARTESIAN_POINT('',(0.09,0.,-1.04083408558608E-17));
#965=CARTESIAN_POINT('',(0.09,0.,0.02225));
#966=CARTESIAN_POINT('',(0.09,0.005,0.02225));
#967=CARTESIAN_POINT('',(0.09,0.003,0.02225));
#968=CARTESIAN_POINT('',(0.09,0.003,0.02225));
#969=CARTESIAN_POINT('',(0.09,0.00335836570319657,0.02225));
#970=CARTESIAN_POINT('',(0.09,0.00403265844372632,0.0219292493837079));
#971=CARTESIAN_POINT('',(0.09,0.00463078635071889,0.0210279447190302));
#972=CARTESIAN_POINT('',(0.09,0.00493930127077538,0.0200110681074965));
#973=CARTESIAN_POINT('',(0.09,0.005,0.0193089957464994));
#974=CARTESIAN_POINT('',(0.09,0.005,0.0189551279341501));
#975=CARTESIAN_POINT('',(0.09,0.005,0.0189551279341501));
#976=CARTESIAN_POINT('',(0.09,0.005,-1.04083408558608E-17));
#977=CARTESIAN_POINT('',(0.09,0.005,0.028));
#978=CARTESIAN_POINT('',(0.09,0.003,0.028));
#979=CARTESIAN_POINT('',(0.06,0.005,-0.03));
#980=CARTESIAN_POINT('',(-0.026,0.005,-0.03));
#981=CARTESIAN_POINT('',(-0.026,0.002,-0.03));
#982=CARTESIAN_POINT('',(-0.026,0.013,-0.03));
#983=CARTESIAN_POINT('',(0.028,0.013,-0.03));
#984=CARTESIAN_POINT('',(0.028,0.013,-0.03));
#985=CARTESIAN_POINT('',(0.038,0.013,-0.03));
#986=CARTESIAN_POINT('',(0.038,0.003,-0.03));
#987=CARTESIAN_POINT('',(0.09,0.003,-0.03));
#988=CARTESIAN_POINT('',(0.06,0.002,-0.03));
#989=CARTESIAN_POINT('',(0.045,0.005,-6.93889390390723E-18));
#990=CARTESIAN_POINT('',(0.06305859375,0.005,-9.82558218814988E-18));
#991=CARTESIAN_POINT('',(0.038,0.005,-0.028));
#992=CARTESIAN_POINT('',(0.038,0.005,-0.028));
#993=CARTESIAN_POINT('',(0.038,0.005,0.03));
#994=CARTESIAN_POINT('',(0.038,0.005,0.028));
#995=CARTESIAN_POINT('',(0.09,0.005,0.028));
#996=CARTESIAN_POINT('',(0.045,0.,-6.93889390390723E-18));
#997=CARTESIAN_POINT('',(-0.026,0.,-1.51499183568641E-17));
#998=CARTESIAN_POINT('',(-0.026,0.,0.028));
#999=CARTESIAN_POINT('',(-0.026,0.,-0.028));
#1000=CARTESIAN_POINT('',(0.045,0.,-0.028));
#1001=CARTESIAN_POINT('',(0.09,0.,-1.04083408558608E-17));
#1002=CARTESIAN_POINT('',(0.045,0.,0.028));
#1003=CARTESIAN_POINT('',(0.06305859375,0.005,-9.82558218814988E-18));
#1004=CARTESIAN_POINT('',(0.06305859375,0.003,-9.82558218814988E-18));
#1005=CARTESIAN_POINT('',(0.09,0.005,0.02225));
#1006=CARTESIAN_POINT('',(0.09,-0.005,0.02225));
#1007=CARTESIAN_POINT('',(0.06305859375,-0.005,-9.82558218814988E-18));
#1008=CARTESIAN_POINT('',(0.09,-0.005,-0.02225));
#1009=CARTESIAN_POINT('',(0.09,0.005,-0.02225));
#1010=CARTESIAN_POINT('',(0.09,0.005,-0.011125));
#1011=CARTESIAN_POINT('',(0.09,-0.005,-0.011125));
#1012=CARTESIAN_POINT('',(0.094,-0.005,-1.38777878078145E-17));
#1013=CARTESIAN_POINT('',(0.,0.005,3.46944695195361E-18));
#1014=CARTESIAN_POINT('',(-3.46944695195361E-18,0.005,0.02525));
#1015=CARTESIAN_POINT('',(0.02525,0.005,0.02525));
#1016=CARTESIAN_POINT('',(-0.02525,0.005,0.02525));
#1017=CARTESIAN_POINT('',(0.02525,0.005,0.));
#1018=CARTESIAN_POINT('',(0.02525,0.005,-0.02525));
#1019=CARTESIAN_POINT('',(0.,0.005,-0.02525));
#1020=CARTESIAN_POINT('',(-0.02525,0.005,-0.02525));
#1021=CARTESIAN_POINT('',(-0.02525,0.005,3.46944695195361E-18));
#1022=CARTESIAN_POINT('',(-0.03,0.015,0.));
#1023=CARTESIAN_POINT('',(-0.03,0.004,0.));
#1024=CARTESIAN_POINT('',(-0.03,0.004,-0.026));
#1025=CARTESIAN_POINT('',(-0.03,0.004,0.026));
#1026=CARTESIAN_POINT('',(-0.03,0.015,0.026));
#1027=CARTESIAN_POINT('',(-0.03,0.011,0.026));
#1028=CARTESIAN_POINT('',(-0.03,0.011,-0.03));
#1029=CARTESIAN_POINT('',(-0.03,0.011,-0.026));
#1030=CARTESIAN_POINT('',(-0.03,0.015,-0.026));
#1031=CARTESIAN_POINT('',(0.,0.015,0.));
#1032=CARTESIAN_POINT('',(0.028,0.015,3.23815048849004E-18));
#1033=CARTESIAN_POINT('',(0.028,0.015,0.028));
#1034=CARTESIAN_POINT('',(0.028,0.015,-0.028));
#1035=CARTESIAN_POINT('',(-0.026,0.015,-0.028));
#1036=CARTESIAN_POINT('',(-0.026,0.015,-0.028));
#1037=CARTESIAN_POINT('',(-0.026,0.015,0.03));
#1038=CARTESIAN_POINT('',(-0.026,0.015,-0.02725));
#1039=CARTESIAN_POINT('',(-3.74425463131628E-18,0.015,-0.02725));
#1040=CARTESIAN_POINT('',(0.02725,0.015,-0.02725));
#1041=CARTESIAN_POINT('',(0.02725,0.015,1.87212731565814E-18));
#1042=CARTESIAN_POINT('',(0.02725,0.015,0.02725));
#1043=CARTESIAN_POINT('',(-0.02525,0.015,0.02725));
#1044=CARTESIAN_POINT('',(-0.026,0.015,0.02725));
#1045=CARTESIAN_POINT('',(-0.026,0.015,0.03));
#1046=CARTESIAN_POINT('',(-0.026,0.015,0.028));
#1047=CARTESIAN_POINT('',(0.028,0.015,0.028));
#1048=CARTESIAN_POINT('',(-3.46944695195361E-18,0.033,0.02525));
#1049=CARTESIAN_POINT('',(-0.02525,0.033,0.02525));
#1050=CARTESIAN_POINT('',(-0.02525,0.013,0.02525));
#1051=CARTESIAN_POINT('',(0.02525,0.013,0.02525));
#1052=CARTESIAN_POINT('',(0.02525,0.013,0.02525));
#1053=CARTESIAN_POINT('',(0.02525,0.033,0.02525));
#1054=CARTESIAN_POINT('',(0.02525,0.033,0.));
#1055=CARTESIAN_POINT('',(0.02525,0.013,0.));
#1056=CARTESIAN_POINT('',(0.02525,0.013,-0.02525));
#1057=CARTESIAN_POINT('',(0.02525,0.033,-0.02525));
#1058=CARTESIAN_POINT('',(0.,0.033,-0.02525));
#1059=CARTESIAN_POINT('',(0.,0.013,-0.02525));
#1060=CARTESIAN_POINT('',(-0.02525,0.013,-0.02525));
#1061=CARTESIAN_POINT('',(-0.02525,0.033,-0.02525));
#1062=CARTESIAN_POINT('',(-0.02525,0.033,3.46944695195361E-18));
#1063=CARTESIAN_POINT('',(-0.02525,0.013,0.02525));
#1064=CARTESIAN_POINT('',(-0.026,0.004,4.62592926927149E-19));
#1065=CARTESIAN_POINT('',(-0.026,0.004,-0.026));
#1066=CARTESIAN_POINT('',(-0.026,0.004,0.026));
#1067=CARTESIAN_POINT('',(-0.026,0.015,-0.026));
#1068=CARTESIAN_POINT('',(-0.026,0.011,-0.026));
#1069=CARTESIAN_POINT('',(-0.026,0.004,-0.026));
#1070=CARTESIAN_POINT('',(-0.026,0.005,0.026));
#1071=CARTESIAN_POINT('',(-0.026,0.011,0.026));
#1072=CARTESIAN_POINT('',(-0.026,0.004,0.026));
#1073=CARTESIAN_POINT('',(-0.026,0.011,-3.00685402502646E-18));
#1074=CARTESIAN_POINT('',(-0.026,0.011,-0.026));
#1075=CARTESIAN_POINT('',(-0.026,0.011,0.026));
#1076=CARTESIAN_POINT('',(-0.0267335350286116,0.0149321656071178,0.0267335350286116));
#1077=CARTESIAN_POINT('',(-0.0264897383584068,0.0149776452270835,0.0269036804641991));
#1078=CARTESIAN_POINT('',(-0.0262448698060452,0.015,0.0270768510439335));
#1079=CARTESIAN_POINT('',(-0.026,0.015,0.02725));
#1080=CARTESIAN_POINT('',(-0.0267335350286116,0.0149321656071178,0.0267335350286116));
#1081=CARTESIAN_POINT('',(-0.0267335350286116,0.0149321656071178,-1.41516565677305E-18));
#1082=CARTESIAN_POINT('',(-0.0267335350286116,0.0149321656071178,-0.0267335350286116));
#1083=CARTESIAN_POINT('',(-0.0267335350286116,0.0149321656071178,-0.0267335350286116));
#1084=CARTESIAN_POINT('',(-0.0264897383584068,0.0149776452270835,-0.0269036804641991));
#1085=CARTESIAN_POINT('',(-0.0262448698060403,0.015,-0.0270768510439265));
#1086=CARTESIAN_POINT('',(-0.026,0.015,-0.02725));
#1087=CARTESIAN_POINT('',(0.02725,0.013,1.87212731565814E-18));
#1088=CARTESIAN_POINT('',(0.02725,0.013,0.02725));
#1089=CARTESIAN_POINT('',(0.02725,0.013,-0.02725));
#1090=CARTESIAN_POINT('',(-3.74425463131628E-18,0.013,-0.02725));
#1091=CARTESIAN_POINT('',(-0.02725,0.013,-0.02725));
#1092=CARTESIAN_POINT('',(-3.19463927259095E-18,0.013,0.02725));
#1093=CARTESIAN_POINT('',(-0.02725,0.013,0.02725));
#1094=CARTESIAN_POINT('',(-0.02725,0.013,3.33204311227228E-18));
#1095=CARTESIAN_POINT('',(0.038,0.013,-7.74843152602974E-18));
#1096=CARTESIAN_POINT('',(0.038,0.013,-0.028));
#1097=CARTESIAN_POINT('',(0.03,0.013,-0.028));
#1098=CARTESIAN_POINT('',(0.03,0.013,-0.03));
#1099=CARTESIAN_POINT('',(0.03,0.013,0.028));
#1100=CARTESIAN_POINT('',(0.038,0.013,0.028));
#1101=CARTESIAN_POINT('',(0.06,0.002,-0.028));
#1102=CARTESIAN_POINT('',(-0.026,0.002,-0.028));
#1103=CARTESIAN_POINT('',(-0.03,0.004,-0.026));
#1104=CARTESIAN_POINT('',(-0.03,0.004,-0.026));
#1105=CARTESIAN_POINT('',(-0.03,0.004,-0.026));
#1106=CARTESIAN_POINT('',(-0.03,0.00373820060129282,-0.0265235987974163));
#1107=CARTESIAN_POINT('',(-0.0299999999999798,0.00360730087739505,-0.0263926991226077));
#1108=CARTESIAN_POINT('',(-0.03,0.00347640120258564,-0.0262617993987081));
#1109=CARTESIAN_POINT('',(-0.0297917249683754,0.00321472388679818,-0.0275705522264022));
#1110=CARTESIAN_POINT('',(-0.0298927112568423,0.00279109957635604,-0.0272089004236427));
#1111=CARTESIAN_POINT('',(-0.0297917249683754,0.00242944777359695,-0.0267852761132014));
#1112=CARTESIAN_POINT('',(-0.0289020713909571,0.00254896430588608,-0.0289020713882301));
#1113=CARTESIAN_POINT('',(-0.0293671854642616,0.00158577066294391,-0.0284142293370564));
#1114=CARTESIAN_POINT('',(-0.0289020713909571,0.00109792861177014,-0.0274510356941139));
#1115=CARTESIAN_POINT('',(-0.0275705522162735,0.00210413751541895,-0.0297917249691545));
#1116=CARTESIAN_POINT('',(-0.0282131620987145,0.000412286959757024,-0.0295877130402431));
#1117=CARTESIAN_POINT('',(-0.0275705522162735,0.000208275030845428,-0.0278958624845815));
#1118=CARTESIAN_POINT('',(-0.026523598819232,0.00200000000000812,-0.03));
#1119=CARTESIAN_POINT('',(-0.0267853982942774,1.80082739982632E-13,-0.0299999999998194));
#1120=CARTESIAN_POINT('',(-0.026523598819232,-1.36159588456237E-18,-0.0279999999999909));
#1121=CARTESIAN_POINT('',(-0.026,0.002,-0.03));
#1122=CARTESIAN_POINT('',(-0.026,-1.30104260698261E-18,-0.03));
#1123=CARTESIAN_POINT('',(-0.026,-1.30104260698261E-18,-0.028));
#1124=CARTESIAN_POINT('',(0.06,0.002,0.028));
#1125=CARTESIAN_POINT('',(-0.026,0.002,0.028));
#1126=CARTESIAN_POINT('',(-0.026,0.002,0.03));
#1127=CARTESIAN_POINT('',(-0.026,-1.30104260698261E-18,0.03));
#1128=CARTESIAN_POINT('',(-0.026,-1.30104260698261E-18,0.028));
#1129=CARTESIAN_POINT('',(-0.026523598819232,0.00200000000000812,0.03));
#1130=CARTESIAN_POINT('',(-0.0267853982942748,1.80082739982632E-13,0.0299999999998194));
#1131=CARTESIAN_POINT('',(-0.026523598819232,-2.14878849311588E-18,0.0279999999999909));
#1132=CARTESIAN_POINT('',(-0.0275705522162735,0.00210413751541894,0.0297917249691545));
#1133=CARTESIAN_POINT('',(-0.0282131620987156,0.000412286959757013,0.0295877130402432));
#1134=CARTESIAN_POINT('',(-0.0275705522162735,0.000208275030845423,0.0278958624845815));
#1135=CARTESIAN_POINT('',(-0.0289020713909571,0.00254896430588607,0.0289020713882301));
#1136=CARTESIAN_POINT('',(-0.0293671854642613,0.00158577066294389,0.0284142293370561));
#1137=CARTESIAN_POINT('',(-0.0289020713909571,0.00109792861177011,0.0274510356941139));
#1138=CARTESIAN_POINT('',(-0.0297917249683754,0.00321472388679817,0.0275705522264022));
#1139=CARTESIAN_POINT('',(-0.0298927112568424,0.00279109957635603,0.0272089004236439));
#1140=CARTESIAN_POINT('',(-0.0297917249683754,0.00242944777359692,0.0267852761132014));
#1141=CARTESIAN_POINT('',(-0.03,0.00373820060129282,0.0265235987974163));
#1142=CARTESIAN_POINT('',(-0.0299999999999798,0.00360730087739505,0.0263926991226051));
#1143=CARTESIAN_POINT('',(-0.03,0.00347640120258564,0.0262617993987081));
#1144=CARTESIAN_POINT('',(-0.03,0.004,0.026));
#1145=CARTESIAN_POINT('',(-0.03,0.00400000000000001,0.026));
#1146=CARTESIAN_POINT('',(-0.03,0.00400000000000001,0.026));
#1147=CARTESIAN_POINT('',(0.045,0.003,-0.028));
#1148=CARTESIAN_POINT('',(0.038,0.003,-0.028));
#1149=CARTESIAN_POINT('',(0.038,0.013,-0.028));
#1150=CARTESIAN_POINT('',(0.028,0.013,-0.028));
#1151=CARTESIAN_POINT('',(0.045,0.003,0.028));
#1152=CARTESIAN_POINT('',(0.038,0.003,0.028));
#1153=CARTESIAN_POINT('',(0.038,0.013,0.028));
#1154=CARTESIAN_POINT('',(0.028,0.013,0.028));
#1155=CARTESIAN_POINT('',(-0.03,0.011,0.026));
#1156=CARTESIAN_POINT('',(-0.03,0.011,0.026));
#1157=CARTESIAN_POINT('',(-0.03,0.011,0.026));
#1158=CARTESIAN_POINT('',(-0.03,0.011261799398708,0.0265235987974166));
#1159=CARTESIAN_POINT('',(-0.0299999999999798,0.0113926991226068,0.026392699122608));
#1160=CARTESIAN_POINT('',(-0.03,0.011523598797416,0.0262617993987083));
#1161=CARTESIAN_POINT('',(-0.0297917249683754,0.0117852761132015,0.027570552226402));
#1162=CARTESIAN_POINT('',(-0.0298927112568424,0.0122089004236431,0.0272089004236425));
#1163=CARTESIAN_POINT('',(-0.0297917249683754,0.0125705522264023,0.0267852761132013));
#1164=CARTESIAN_POINT('',(-0.028902071390957,0.012451035694114,0.0289020713882302));
#1165=CARTESIAN_POINT('',(-0.0293671854642613,0.0134142293370564,0.0284142293370565));
#1166=CARTESIAN_POINT('',(-0.028902071390957,0.0139020713882301,0.0274510356941139));
#1167=CARTESIAN_POINT('',(-0.0275705522162737,0.0128958624845811,0.0297917249691545));
#1168=CARTESIAN_POINT('',(-0.0282131620987158,0.0145877130402427,0.0295877130402429));
#1169=CARTESIAN_POINT('',(-0.0275705522162737,0.0147917249691545,0.0278958624845815));
#1170=CARTESIAN_POINT('',(-0.0265235988192315,0.0129999999999918,0.03));
#1171=CARTESIAN_POINT('',(-0.0267853982942746,0.0149999999998202,0.0299999999998197));
#1172=CARTESIAN_POINT('',(-0.0265235988192315,0.015,0.0279999999999909));
#1173=CARTESIAN_POINT('',(-0.026,0.013,0.03));
#1174=CARTESIAN_POINT('',(-0.026,0.015,0.03));
#1175=CARTESIAN_POINT('',(-0.026,0.015,0.028));
#1176=CARTESIAN_POINT('',(-0.026,0.013,0.028));
#1177=CARTESIAN_POINT('',(0.06,0.013,0.028));
#1178=CARTESIAN_POINT('',(0.028,0.013,0.028));
#1179=CARTESIAN_POINT('',(0.028,0.013,0.028));
#1180=CARTESIAN_POINT('',(0.028,0.013,0.028));
#1181=CARTESIAN_POINT('',(0.028,0.013,3.23815048849004E-18));
#1182=CARTESIAN_POINT('',(0.028,0.013,-0.028));
#1183=CARTESIAN_POINT('',(0.028,0.013,-0.028));
#1184=CARTESIAN_POINT('',(0.028,0.013,-0.028));
#1185=CARTESIAN_POINT('',(-3.23815048849004E-18,0.013,-0.028));
#1186=CARTESIAN_POINT('',(-0.026,0.013,-0.028));
#1187=CARTESIAN_POINT('',(-0.03,0.011,-0.026));
#1188=CARTESIAN_POINT('',(-0.03,0.011,-0.026));
#1189=CARTESIAN_POINT('',(-0.03,0.011,-0.026));
#1190=CARTESIAN_POINT('',(-0.03,0.0115235987974156,-0.0262617993987081));
#1191=CARTESIAN_POINT('',(-0.0299999999999798,0.0113926991226066,-0.0263926991226077));
#1192=CARTESIAN_POINT('',(-0.03,0.0112617993987078,-0.0265235987974163));
#1193=CARTESIAN_POINT('',(-0.0297917249683754,0.0125705522264025,-0.0267852761132014));
#1194=CARTESIAN_POINT('',(-0.0298927112568423,0.0122089004236432,-0.0272089004236426));
#1195=CARTESIAN_POINT('',(-0.0297917249683754,0.0117852761132015,-0.0275705522264022));
#1196=CARTESIAN_POINT('',(-0.0289020713909571,0.01390207138823,-0.0274510356941139));
#1197=CARTESIAN_POINT('',(-0.0293671854642615,0.0134142293370564,-0.0284142293370565));
#1198=CARTESIAN_POINT('',(-0.0289020713909571,0.012451035694114,-0.0289020713882301));
#1199=CARTESIAN_POINT('',(-0.0275705522162735,0.0147917249691545,-0.0278958624845815));
#1200=CARTESIAN_POINT('',(-0.028213162098715,0.0145877130402427,-0.0295877130402429));
#1201=CARTESIAN_POINT('',(-0.0275705522162735,0.0128958624845811,-0.0297917249691545));
#1202=CARTESIAN_POINT('',(-0.026523598819232,0.015,-0.0279999999999909));
#1203=CARTESIAN_POINT('',(-0.0267853982942765,0.0149999999998202,-0.0299999999998197));
#1204=CARTESIAN_POINT('',(-0.026523598819232,0.0129999999999918,-0.03));
#1205=CARTESIAN_POINT('',(-0.026,0.015,-0.028));
#1206=CARTESIAN_POINT('',(-0.026,0.015,-0.03));
#1207=CARTESIAN_POINT('',(-0.026,0.013,-0.03));
#1208=CARTESIAN_POINT('',(0.06305859375,0.003,-9.82558218814988E-18));
#1209=MECHANICAL_DESIGN_GEOMETRIC_PRESENTATION_REPRESENTATION('',(#645),
#1210);
#1210=(
GEOMETRIC_REPRESENTATION_CONTEXT(3)
GLOBAL_UNCERTAINTY_ASSIGNED_CONTEXT((#1211))
GLOBAL_UNIT_ASSIGNED_CONTEXT((#1214,#1213,#1212))
REPRESENTATION_CONTEXT('Part 1','TOP_LEVEL_ASSEMBLY_PART')
);
#1211=UNCERTAINTY_MEASURE_WITH_UNIT(LENGTH_MEASURE(2.E-5),#1214,
'DISTANCE_ACCURACY_VALUE','Maximum Tolerance applied to model');
#1212=(
NAMED_UNIT(*)
SI_UNIT($,.STERADIAN.)
SOLID_ANGLE_UNIT()
);
#1213=(
NAMED_UNIT(*)
PLANE_ANGLE_UNIT()
SI_UNIT($,.RADIAN.)
);
#1214=(
LENGTH_UNIT()
NAMED_UNIT(*)
SI_UNIT($,.METRE.)
);
#1215=PRODUCT_DEFINITION_SHAPE('','',#1216);
#1216=PRODUCT_DEFINITION('','',#1218,#1217);
#1217=PRODUCT_DEFINITION_CONTEXT('',#1224,'design');
#1218=PRODUCT_DEFINITION_FORMATION_WITH_SPECIFIED_SOURCE('','',#1220,
 .NOT_KNOWN.);
#1219=PRODUCT_RELATED_PRODUCT_CATEGORY('','',(#1220));
#1220=PRODUCT('Part 1','Part 1','Part 1',(#1222));
#1221=PRODUCT_CATEGORY('','');
#1222=PRODUCT_CONTEXT('',#1224,'mechanical');
#1223=APPLICATION_PROTOCOL_DEFINITION('international standard',
'ap242_managed_model_based_3d_engineering',2011,#1224);
#1224=APPLICATION_CONTEXT('managed model based 3d engineering');
ENDSEC;
END-ISO-10303-21;
