ISO-10303-21;
HEADER;
/* Generated by software containing ST-Developer
 * from STEP Tools, Inc. (www.steptools.com) 
 */
/* OPTION: using custom renumber hook */

FILE_DESCRIPTION(
/* description */ ('STEP AP242',
'CAx-IF Rec.Pracs.---Representation and Presentation of Product Manufa
cturing Information (PMI)---4.0---2014-10-13',
'CAx-IF Rec.Pracs.---3D Tessellated Geometry---0.4---2014-09-14','2;1'),

/* implementation_level */ '2;1');

FILE_NAME(
/* name */ '67dc457d3417530a115b6a9b',
/* time_stamp */ '2025-03-20T16:42:37Z',
/* author */ (''),
/* organization */ (''),
/* preprocessor_version */ 'ST-DEVELOPER v20',
/* originating_system */ 'ONSHAPE BY PTC INC, 1.195',
/* authorisation */ '  ');

FILE_SCHEMA (('AP242_MANAGED_MODEL_BASED_3D_ENGINEERING_MIM_LF { 1 0 10303 442 1 1 4 }'));
ENDSEC;

DATA;
#10=SHAPE_REPRESENTATION_RELATIONSHIP('','',#901,#11);
#11=ADVANCED_BREP_SHAPE_REPRESENTATION('',(#899),#1443);
#12=CYLINDRICAL_SURFACE('',#919,0.002);
#13=CYLINDRICAL_SURFACE('',#928,0.005);
#14=CYLINDRICAL_SURFACE('',#931,0.005);
#15=CYLINDRICAL_SURFACE('',#942,0.005);
#16=CYLINDRICAL_SURFACE('',#945,0.005);
#17=CYLINDRICAL_SURFACE('',#954,0.002);
#18=CIRCLE('',#909,0.005);
#19=CIRCLE('',#910,0.005);
#20=CIRCLE('',#911,0.002);
#21=CIRCLE('',#912,0.002);
#22=CIRCLE('',#913,0.005);
#23=CIRCLE('',#914,0.005);
#24=CIRCLE('',#920,0.002);
#25=CIRCLE('',#929,0.005);
#26=CIRCLE('',#932,0.005);
#27=CIRCLE('',#943,0.005);
#28=CIRCLE('',#946,0.005);
#29=CIRCLE('',#955,0.002);
#30=ORIENTED_EDGE('',*,*,#282,.F.);
#31=ORIENTED_EDGE('',*,*,#283,.F.);
#32=ORIENTED_EDGE('',*,*,#284,.T.);
#33=ORIENTED_EDGE('',*,*,#285,.T.);
#34=ORIENTED_EDGE('',*,*,#286,.T.);
#35=ORIENTED_EDGE('',*,*,#287,.F.);
#36=ORIENTED_EDGE('',*,*,#288,.T.);
#37=ORIENTED_EDGE('',*,*,#289,.T.);
#38=ORIENTED_EDGE('',*,*,#290,.T.);
#39=ORIENTED_EDGE('',*,*,#291,.F.);
#40=ORIENTED_EDGE('',*,*,#292,.T.);
#41=ORIENTED_EDGE('',*,*,#293,.T.);
#42=ORIENTED_EDGE('',*,*,#294,.F.);
#43=ORIENTED_EDGE('',*,*,#295,.F.);
#44=ORIENTED_EDGE('',*,*,#296,.F.);
#45=ORIENTED_EDGE('',*,*,#297,.T.);
#46=ORIENTED_EDGE('',*,*,#298,.F.);
#47=ORIENTED_EDGE('',*,*,#299,.F.);
#48=ORIENTED_EDGE('',*,*,#300,.F.);
#49=ORIENTED_EDGE('',*,*,#301,.T.);
#50=ORIENTED_EDGE('',*,*,#291,.T.);
#51=ORIENTED_EDGE('',*,*,#302,.T.);
#52=ORIENTED_EDGE('',*,*,#303,.F.);
#53=ORIENTED_EDGE('',*,*,#304,.F.);
#54=ORIENTED_EDGE('',*,*,#305,.F.);
#55=ORIENTED_EDGE('',*,*,#306,.F.);
#56=ORIENTED_EDGE('',*,*,#307,.F.);
#57=ORIENTED_EDGE('',*,*,#308,.T.);
#58=ORIENTED_EDGE('',*,*,#309,.F.);
#59=ORIENTED_EDGE('',*,*,#310,.F.);
#60=ORIENTED_EDGE('',*,*,#311,.F.);
#61=ORIENTED_EDGE('',*,*,#312,.T.);
#62=ORIENTED_EDGE('',*,*,#313,.F.);
#63=ORIENTED_EDGE('',*,*,#314,.F.);
#64=ORIENTED_EDGE('',*,*,#315,.T.);
#65=ORIENTED_EDGE('',*,*,#303,.T.);
#66=ORIENTED_EDGE('',*,*,#316,.T.);
#67=ORIENTED_EDGE('',*,*,#317,.F.);
#68=ORIENTED_EDGE('',*,*,#318,.T.);
#69=ORIENTED_EDGE('',*,*,#319,.T.);
#70=ORIENTED_EDGE('',*,*,#320,.T.);
#71=ORIENTED_EDGE('',*,*,#321,.F.);
#72=ORIENTED_EDGE('',*,*,#322,.T.);
#73=ORIENTED_EDGE('',*,*,#323,.T.);
#74=ORIENTED_EDGE('',*,*,#324,.F.);
#75=ORIENTED_EDGE('',*,*,#293,.F.);
#76=ORIENTED_EDGE('',*,*,#325,.T.);
#77=ORIENTED_EDGE('',*,*,#314,.T.);
#78=ORIENTED_EDGE('',*,*,#292,.F.);
#79=ORIENTED_EDGE('',*,*,#304,.T.);
#80=ORIENTED_EDGE('',*,*,#315,.F.);
#81=ORIENTED_EDGE('',*,*,#325,.F.);
#82=ORIENTED_EDGE('',*,*,#282,.T.);
#83=ORIENTED_EDGE('',*,*,#326,.F.);
#84=ORIENTED_EDGE('',*,*,#327,.F.);
#85=ORIENTED_EDGE('',*,*,#328,.F.);
#86=ORIENTED_EDGE('',*,*,#329,.F.);
#87=ORIENTED_EDGE('',*,*,#330,.F.);
#88=ORIENTED_EDGE('',*,*,#331,.F.);
#89=ORIENTED_EDGE('',*,*,#332,.T.);
#90=ORIENTED_EDGE('',*,*,#333,.F.);
#91=ORIENTED_EDGE('',*,*,#334,.F.);
#92=ORIENTED_EDGE('',*,*,#335,.T.);
#93=ORIENTED_EDGE('',*,*,#336,.T.);
#94=ORIENTED_EDGE('',*,*,#337,.F.);
#95=ORIENTED_EDGE('',*,*,#305,.T.);
#96=ORIENTED_EDGE('',*,*,#338,.F.);
#97=ORIENTED_EDGE('',*,*,#339,.F.);
#98=ORIENTED_EDGE('',*,*,#340,.F.);
#99=ORIENTED_EDGE('',*,*,#341,.T.);
#100=ORIENTED_EDGE('',*,*,#342,.T.);
#101=ORIENTED_EDGE('',*,*,#343,.F.);
#102=ORIENTED_EDGE('',*,*,#344,.T.);
#103=ORIENTED_EDGE('',*,*,#345,.T.);
#104=ORIENTED_EDGE('',*,*,#346,.F.);
#105=ORIENTED_EDGE('',*,*,#347,.T.);
#106=ORIENTED_EDGE('',*,*,#348,.F.);
#107=ORIENTED_EDGE('',*,*,#349,.T.);
#108=ORIENTED_EDGE('',*,*,#350,.F.);
#109=ORIENTED_EDGE('',*,*,#297,.F.);
#110=ORIENTED_EDGE('',*,*,#351,.T.);
#111=ORIENTED_EDGE('',*,*,#310,.T.);
#112=ORIENTED_EDGE('',*,*,#352,.F.);
#113=ORIENTED_EDGE('',*,*,#312,.F.);
#114=ORIENTED_EDGE('',*,*,#353,.T.);
#115=ORIENTED_EDGE('',*,*,#295,.T.);
#116=ORIENTED_EDGE('',*,*,#351,.F.);
#117=ORIENTED_EDGE('',*,*,#296,.T.);
#118=ORIENTED_EDGE('',*,*,#353,.F.);
#119=ORIENTED_EDGE('',*,*,#311,.T.);
#120=ORIENTED_EDGE('',*,*,#354,.F.);
#121=ORIENTED_EDGE('',*,*,#308,.F.);
#122=ORIENTED_EDGE('',*,*,#355,.T.);
#123=ORIENTED_EDGE('',*,*,#299,.T.);
#124=ORIENTED_EDGE('',*,*,#337,.T.);
#125=ORIENTED_EDGE('',*,*,#356,.F.);
#126=ORIENTED_EDGE('',*,*,#357,.F.);
#127=ORIENTED_EDGE('',*,*,#306,.T.);
#128=ORIENTED_EDGE('',*,*,#336,.F.);
#129=ORIENTED_EDGE('',*,*,#358,.F.);
#130=ORIENTED_EDGE('',*,*,#359,.T.);
#131=ORIENTED_EDGE('',*,*,#356,.T.);
#132=ORIENTED_EDGE('',*,*,#335,.F.);
#133=ORIENTED_EDGE('',*,*,#360,.F.);
#134=ORIENTED_EDGE('',*,*,#361,.T.);
#135=ORIENTED_EDGE('',*,*,#358,.T.);
#136=ORIENTED_EDGE('',*,*,#334,.T.);
#137=ORIENTED_EDGE('',*,*,#362,.F.);
#138=ORIENTED_EDGE('',*,*,#363,.F.);
#139=ORIENTED_EDGE('',*,*,#360,.T.);
#140=ORIENTED_EDGE('',*,*,#333,.T.);
#141=ORIENTED_EDGE('',*,*,#364,.F.);
#142=ORIENTED_EDGE('',*,*,#365,.F.);
#143=ORIENTED_EDGE('',*,*,#362,.T.);
#144=ORIENTED_EDGE('',*,*,#332,.F.);
#145=ORIENTED_EDGE('',*,*,#366,.F.);
#146=ORIENTED_EDGE('',*,*,#367,.T.);
#147=ORIENTED_EDGE('',*,*,#364,.T.);
#148=ORIENTED_EDGE('',*,*,#331,.T.);
#149=ORIENTED_EDGE('',*,*,#368,.F.);
#150=ORIENTED_EDGE('',*,*,#369,.F.);
#151=ORIENTED_EDGE('',*,*,#366,.T.);
#152=ORIENTED_EDGE('',*,*,#330,.T.);
#153=ORIENTED_EDGE('',*,*,#370,.F.);
#154=ORIENTED_EDGE('',*,*,#371,.F.);
#155=ORIENTED_EDGE('',*,*,#368,.T.);
#156=ORIENTED_EDGE('',*,*,#329,.T.);
#157=ORIENTED_EDGE('',*,*,#372,.F.);
#158=ORIENTED_EDGE('',*,*,#373,.F.);
#159=ORIENTED_EDGE('',*,*,#370,.T.);
#160=ORIENTED_EDGE('',*,*,#328,.T.);
#161=ORIENTED_EDGE('',*,*,#374,.F.);
#162=ORIENTED_EDGE('',*,*,#375,.F.);
#163=ORIENTED_EDGE('',*,*,#372,.T.);
#164=ORIENTED_EDGE('',*,*,#327,.T.);
#165=ORIENTED_EDGE('',*,*,#376,.F.);
#166=ORIENTED_EDGE('',*,*,#377,.F.);
#167=ORIENTED_EDGE('',*,*,#374,.T.);
#168=ORIENTED_EDGE('',*,*,#326,.T.);
#169=ORIENTED_EDGE('',*,*,#301,.F.);
#170=ORIENTED_EDGE('',*,*,#378,.F.);
#171=ORIENTED_EDGE('',*,*,#376,.T.);
#172=ORIENTED_EDGE('',*,*,#355,.F.);
#173=ORIENTED_EDGE('',*,*,#307,.T.);
#174=ORIENTED_EDGE('',*,*,#357,.T.);
#175=ORIENTED_EDGE('',*,*,#359,.F.);
#176=ORIENTED_EDGE('',*,*,#361,.F.);
#177=ORIENTED_EDGE('',*,*,#363,.T.);
#178=ORIENTED_EDGE('',*,*,#365,.T.);
#179=ORIENTED_EDGE('',*,*,#367,.F.);
#180=ORIENTED_EDGE('',*,*,#369,.T.);
#181=ORIENTED_EDGE('',*,*,#371,.T.);
#182=ORIENTED_EDGE('',*,*,#373,.T.);
#183=ORIENTED_EDGE('',*,*,#375,.T.);
#184=ORIENTED_EDGE('',*,*,#377,.T.);
#185=ORIENTED_EDGE('',*,*,#378,.T.);
#186=ORIENTED_EDGE('',*,*,#300,.T.);
#187=ORIENTED_EDGE('',*,*,#309,.T.);
#188=ORIENTED_EDGE('',*,*,#354,.T.);
#189=ORIENTED_EDGE('',*,*,#298,.T.);
#190=ORIENTED_EDGE('',*,*,#350,.T.);
#191=ORIENTED_EDGE('',*,*,#294,.T.);
#192=ORIENTED_EDGE('',*,*,#324,.T.);
#193=ORIENTED_EDGE('',*,*,#313,.T.);
#194=ORIENTED_EDGE('',*,*,#352,.T.);
#195=ORIENTED_EDGE('',*,*,#287,.T.);
#196=ORIENTED_EDGE('',*,*,#379,.T.);
#197=ORIENTED_EDGE('',*,*,#319,.F.);
#198=ORIENTED_EDGE('',*,*,#380,.F.);
#199=ORIENTED_EDGE('',*,*,#317,.T.);
#200=ORIENTED_EDGE('',*,*,#381,.T.);
#201=ORIENTED_EDGE('',*,*,#289,.F.);
#202=ORIENTED_EDGE('',*,*,#382,.F.);
#203=ORIENTED_EDGE('',*,*,#288,.F.);
#204=ORIENTED_EDGE('',*,*,#380,.T.);
#205=ORIENTED_EDGE('',*,*,#318,.F.);
#206=ORIENTED_EDGE('',*,*,#382,.T.);
#207=ORIENTED_EDGE('',*,*,#321,.T.);
#208=ORIENTED_EDGE('',*,*,#383,.T.);
#209=ORIENTED_EDGE('',*,*,#285,.F.);
#210=ORIENTED_EDGE('',*,*,#384,.F.);
#211=ORIENTED_EDGE('',*,*,#349,.F.);
#212=ORIENTED_EDGE('',*,*,#385,.F.);
#213=ORIENTED_EDGE('',*,*,#386,.T.);
#214=ORIENTED_EDGE('',*,*,#283,.T.);
#215=ORIENTED_EDGE('',*,*,#348,.T.);
#216=ORIENTED_EDGE('',*,*,#387,.F.);
#217=ORIENTED_EDGE('',*,*,#388,.F.);
#218=ORIENTED_EDGE('',*,*,#385,.T.);
#219=ORIENTED_EDGE('',*,*,#347,.F.);
#220=ORIENTED_EDGE('',*,*,#389,.F.);
#221=ORIENTED_EDGE('',*,*,#390,.T.);
#222=ORIENTED_EDGE('',*,*,#387,.T.);
#223=ORIENTED_EDGE('',*,*,#346,.T.);
#224=ORIENTED_EDGE('',*,*,#391,.F.);
#225=ORIENTED_EDGE('',*,*,#392,.F.);
#226=ORIENTED_EDGE('',*,*,#389,.T.);
#227=ORIENTED_EDGE('',*,*,#345,.F.);
#228=ORIENTED_EDGE('',*,*,#393,.F.);
#229=ORIENTED_EDGE('',*,*,#394,.T.);
#230=ORIENTED_EDGE('',*,*,#391,.T.);
#231=ORIENTED_EDGE('',*,*,#344,.F.);
#232=ORIENTED_EDGE('',*,*,#395,.F.);
#233=ORIENTED_EDGE('',*,*,#396,.T.);
#234=ORIENTED_EDGE('',*,*,#393,.T.);
#235=ORIENTED_EDGE('',*,*,#343,.T.);
#236=ORIENTED_EDGE('',*,*,#397,.F.);
#237=ORIENTED_EDGE('',*,*,#398,.F.);
#238=ORIENTED_EDGE('',*,*,#395,.T.);
#239=ORIENTED_EDGE('',*,*,#342,.F.);
#240=ORIENTED_EDGE('',*,*,#399,.F.);
#241=ORIENTED_EDGE('',*,*,#400,.T.);
#242=ORIENTED_EDGE('',*,*,#397,.T.);
#243=ORIENTED_EDGE('',*,*,#341,.F.);
#244=ORIENTED_EDGE('',*,*,#401,.F.);
#245=ORIENTED_EDGE('',*,*,#402,.T.);
#246=ORIENTED_EDGE('',*,*,#399,.T.);
#247=ORIENTED_EDGE('',*,*,#340,.T.);
#248=ORIENTED_EDGE('',*,*,#403,.F.);
#249=ORIENTED_EDGE('',*,*,#404,.F.);
#250=ORIENTED_EDGE('',*,*,#401,.T.);
#251=ORIENTED_EDGE('',*,*,#339,.T.);
#252=ORIENTED_EDGE('',*,*,#405,.F.);
#253=ORIENTED_EDGE('',*,*,#406,.F.);
#254=ORIENTED_EDGE('',*,*,#403,.T.);
#255=ORIENTED_EDGE('',*,*,#338,.T.);
#256=ORIENTED_EDGE('',*,*,#323,.F.);
#257=ORIENTED_EDGE('',*,*,#407,.F.);
#258=ORIENTED_EDGE('',*,*,#405,.T.);
#259=ORIENTED_EDGE('',*,*,#322,.F.);
#260=ORIENTED_EDGE('',*,*,#384,.T.);
#261=ORIENTED_EDGE('',*,*,#284,.F.);
#262=ORIENTED_EDGE('',*,*,#386,.F.);
#263=ORIENTED_EDGE('',*,*,#388,.T.);
#264=ORIENTED_EDGE('',*,*,#390,.F.);
#265=ORIENTED_EDGE('',*,*,#392,.T.);
#266=ORIENTED_EDGE('',*,*,#394,.F.);
#267=ORIENTED_EDGE('',*,*,#396,.F.);
#268=ORIENTED_EDGE('',*,*,#398,.T.);
#269=ORIENTED_EDGE('',*,*,#400,.F.);
#270=ORIENTED_EDGE('',*,*,#402,.F.);
#271=ORIENTED_EDGE('',*,*,#404,.T.);
#272=ORIENTED_EDGE('',*,*,#406,.T.);
#273=ORIENTED_EDGE('',*,*,#407,.T.);
#274=ORIENTED_EDGE('',*,*,#379,.F.);
#275=ORIENTED_EDGE('',*,*,#286,.F.);
#276=ORIENTED_EDGE('',*,*,#383,.F.);
#277=ORIENTED_EDGE('',*,*,#320,.F.);
#278=ORIENTED_EDGE('',*,*,#302,.F.);
#279=ORIENTED_EDGE('',*,*,#290,.F.);
#280=ORIENTED_EDGE('',*,*,#381,.F.);
#281=ORIENTED_EDGE('',*,*,#316,.F.);
#282=EDGE_CURVE('',#408,#409,#492,.T.);
#283=EDGE_CURVE('',#410,#408,#493,.T.);
#284=EDGE_CURVE('',#410,#411,#494,.T.);
#285=EDGE_CURVE('',#411,#412,#495,.T.);
#286=EDGE_CURVE('',#412,#413,#496,.T.);
#287=EDGE_CURVE('',#414,#413,#497,.T.);
#288=EDGE_CURVE('',#414,#415,#498,.T.);
#289=EDGE_CURVE('',#415,#416,#499,.T.);
#290=EDGE_CURVE('',#416,#417,#500,.T.);
#291=EDGE_CURVE('',#418,#417,#501,.T.);
#292=EDGE_CURVE('',#418,#419,#502,.T.);
#293=EDGE_CURVE('',#419,#420,#503,.T.);
#294=EDGE_CURVE('',#421,#420,#504,.T.);
#295=EDGE_CURVE('',#422,#421,#505,.T.);
#296=EDGE_CURVE('',#423,#422,#506,.T.);
#297=EDGE_CURVE('',#423,#424,#507,.T.);
#298=EDGE_CURVE('',#425,#424,#508,.T.);
#299=EDGE_CURVE('',#426,#425,#509,.T.);
#300=EDGE_CURVE('',#427,#426,#510,.T.);
#301=EDGE_CURVE('',#427,#409,#511,.T.);
#302=EDGE_CURVE('',#417,#428,#512,.T.);
#303=EDGE_CURVE('',#429,#428,#513,.T.);
#304=EDGE_CURVE('',#418,#429,#514,.T.);
#305=EDGE_CURVE('',#430,#431,#515,.T.);
#306=EDGE_CURVE('',#432,#430,#516,.T.);
#307=EDGE_CURVE('',#433,#432,#517,.T.);
#308=EDGE_CURVE('',#433,#434,#518,.T.);
#309=EDGE_CURVE('',#435,#434,#519,.T.);
#310=EDGE_CURVE('',#436,#435,#520,.T.);
#311=EDGE_CURVE('',#437,#436,#521,.T.);
#312=EDGE_CURVE('',#437,#438,#522,.T.);
#313=EDGE_CURVE('',#439,#438,#523,.T.);
#314=EDGE_CURVE('',#440,#439,#524,.T.);
#315=EDGE_CURVE('',#440,#429,#525,.T.);
#316=EDGE_CURVE('',#428,#441,#526,.T.);
#317=EDGE_CURVE('',#442,#441,#527,.T.);
#318=EDGE_CURVE('',#442,#443,#528,.T.);
#319=EDGE_CURVE('',#443,#444,#529,.T.);
#320=EDGE_CURVE('',#444,#445,#530,.T.);
#321=EDGE_CURVE('',#446,#445,#531,.T.);
#322=EDGE_CURVE('',#446,#447,#532,.T.);
#323=EDGE_CURVE('',#447,#431,#533,.T.);
#324=EDGE_CURVE('',#420,#439,#534,.T.);
#325=EDGE_CURVE('',#419,#440,#535,.T.);
#326=EDGE_CURVE('',#448,#409,#536,.T.);
#327=EDGE_CURVE('',#449,#448,#18,.T.);
#328=EDGE_CURVE('',#450,#449,#537,.T.);
#329=EDGE_CURVE('',#451,#450,#19,.T.);
#330=EDGE_CURVE('',#452,#451,#538,.T.);
#331=EDGE_CURVE('',#453,#452,#539,.T.);
#332=EDGE_CURVE('',#453,#454,#540,.T.);
#333=EDGE_CURVE('',#455,#454,#541,.T.);
#334=EDGE_CURVE('',#456,#455,#542,.T.);
#335=EDGE_CURVE('',#456,#457,#543,.T.);
#336=EDGE_CURVE('',#457,#458,#544,.T.);
#337=EDGE_CURVE('',#430,#458,#20,.T.);
#338=EDGE_CURVE('',#459,#431,#21,.T.);
#339=EDGE_CURVE('',#460,#459,#545,.T.);
#340=EDGE_CURVE('',#461,#460,#546,.T.);
#341=EDGE_CURVE('',#461,#462,#547,.T.);
#342=EDGE_CURVE('',#462,#463,#548,.T.);
#343=EDGE_CURVE('',#464,#463,#549,.T.);
#344=EDGE_CURVE('',#464,#465,#550,.T.);
#345=EDGE_CURVE('',#465,#466,#551,.T.);
#346=EDGE_CURVE('',#467,#466,#22,.T.);
#347=EDGE_CURVE('',#467,#468,#552,.T.);
#348=EDGE_CURVE('',#469,#468,#23,.T.);
#349=EDGE_CURVE('',#469,#408,#553,.T.);
#350=EDGE_CURVE('',#424,#435,#554,.T.);
#351=EDGE_CURVE('',#423,#436,#555,.T.);
#352=EDGE_CURVE('',#438,#421,#556,.T.);
#353=EDGE_CURVE('',#437,#422,#557,.T.);
#354=EDGE_CURVE('',#434,#425,#558,.T.);
#355=EDGE_CURVE('',#433,#426,#559,.T.);
#356=EDGE_CURVE('',#470,#458,#560,.T.);
#357=EDGE_CURVE('',#432,#470,#24,.T.);
#358=EDGE_CURVE('',#471,#457,#561,.T.);
#359=EDGE_CURVE('',#471,#470,#562,.T.);
#360=EDGE_CURVE('',#472,#456,#563,.T.);
#361=EDGE_CURVE('',#472,#471,#564,.T.);
#362=EDGE_CURVE('',#473,#455,#565,.T.);
#363=EDGE_CURVE('',#472,#473,#566,.T.);
#364=EDGE_CURVE('',#474,#454,#567,.T.);
#365=EDGE_CURVE('',#473,#474,#568,.T.);
#366=EDGE_CURVE('',#475,#453,#569,.T.);
#367=EDGE_CURVE('',#475,#474,#570,.T.);
#368=EDGE_CURVE('',#476,#452,#571,.T.);
#369=EDGE_CURVE('',#475,#476,#572,.T.);
#370=EDGE_CURVE('',#477,#451,#573,.T.);
#371=EDGE_CURVE('',#476,#477,#574,.T.);
#372=EDGE_CURVE('',#478,#450,#575,.T.);
#373=EDGE_CURVE('',#477,#478,#25,.T.);
#374=EDGE_CURVE('',#479,#449,#576,.T.);
#375=EDGE_CURVE('',#478,#479,#577,.T.);
#376=EDGE_CURVE('',#480,#448,#578,.T.);
#377=EDGE_CURVE('',#479,#480,#26,.T.);
#378=EDGE_CURVE('',#480,#427,#579,.T.);
#379=EDGE_CURVE('',#413,#444,#580,.T.);
#380=EDGE_CURVE('',#414,#443,#581,.T.);
#381=EDGE_CURVE('',#441,#416,#582,.T.);
#382=EDGE_CURVE('',#442,#415,#583,.T.);
#383=EDGE_CURVE('',#445,#412,#584,.T.);
#384=EDGE_CURVE('',#446,#411,#585,.T.);
#385=EDGE_CURVE('',#481,#469,#586,.T.);
#386=EDGE_CURVE('',#481,#410,#587,.T.);
#387=EDGE_CURVE('',#482,#468,#588,.T.);
#388=EDGE_CURVE('',#481,#482,#27,.T.);
#389=EDGE_CURVE('',#483,#467,#589,.T.);
#390=EDGE_CURVE('',#483,#482,#590,.T.);
#391=EDGE_CURVE('',#484,#466,#591,.T.);
#392=EDGE_CURVE('',#483,#484,#28,.T.);
#393=EDGE_CURVE('',#485,#465,#592,.T.);
#394=EDGE_CURVE('',#485,#484,#593,.T.);
#395=EDGE_CURVE('',#486,#464,#594,.T.);
#396=EDGE_CURVE('',#486,#485,#595,.T.);
#397=EDGE_CURVE('',#487,#463,#596,.T.);
#398=EDGE_CURVE('',#486,#487,#597,.T.);
#399=EDGE_CURVE('',#488,#462,#598,.T.);
#400=EDGE_CURVE('',#488,#487,#599,.T.);
#401=EDGE_CURVE('',#489,#461,#600,.T.);
#402=EDGE_CURVE('',#489,#488,#601,.T.);
#403=EDGE_CURVE('',#490,#460,#602,.T.);
#404=EDGE_CURVE('',#489,#490,#603,.T.);
#405=EDGE_CURVE('',#491,#459,#604,.T.);
#406=EDGE_CURVE('',#490,#491,#605,.T.);
#407=EDGE_CURVE('',#491,#447,#29,.T.);
#408=VERTEX_POINT('',#1190);
#409=VERTEX_POINT('',#1191);
#410=VERTEX_POINT('',#1193);
#411=VERTEX_POINT('',#1195);
#412=VERTEX_POINT('',#1197);
#413=VERTEX_POINT('',#1199);
#414=VERTEX_POINT('',#1201);
#415=VERTEX_POINT('',#1203);
#416=VERTEX_POINT('',#1205);
#417=VERTEX_POINT('',#1207);
#418=VERTEX_POINT('',#1209);
#419=VERTEX_POINT('',#1211);
#420=VERTEX_POINT('',#1213);
#421=VERTEX_POINT('',#1215);
#422=VERTEX_POINT('',#1217);
#423=VERTEX_POINT('',#1219);
#424=VERTEX_POINT('',#1221);
#425=VERTEX_POINT('',#1223);
#426=VERTEX_POINT('',#1225);
#427=VERTEX_POINT('',#1227);
#428=VERTEX_POINT('',#1231);
#429=VERTEX_POINT('',#1233);
#430=VERTEX_POINT('',#1237);
#431=VERTEX_POINT('',#1238);
#432=VERTEX_POINT('',#1240);
#433=VERTEX_POINT('',#1242);
#434=VERTEX_POINT('',#1244);
#435=VERTEX_POINT('',#1246);
#436=VERTEX_POINT('',#1248);
#437=VERTEX_POINT('',#1250);
#438=VERTEX_POINT('',#1252);
#439=VERTEX_POINT('',#1254);
#440=VERTEX_POINT('',#1256);
#441=VERTEX_POINT('',#1259);
#442=VERTEX_POINT('',#1261);
#443=VERTEX_POINT('',#1263);
#444=VERTEX_POINT('',#1265);
#445=VERTEX_POINT('',#1267);
#446=VERTEX_POINT('',#1269);
#447=VERTEX_POINT('',#1271);
#448=VERTEX_POINT('',#1279);
#449=VERTEX_POINT('',#1281);
#450=VERTEX_POINT('',#1283);
#451=VERTEX_POINT('',#1285);
#452=VERTEX_POINT('',#1287);
#453=VERTEX_POINT('',#1289);
#454=VERTEX_POINT('',#1291);
#455=VERTEX_POINT('',#1293);
#456=VERTEX_POINT('',#1295);
#457=VERTEX_POINT('',#1297);
#458=VERTEX_POINT('',#1299);
#459=VERTEX_POINT('',#1302);
#460=VERTEX_POINT('',#1304);
#461=VERTEX_POINT('',#1306);
#462=VERTEX_POINT('',#1308);
#463=VERTEX_POINT('',#1310);
#464=VERTEX_POINT('',#1312);
#465=VERTEX_POINT('',#1314);
#466=VERTEX_POINT('',#1316);
#467=VERTEX_POINT('',#1318);
#468=VERTEX_POINT('',#1320);
#469=VERTEX_POINT('',#1322);
#470=VERTEX_POINT('',#1336);
#471=VERTEX_POINT('',#1340);
#472=VERTEX_POINT('',#1344);
#473=VERTEX_POINT('',#1348);
#474=VERTEX_POINT('',#1352);
#475=VERTEX_POINT('',#1356);
#476=VERTEX_POINT('',#1360);
#477=VERTEX_POINT('',#1364);
#478=VERTEX_POINT('',#1368);
#479=VERTEX_POINT('',#1372);
#480=VERTEX_POINT('',#1376);
#481=VERTEX_POINT('',#1395);
#482=VERTEX_POINT('',#1399);
#483=VERTEX_POINT('',#1403);
#484=VERTEX_POINT('',#1407);
#485=VERTEX_POINT('',#1411);
#486=VERTEX_POINT('',#1415);
#487=VERTEX_POINT('',#1419);
#488=VERTEX_POINT('',#1423);
#489=VERTEX_POINT('',#1427);
#490=VERTEX_POINT('',#1431);
#491=VERTEX_POINT('',#1435);
#492=LINE('',#1189,#606);
#493=LINE('',#1192,#607);
#494=LINE('',#1194,#608);
#495=LINE('',#1196,#609);
#496=LINE('',#1198,#610);
#497=LINE('',#1200,#611);
#498=LINE('',#1202,#612);
#499=LINE('',#1204,#613);
#500=LINE('',#1206,#614);
#501=LINE('',#1208,#615);
#502=LINE('',#1210,#616);
#503=LINE('',#1212,#617);
#504=LINE('',#1214,#618);
#505=LINE('',#1216,#619);
#506=LINE('',#1218,#620);
#507=LINE('',#1220,#621);
#508=LINE('',#1222,#622);
#509=LINE('',#1224,#623);
#510=LINE('',#1226,#624);
#511=LINE('',#1228,#625);
#512=LINE('',#1230,#626);
#513=LINE('',#1232,#627);
#514=LINE('',#1234,#628);
#515=LINE('',#1236,#629);
#516=LINE('',#1239,#630);
#517=LINE('',#1241,#631);
#518=LINE('',#1243,#632);
#519=LINE('',#1245,#633);
#520=LINE('',#1247,#634);
#521=LINE('',#1249,#635);
#522=LINE('',#1251,#636);
#523=LINE('',#1253,#637);
#524=LINE('',#1255,#638);
#525=LINE('',#1257,#639);
#526=LINE('',#1258,#640);
#527=LINE('',#1260,#641);
#528=LINE('',#1262,#642);
#529=LINE('',#1264,#643);
#530=LINE('',#1266,#644);
#531=LINE('',#1268,#645);
#532=LINE('',#1270,#646);
#533=LINE('',#1272,#647);
#534=LINE('',#1274,#648);
#535=LINE('',#1275,#649);
#536=LINE('',#1278,#650);
#537=LINE('',#1282,#651);
#538=LINE('',#1286,#652);
#539=LINE('',#1288,#653);
#540=LINE('',#1290,#654);
#541=LINE('',#1292,#655);
#542=LINE('',#1294,#656);
#543=LINE('',#1296,#657);
#544=LINE('',#1298,#658);
#545=LINE('',#1303,#659);
#546=LINE('',#1305,#660);
#547=LINE('',#1307,#661);
#548=LINE('',#1309,#662);
#549=LINE('',#1311,#663);
#550=LINE('',#1313,#664);
#551=LINE('',#1315,#665);
#552=LINE('',#1319,#666);
#553=LINE('',#1323,#667);
#554=LINE('',#1325,#668);
#555=LINE('',#1326,#669);
#556=LINE('',#1328,#670);
#557=LINE('',#1329,#671);
#558=LINE('',#1332,#672);
#559=LINE('',#1333,#673);
#560=LINE('',#1335,#674);
#561=LINE('',#1339,#675);
#562=LINE('',#1341,#676);
#563=LINE('',#1343,#677);
#564=LINE('',#1345,#678);
#565=LINE('',#1347,#679);
#566=LINE('',#1349,#680);
#567=LINE('',#1351,#681);
#568=LINE('',#1353,#682);
#569=LINE('',#1355,#683);
#570=LINE('',#1357,#684);
#571=LINE('',#1359,#685);
#572=LINE('',#1361,#686);
#573=LINE('',#1363,#687);
#574=LINE('',#1365,#688);
#575=LINE('',#1367,#689);
#576=LINE('',#1371,#690);
#577=LINE('',#1373,#691);
#578=LINE('',#1375,#692);
#579=LINE('',#1379,#693);
#580=LINE('',#1384,#694);
#581=LINE('',#1385,#695);
#582=LINE('',#1387,#696);
#583=LINE('',#1388,#697);
#584=LINE('',#1391,#698);
#585=LINE('',#1392,#699);
#586=LINE('',#1394,#700);
#587=LINE('',#1396,#701);
#588=LINE('',#1398,#702);
#589=LINE('',#1402,#703);
#590=LINE('',#1404,#704);
#591=LINE('',#1406,#705);
#592=LINE('',#1410,#706);
#593=LINE('',#1412,#707);
#594=LINE('',#1414,#708);
#595=LINE('',#1416,#709);
#596=LINE('',#1418,#710);
#597=LINE('',#1420,#711);
#598=LINE('',#1422,#712);
#599=LINE('',#1424,#713);
#600=LINE('',#1426,#714);
#601=LINE('',#1428,#715);
#602=LINE('',#1430,#716);
#603=LINE('',#1432,#717);
#604=LINE('',#1434,#718);
#605=LINE('',#1436,#719);
#606=VECTOR('',#963,1.);
#607=VECTOR('',#964,1.);
#608=VECTOR('',#965,1.);
#609=VECTOR('',#966,1.);
#610=VECTOR('',#967,1.);
#611=VECTOR('',#968,1.);
#612=VECTOR('',#969,1.);
#613=VECTOR('',#970,1.);
#614=VECTOR('',#971,1.);
#615=VECTOR('',#972,1.);
#616=VECTOR('',#973,1.);
#617=VECTOR('',#974,1.);
#618=VECTOR('',#975,1.);
#619=VECTOR('',#976,1.);
#620=VECTOR('',#977,1.);
#621=VECTOR('',#978,1.);
#622=VECTOR('',#979,1.);
#623=VECTOR('',#980,1.);
#624=VECTOR('',#981,1.);
#625=VECTOR('',#982,1.);
#626=VECTOR('',#985,1.);
#627=VECTOR('',#986,1.);
#628=VECTOR('',#987,1.);
#629=VECTOR('',#990,1.);
#630=VECTOR('',#991,1.);
#631=VECTOR('',#992,1.);
#632=VECTOR('',#993,1.);
#633=VECTOR('',#994,1.);
#634=VECTOR('',#995,1.);
#635=VECTOR('',#996,1.);
#636=VECTOR('',#997,1.);
#637=VECTOR('',#998,1.);
#638=VECTOR('',#999,1.);
#639=VECTOR('',#1000,1.);
#640=VECTOR('',#1001,1.);
#641=VECTOR('',#1002,1.);
#642=VECTOR('',#1003,1.);
#643=VECTOR('',#1004,1.);
#644=VECTOR('',#1005,1.);
#645=VECTOR('',#1006,1.);
#646=VECTOR('',#1007,1.);
#647=VECTOR('',#1008,1.);
#648=VECTOR('',#1011,1.);
#649=VECTOR('',#1012,1.);
#650=VECTOR('',#1017,1.);
#651=VECTOR('',#1020,1.);
#652=VECTOR('',#1023,1.);
#653=VECTOR('',#1024,1.);
#654=VECTOR('',#1025,1.);
#655=VECTOR('',#1026,1.);
#656=VECTOR('',#1027,1.);
#657=VECTOR('',#1028,1.);
#658=VECTOR('',#1029,1.);
#659=VECTOR('',#1034,1.);
#660=VECTOR('',#1035,1.);
#661=VECTOR('',#1036,1.);
#662=VECTOR('',#1037,1.);
#663=VECTOR('',#1038,1.);
#664=VECTOR('',#1039,1.);
#665=VECTOR('',#1040,1.);
#666=VECTOR('',#1043,1.);
#667=VECTOR('',#1046,1.);
#668=VECTOR('',#1049,1.);
#669=VECTOR('',#1050,1.);
#670=VECTOR('',#1053,1.);
#671=VECTOR('',#1054,1.);
#672=VECTOR('',#1059,1.);
#673=VECTOR('',#1060,1.);
#674=VECTOR('',#1063,1.);
#675=VECTOR('',#1068,1.);
#676=VECTOR('',#1069,1.);
#677=VECTOR('',#1072,1.);
#678=VECTOR('',#1073,1.);
#679=VECTOR('',#1076,1.);
#680=VECTOR('',#1077,1.);
#681=VECTOR('',#1080,1.);
#682=VECTOR('',#1081,1.);
#683=VECTOR('',#1084,1.);
#684=VECTOR('',#1085,1.);
#685=VECTOR('',#1088,1.);
#686=VECTOR('',#1089,1.);
#687=VECTOR('',#1092,1.);
#688=VECTOR('',#1093,1.);
#689=VECTOR('',#1096,1.);
#690=VECTOR('',#1101,1.);
#691=VECTOR('',#1102,1.);
#692=VECTOR('',#1105,1.);
#693=VECTOR('',#1110,1.);
#694=VECTOR('',#1119,1.);
#695=VECTOR('',#1120,1.);
#696=VECTOR('',#1123,1.);
#697=VECTOR('',#1124,1.);
#698=VECTOR('',#1129,1.);
#699=VECTOR('',#1130,1.);
#700=VECTOR('',#1133,1.);
#701=VECTOR('',#1134,1.);
#702=VECTOR('',#1137,1.);
#703=VECTOR('',#1142,1.);
#704=VECTOR('',#1143,1.);
#705=VECTOR('',#1146,1.);
#706=VECTOR('',#1151,1.);
#707=VECTOR('',#1152,1.);
#708=VECTOR('',#1155,1.);
#709=VECTOR('',#1156,1.);
#710=VECTOR('',#1159,1.);
#711=VECTOR('',#1160,1.);
#712=VECTOR('',#1163,1.);
#713=VECTOR('',#1164,1.);
#714=VECTOR('',#1167,1.);
#715=VECTOR('',#1168,1.);
#716=VECTOR('',#1171,1.);
#717=VECTOR('',#1172,1.);
#718=VECTOR('',#1175,1.);
#719=VECTOR('',#1176,1.);
#720=EDGE_LOOP('',(#30,#31,#32,#33,#34,#35,#36,#37,#38,#39,#40,#41,#42,
#43,#44,#45,#46,#47,#48,#49));
#721=EDGE_LOOP('',(#50,#51,#52,#53));
#722=EDGE_LOOP('',(#54,#55,#56,#57,#58,#59,#60,#61,#62,#63,#64,#65,#66,
#67,#68,#69,#70,#71,#72,#73));
#723=EDGE_LOOP('',(#74,#75,#76,#77));
#724=EDGE_LOOP('',(#78,#79,#80,#81));
#725=EDGE_LOOP('',(#82,#83,#84,#85,#86,#87,#88,#89,#90,#91,#92,#93,#94,
#95,#96,#97,#98,#99,#100,#101,#102,#103,#104,#105,#106,#107));
#726=EDGE_LOOP('',(#108,#109,#110,#111));
#727=EDGE_LOOP('',(#112,#113,#114,#115));
#728=EDGE_LOOP('',(#116,#117,#118,#119));
#729=EDGE_LOOP('',(#120,#121,#122,#123));
#730=EDGE_LOOP('',(#124,#125,#126,#127));
#731=EDGE_LOOP('',(#128,#129,#130,#131));
#732=EDGE_LOOP('',(#132,#133,#134,#135));
#733=EDGE_LOOP('',(#136,#137,#138,#139));
#734=EDGE_LOOP('',(#140,#141,#142,#143));
#735=EDGE_LOOP('',(#144,#145,#146,#147));
#736=EDGE_LOOP('',(#148,#149,#150,#151));
#737=EDGE_LOOP('',(#152,#153,#154,#155));
#738=EDGE_LOOP('',(#156,#157,#158,#159));
#739=EDGE_LOOP('',(#160,#161,#162,#163));
#740=EDGE_LOOP('',(#164,#165,#166,#167));
#741=EDGE_LOOP('',(#168,#169,#170,#171));
#742=EDGE_LOOP('',(#172,#173,#174,#175,#176,#177,#178,#179,#180,#181,#182,
#183,#184,#185,#186));
#743=EDGE_LOOP('',(#187,#188,#189,#190));
#744=EDGE_LOOP('',(#191,#192,#193,#194));
#745=EDGE_LOOP('',(#195,#196,#197,#198));
#746=EDGE_LOOP('',(#199,#200,#201,#202));
#747=EDGE_LOOP('',(#203,#204,#205,#206));
#748=EDGE_LOOP('',(#207,#208,#209,#210));
#749=EDGE_LOOP('',(#211,#212,#213,#214));
#750=EDGE_LOOP('',(#215,#216,#217,#218));
#751=EDGE_LOOP('',(#219,#220,#221,#222));
#752=EDGE_LOOP('',(#223,#224,#225,#226));
#753=EDGE_LOOP('',(#227,#228,#229,#230));
#754=EDGE_LOOP('',(#231,#232,#233,#234));
#755=EDGE_LOOP('',(#235,#236,#237,#238));
#756=EDGE_LOOP('',(#239,#240,#241,#242));
#757=EDGE_LOOP('',(#243,#244,#245,#246));
#758=EDGE_LOOP('',(#247,#248,#249,#250));
#759=EDGE_LOOP('',(#251,#252,#253,#254));
#760=EDGE_LOOP('',(#255,#256,#257,#258));
#761=EDGE_LOOP('',(#259,#260,#261,#262,#263,#264,#265,#266,#267,#268,#269,
#270,#271,#272,#273));
#762=EDGE_LOOP('',(#274,#275,#276,#277));
#763=EDGE_LOOP('',(#278,#279,#280,#281));
#764=FACE_BOUND('',#720,.T.);
#765=FACE_BOUND('',#721,.T.);
#766=FACE_BOUND('',#722,.T.);
#767=FACE_BOUND('',#723,.T.);
#768=FACE_BOUND('',#724,.T.);
#769=FACE_BOUND('',#725,.T.);
#770=FACE_BOUND('',#726,.T.);
#771=FACE_BOUND('',#727,.T.);
#772=FACE_BOUND('',#728,.T.);
#773=FACE_BOUND('',#729,.T.);
#774=FACE_BOUND('',#730,.T.);
#775=FACE_BOUND('',#731,.T.);
#776=FACE_BOUND('',#732,.T.);
#777=FACE_BOUND('',#733,.T.);
#778=FACE_BOUND('',#734,.T.);
#779=FACE_BOUND('',#735,.T.);
#780=FACE_BOUND('',#736,.T.);
#781=FACE_BOUND('',#737,.T.);
#782=FACE_BOUND('',#738,.T.);
#783=FACE_BOUND('',#739,.T.);
#784=FACE_BOUND('',#740,.T.);
#785=FACE_BOUND('',#741,.T.);
#786=FACE_BOUND('',#742,.T.);
#787=FACE_BOUND('',#743,.T.);
#788=FACE_BOUND('',#744,.T.);
#789=FACE_BOUND('',#745,.T.);
#790=FACE_BOUND('',#746,.T.);
#791=FACE_BOUND('',#747,.T.);
#792=FACE_BOUND('',#748,.T.);
#793=FACE_BOUND('',#749,.T.);
#794=FACE_BOUND('',#750,.T.);
#795=FACE_BOUND('',#751,.T.);
#796=FACE_BOUND('',#752,.T.);
#797=FACE_BOUND('',#753,.T.);
#798=FACE_BOUND('',#754,.T.);
#799=FACE_BOUND('',#755,.T.);
#800=FACE_BOUND('',#756,.T.);
#801=FACE_BOUND('',#757,.T.);
#802=FACE_BOUND('',#758,.T.);
#803=FACE_BOUND('',#759,.T.);
#804=FACE_BOUND('',#760,.T.);
#805=FACE_BOUND('',#761,.T.);
#806=FACE_BOUND('',#762,.T.);
#807=FACE_BOUND('',#763,.T.);
#808=PLANE('',#903);
#809=PLANE('',#904);
#810=PLANE('',#905);
#811=PLANE('',#906);
#812=PLANE('',#907);
#813=PLANE('',#908);
#814=PLANE('',#915);
#815=PLANE('',#916);
#816=PLANE('',#917);
#817=PLANE('',#918);
#818=PLANE('',#921);
#819=PLANE('',#922);
#820=PLANE('',#923);
#821=PLANE('',#924);
#822=PLANE('',#925);
#823=PLANE('',#926);
#824=PLANE('',#927);
#825=PLANE('',#930);
#826=PLANE('',#933);
#827=PLANE('',#934);
#828=PLANE('',#935);
#829=PLANE('',#936);
#830=PLANE('',#937);
#831=PLANE('',#938);
#832=PLANE('',#939);
#833=PLANE('',#940);
#834=PLANE('',#941);
#835=PLANE('',#944);
#836=PLANE('',#947);
#837=PLANE('',#948);
#838=PLANE('',#949);
#839=PLANE('',#950);
#840=PLANE('',#951);
#841=PLANE('',#952);
#842=PLANE('',#953);
#843=PLANE('',#956);
#844=PLANE('',#957);
#845=PLANE('',#958);
#846=ADVANCED_FACE('',(#764),#808,.T.);
#847=ADVANCED_FACE('',(#765),#809,.F.);
#848=ADVANCED_FACE('',(#766),#810,.T.);
#849=ADVANCED_FACE('',(#767),#811,.T.);
#850=ADVANCED_FACE('',(#768),#812,.T.);
#851=ADVANCED_FACE('',(#769),#813,.F.);
#852=ADVANCED_FACE('',(#770),#814,.T.);
#853=ADVANCED_FACE('',(#771),#815,.T.);
#854=ADVANCED_FACE('',(#772),#816,.T.);
#855=ADVANCED_FACE('',(#773),#817,.T.);
#856=ADVANCED_FACE('',(#774),#12,.T.);
#857=ADVANCED_FACE('',(#775),#818,.T.);
#858=ADVANCED_FACE('',(#776),#819,.T.);
#859=ADVANCED_FACE('',(#777),#820,.F.);
#860=ADVANCED_FACE('',(#778),#821,.F.);
#861=ADVANCED_FACE('',(#779),#822,.T.);
#862=ADVANCED_FACE('',(#780),#823,.F.);
#863=ADVANCED_FACE('',(#781),#824,.F.);
#864=ADVANCED_FACE('',(#782),#13,.T.);
#865=ADVANCED_FACE('',(#783),#825,.F.);
#866=ADVANCED_FACE('',(#784),#14,.T.);
#867=ADVANCED_FACE('',(#785),#826,.F.);
#868=ADVANCED_FACE('',(#786),#827,.T.);
#869=ADVANCED_FACE('',(#787),#828,.T.);
#870=ADVANCED_FACE('',(#788),#829,.T.);
#871=ADVANCED_FACE('',(#789),#830,.F.);
#872=ADVANCED_FACE('',(#790),#831,.F.);
#873=ADVANCED_FACE('',(#791),#832,.T.);
#874=ADVANCED_FACE('',(#792),#833,.F.);
#875=ADVANCED_FACE('',(#793),#834,.T.);
#876=ADVANCED_FACE('',(#794),#15,.T.);
#877=ADVANCED_FACE('',(#795),#835,.T.);
#878=ADVANCED_FACE('',(#796),#16,.T.);
#879=ADVANCED_FACE('',(#797),#836,.T.);
#880=ADVANCED_FACE('',(#798),#837,.T.);
#881=ADVANCED_FACE('',(#799),#838,.F.);
#882=ADVANCED_FACE('',(#800),#839,.T.);
#883=ADVANCED_FACE('',(#801),#840,.T.);
#884=ADVANCED_FACE('',(#802),#841,.F.);
#885=ADVANCED_FACE('',(#803),#842,.F.);
#886=ADVANCED_FACE('',(#804),#17,.T.);
#887=ADVANCED_FACE('',(#805),#843,.T.);
#888=ADVANCED_FACE('',(#806),#844,.T.);
#889=ADVANCED_FACE('',(#807),#845,.T.);
#890=CLOSED_SHELL('',(#846,#847,#848,#849,#850,#851,#852,#853,#854,#855,
#856,#857,#858,#859,#860,#861,#862,#863,#864,#865,#866,#867,#868,#869,#870,
#871,#872,#873,#874,#875,#876,#877,#878,#879,#880,#881,#882,#883,#884,#885,
#886,#887,#888,#889));
#891=STYLED_ITEM('',(#892),#899);
#892=PRESENTATION_STYLE_ASSIGNMENT((#893));
#893=SURFACE_STYLE_USAGE(.BOTH.,#894);
#894=SURFACE_SIDE_STYLE('',(#895));
#895=SURFACE_STYLE_FILL_AREA(#896);
#896=FILL_AREA_STYLE('',(#897));
#897=FILL_AREA_STYLE_COLOUR('',#898);
#898=COLOUR_RGB('',0.615686274509804,0.811764705882353,0.929411764705882);
#899=MANIFOLD_SOLID_BREP('Part 1',#890);
#900=SHAPE_DEFINITION_REPRESENTATION(#1448,#901);
#901=SHAPE_REPRESENTATION('Part 1',(#902),#1443);
#902=AXIS2_PLACEMENT_3D('',#1187,#959,#960);
#903=AXIS2_PLACEMENT_3D('',#1188,#961,#962);
#904=AXIS2_PLACEMENT_3D('',#1229,#983,#984);
#905=AXIS2_PLACEMENT_3D('',#1235,#988,#989);
#906=AXIS2_PLACEMENT_3D('',#1273,#1009,#1010);
#907=AXIS2_PLACEMENT_3D('',#1276,#1013,#1014);
#908=AXIS2_PLACEMENT_3D('',#1277,#1015,#1016);
#909=AXIS2_PLACEMENT_3D('',#1280,#1018,#1019);
#910=AXIS2_PLACEMENT_3D('',#1284,#1021,#1022);
#911=AXIS2_PLACEMENT_3D('',#1300,#1030,#1031);
#912=AXIS2_PLACEMENT_3D('',#1301,#1032,#1033);
#913=AXIS2_PLACEMENT_3D('',#1317,#1041,#1042);
#914=AXIS2_PLACEMENT_3D('',#1321,#1044,#1045);
#915=AXIS2_PLACEMENT_3D('',#1324,#1047,#1048);
#916=AXIS2_PLACEMENT_3D('',#1327,#1051,#1052);
#917=AXIS2_PLACEMENT_3D('',#1330,#1055,#1056);
#918=AXIS2_PLACEMENT_3D('',#1331,#1057,#1058);
#919=AXIS2_PLACEMENT_3D('',#1334,#1061,#1062);
#920=AXIS2_PLACEMENT_3D('',#1337,#1064,#1065);
#921=AXIS2_PLACEMENT_3D('',#1338,#1066,#1067);
#922=AXIS2_PLACEMENT_3D('',#1342,#1070,#1071);
#923=AXIS2_PLACEMENT_3D('',#1346,#1074,#1075);
#924=AXIS2_PLACEMENT_3D('',#1350,#1078,#1079);
#925=AXIS2_PLACEMENT_3D('',#1354,#1082,#1083);
#926=AXIS2_PLACEMENT_3D('',#1358,#1086,#1087);
#927=AXIS2_PLACEMENT_3D('',#1362,#1090,#1091);
#928=AXIS2_PLACEMENT_3D('',#1366,#1094,#1095);
#929=AXIS2_PLACEMENT_3D('',#1369,#1097,#1098);
#930=AXIS2_PLACEMENT_3D('',#1370,#1099,#1100);
#931=AXIS2_PLACEMENT_3D('',#1374,#1103,#1104);
#932=AXIS2_PLACEMENT_3D('',#1377,#1106,#1107);
#933=AXIS2_PLACEMENT_3D('',#1378,#1108,#1109);
#934=AXIS2_PLACEMENT_3D('',#1380,#1111,#1112);
#935=AXIS2_PLACEMENT_3D('',#1381,#1113,#1114);
#936=AXIS2_PLACEMENT_3D('',#1382,#1115,#1116);
#937=AXIS2_PLACEMENT_3D('',#1383,#1117,#1118);
#938=AXIS2_PLACEMENT_3D('',#1386,#1121,#1122);
#939=AXIS2_PLACEMENT_3D('',#1389,#1125,#1126);
#940=AXIS2_PLACEMENT_3D('',#1390,#1127,#1128);
#941=AXIS2_PLACEMENT_3D('',#1393,#1131,#1132);
#942=AXIS2_PLACEMENT_3D('',#1397,#1135,#1136);
#943=AXIS2_PLACEMENT_3D('',#1400,#1138,#1139);
#944=AXIS2_PLACEMENT_3D('',#1401,#1140,#1141);
#945=AXIS2_PLACEMENT_3D('',#1405,#1144,#1145);
#946=AXIS2_PLACEMENT_3D('',#1408,#1147,#1148);
#947=AXIS2_PLACEMENT_3D('',#1409,#1149,#1150);
#948=AXIS2_PLACEMENT_3D('',#1413,#1153,#1154);
#949=AXIS2_PLACEMENT_3D('',#1417,#1157,#1158);
#950=AXIS2_PLACEMENT_3D('',#1421,#1161,#1162);
#951=AXIS2_PLACEMENT_3D('',#1425,#1165,#1166);
#952=AXIS2_PLACEMENT_3D('',#1429,#1169,#1170);
#953=AXIS2_PLACEMENT_3D('',#1433,#1173,#1174);
#954=AXIS2_PLACEMENT_3D('',#1437,#1177,#1178);
#955=AXIS2_PLACEMENT_3D('',#1438,#1179,#1180);
#956=AXIS2_PLACEMENT_3D('',#1439,#1181,#1182);
#957=AXIS2_PLACEMENT_3D('',#1440,#1183,#1184);
#958=AXIS2_PLACEMENT_3D('',#1441,#1185,#1186);
#959=DIRECTION('',(0.,0.,1.));
#960=DIRECTION('',(1.,0.,0.));
#961=DIRECTION('',(-2.56996070515082E-16,1.,0.));
#962=DIRECTION('',(1.,2.56996070515082E-16,0.));
#963=DIRECTION('',(1.,2.56996070515082E-16,0.));
#964=DIRECTION('',(0.,0.,-1.));
#965=DIRECTION('',(1.,2.44327250137578E-16,0.));
#966=DIRECTION('',(0.,0.,-1.));
#967=DIRECTION('',(1.,2.16840434497101E-16,0.));
#968=DIRECTION('',(0.,0.,-1.));
#969=DIRECTION('',(1.,2.35579731305492E-16,0.));
#970=DIRECTION('',(0.,0.,-1.));
#971=DIRECTION('',(1.,2.16840434497101E-16,0.));
#972=DIRECTION('',(0.,0.,-1.));
#973=DIRECTION('',(1.,2.56996070515082E-16,0.));
#974=DIRECTION('',(0.,0.,-1.));
#975=DIRECTION('',(-1.,2.16840434497101E-16,0.));
#976=DIRECTION('',(0.,0.,-1.));
#977=DIRECTION('',(-1.,2.35579731305492E-16,0.));
#978=DIRECTION('',(0.,0.,-1.));
#979=DIRECTION('',(-1.,4.33680868994202E-16,0.));
#980=DIRECTION('',(0.,0.,-1.));
#981=DIRECTION('',(-1.,2.44327250137578E-16,0.));
#982=DIRECTION('',(0.,0.,-1.));
#983=DIRECTION('',(1.,0.,0.));
#984=DIRECTION('',(0.,-1.,0.));
#985=DIRECTION('',(0.,-1.,0.));
#986=DIRECTION('',(0.,0.,-1.));
#987=DIRECTION('',(0.,-1.,0.));
#988=DIRECTION('',(0.,-1.,0.));
#989=DIRECTION('',(-1.,0.,0.));
#990=DIRECTION('',(-1.,0.,0.));
#991=DIRECTION('',(0.,0.,-1.));
#992=DIRECTION('',(1.,0.,0.));
#993=DIRECTION('',(0.,0.,-1.));
#994=DIRECTION('',(1.,0.,0.));
#995=DIRECTION('',(0.,0.,-1.));
#996=DIRECTION('',(1.,0.,0.));
#997=DIRECTION('',(0.,0.,-1.));
#998=DIRECTION('',(1.,0.,0.));
#999=DIRECTION('',(0.,0.,-1.));
#1000=DIRECTION('',(-1.,0.,0.));
#1001=DIRECTION('',(-1.,0.,0.));
#1002=DIRECTION('',(0.,0.,-1.));
#1003=DIRECTION('',(-1.,0.,0.));
#1004=DIRECTION('',(0.,0.,-1.));
#1005=DIRECTION('',(-1.,0.,0.));
#1006=DIRECTION('',(0.,0.,-1.));
#1007=DIRECTION('',(-1.,0.,0.));
#1008=DIRECTION('',(0.,0.,-1.));
#1009=DIRECTION('',(1.,0.,0.));
#1010=DIRECTION('',(0.,-1.,0.));
#1011=DIRECTION('',(0.,-1.,0.));
#1012=DIRECTION('',(0.,-1.,0.));
#1013=DIRECTION('',(0.,0.,1.));
#1014=DIRECTION('',(1.,0.,0.));
#1015=DIRECTION('',(0.,0.,1.));
#1016=DIRECTION('',(1.,0.,0.));
#1017=DIRECTION('',(0.,-1.,0.));
#1018=DIRECTION('',(0.,0.,1.));
#1019=DIRECTION('',(0.,-1.,0.));
#1020=DIRECTION('',(-1.,0.,0.));
#1021=DIRECTION('',(0.,0.,1.));
#1022=DIRECTION('',(0.,-1.,0.));
#1023=DIRECTION('',(0.,1.,0.));
#1024=DIRECTION('',(1.,-6.93889390390722E-16,0.));
#1025=DIRECTION('',(0.,1.,0.));
#1026=DIRECTION('',(1.,8.67361737988403E-16,0.));
#1027=DIRECTION('',(0.,1.,0.));
#1028=DIRECTION('',(-1.,1.7347234759768E-16,0.));
#1029=DIRECTION('',(0.,-1.,0.));
#1030=DIRECTION('',(0.,0.,1.));
#1031=DIRECTION('',(0.,-1.,0.));
#1032=DIRECTION('',(0.,0.,1.));
#1033=DIRECTION('',(0.,-1.,0.));
#1034=DIRECTION('',(0.,-1.,0.));
#1035=DIRECTION('',(1.,1.7347234759768E-16,0.));
#1036=DIRECTION('',(0.,1.,0.));
#1037=DIRECTION('',(-1.,1.04083408558608E-15,0.));
#1038=DIRECTION('',(0.,1.,0.));
#1039=DIRECTION('',(-1.,-6.93889390390722E-16,0.));
#1040=DIRECTION('',(0.,1.,0.));
#1041=DIRECTION('',(0.,0.,1.));
#1042=DIRECTION('',(0.,-1.,0.));
#1043=DIRECTION('',(1.,0.,0.));
#1044=DIRECTION('',(0.,0.,1.));
#1045=DIRECTION('',(0.,-1.,0.));
#1046=DIRECTION('',(0.,-1.,0.));
#1047=DIRECTION('',(1.,0.,0.));
#1048=DIRECTION('',(0.,-1.,0.));
#1049=DIRECTION('',(0.,-1.,0.));
#1050=DIRECTION('',(0.,-1.,0.));
#1051=DIRECTION('',(-1.,0.,0.));
#1052=DIRECTION('',(0.,1.,0.));
#1053=DIRECTION('',(0.,1.,0.));
#1054=DIRECTION('',(0.,1.,0.));
#1055=DIRECTION('',(0.,0.,1.));
#1056=DIRECTION('',(1.,0.,0.));
#1057=DIRECTION('',(-1.,0.,0.));
#1058=DIRECTION('',(0.,1.,0.));
#1059=DIRECTION('',(0.,1.,0.));
#1060=DIRECTION('',(0.,1.,0.));
#1061=DIRECTION('',(0.,0.,-1.));
#1062=DIRECTION('',(0.,1.,0.));
#1063=DIRECTION('',(0.,0.,-1.));
#1064=DIRECTION('',(0.,0.,1.));
#1065=DIRECTION('',(0.,-1.,0.));
#1066=DIRECTION('',(1.,0.,0.));
#1067=DIRECTION('',(0.,-1.,0.));
#1068=DIRECTION('',(0.,0.,-1.));
#1069=DIRECTION('',(0.,-1.,0.));
#1070=DIRECTION('',(-1.7347234759768E-16,-1.,0.));
#1071=DIRECTION('',(-1.,1.7347234759768E-16,0.));
#1072=DIRECTION('',(0.,0.,-1.));
#1073=DIRECTION('',(-1.,1.7347234759768E-16,0.));
#1074=DIRECTION('',(-1.,0.,0.));
#1075=DIRECTION('',(0.,1.,0.));
#1076=DIRECTION('',(0.,0.,-1.));
#1077=DIRECTION('',(0.,1.,0.));
#1078=DIRECTION('',(-8.67361737988403E-16,1.,0.));
#1079=DIRECTION('',(1.,8.67361737988403E-16,0.));
#1080=DIRECTION('',(0.,0.,-1.));
#1081=DIRECTION('',(1.,8.67361737988403E-16,0.));
#1082=DIRECTION('',(-1.,0.,0.));
#1083=DIRECTION('',(0.,1.,0.));
#1084=DIRECTION('',(0.,0.,-1.));
#1085=DIRECTION('',(0.,1.,0.));
#1086=DIRECTION('',(6.93889390390722E-16,1.,0.));
#1087=DIRECTION('',(1.,-6.93889390390722E-16,0.));
#1088=DIRECTION('',(0.,0.,-1.));
#1089=DIRECTION('',(1.,-6.93889390390722E-16,0.));
#1090=DIRECTION('',(-1.,0.,0.));
#1091=DIRECTION('',(0.,1.,0.));
#1092=DIRECTION('',(0.,0.,-1.));
#1093=DIRECTION('',(0.,1.,0.));
#1094=DIRECTION('',(0.,0.,-1.));
#1095=DIRECTION('',(0.,1.,0.));
#1096=DIRECTION('',(0.,0.,-1.));
#1097=DIRECTION('',(0.,0.,1.));
#1098=DIRECTION('',(0.,-1.,0.));
#1099=DIRECTION('',(0.,-1.,0.));
#1100=DIRECTION('',(-1.,0.,0.));
#1101=DIRECTION('',(0.,0.,-1.));
#1102=DIRECTION('',(-1.,0.,0.));
#1103=DIRECTION('',(0.,0.,-1.));
#1104=DIRECTION('',(0.,1.,0.));
#1105=DIRECTION('',(0.,0.,-1.));
#1106=DIRECTION('',(0.,0.,1.));
#1107=DIRECTION('',(0.,-1.,0.));
#1108=DIRECTION('',(1.,0.,0.));
#1109=DIRECTION('',(0.,-1.,0.));
#1110=DIRECTION('',(0.,-1.,0.));
#1111=DIRECTION('',(0.,0.,1.));
#1112=DIRECTION('',(1.,0.,0.));
#1113=DIRECTION('',(0.,0.,1.));
#1114=DIRECTION('',(1.,0.,0.));
#1115=DIRECTION('',(0.,0.,1.));
#1116=DIRECTION('',(1.,0.,0.));
#1117=DIRECTION('',(1.,0.,0.));
#1118=DIRECTION('',(0.,-1.,0.));
#1119=DIRECTION('',(0.,-1.,0.));
#1120=DIRECTION('',(0.,-1.,0.));
#1121=DIRECTION('',(-1.,0.,0.));
#1122=DIRECTION('',(0.,1.,0.));
#1123=DIRECTION('',(0.,1.,0.));
#1124=DIRECTION('',(0.,1.,0.));
#1125=DIRECTION('',(0.,0.,1.));
#1126=DIRECTION('',(1.,0.,0.));
#1127=DIRECTION('',(-1.,0.,0.));
#1128=DIRECTION('',(0.,1.,0.));
#1129=DIRECTION('',(0.,1.,0.));
#1130=DIRECTION('',(0.,1.,0.));
#1131=DIRECTION('',(1.,0.,0.));
#1132=DIRECTION('',(0.,-1.,0.));
#1133=DIRECTION('',(0.,0.,-1.));
#1134=DIRECTION('',(0.,-1.,0.));
#1135=DIRECTION('',(0.,0.,-1.));
#1136=DIRECTION('',(0.,1.,0.));
#1137=DIRECTION('',(0.,0.,-1.));
#1138=DIRECTION('',(0.,0.,1.));
#1139=DIRECTION('',(0.,-1.,0.));
#1140=DIRECTION('',(0.,1.,0.));
#1141=DIRECTION('',(1.,0.,0.));
#1142=DIRECTION('',(0.,0.,-1.));
#1143=DIRECTION('',(1.,0.,0.));
#1144=DIRECTION('',(0.,0.,-1.));
#1145=DIRECTION('',(0.,1.,0.));
#1146=DIRECTION('',(0.,0.,-1.));
#1147=DIRECTION('',(0.,0.,1.));
#1148=DIRECTION('',(0.,-1.,0.));
#1149=DIRECTION('',(-1.,0.,0.));
#1150=DIRECTION('',(0.,1.,0.));
#1151=DIRECTION('',(0.,0.,-1.));
#1152=DIRECTION('',(0.,1.,0.));
#1153=DIRECTION('',(6.93889390390722E-16,-1.,0.));
#1154=DIRECTION('',(-1.,-6.93889390390722E-16,0.));
#1155=DIRECTION('',(0.,0.,-1.));
#1156=DIRECTION('',(-1.,-6.93889390390722E-16,0.));
#1157=DIRECTION('',(-1.,0.,0.));
#1158=DIRECTION('',(0.,1.,0.));
#1159=DIRECTION('',(0.,0.,-1.));
#1160=DIRECTION('',(0.,1.,0.));
#1161=DIRECTION('',(-1.04083408558608E-15,-1.,0.));
#1162=DIRECTION('',(-1.,1.04083408558608E-15,0.));
#1163=DIRECTION('',(0.,0.,-1.));
#1164=DIRECTION('',(-1.,1.04083408558608E-15,0.));
#1165=DIRECTION('',(-1.,0.,0.));
#1166=DIRECTION('',(0.,1.,0.));
#1167=DIRECTION('',(0.,0.,-1.));
#1168=DIRECTION('',(0.,1.,0.));
#1169=DIRECTION('',(-1.7347234759768E-16,1.,0.));
#1170=DIRECTION('',(1.,1.7347234759768E-16,0.));
#1171=DIRECTION('',(0.,0.,-1.));
#1172=DIRECTION('',(1.,1.7347234759768E-16,0.));
#1173=DIRECTION('',(1.,0.,0.));
#1174=DIRECTION('',(0.,-1.,0.));
#1175=DIRECTION('',(0.,0.,-1.));
#1176=DIRECTION('',(0.,-1.,0.));
#1177=DIRECTION('',(0.,0.,-1.));
#1178=DIRECTION('',(0.,1.,0.));
#1179=DIRECTION('',(0.,0.,1.));
#1180=DIRECTION('',(0.,-1.,0.));
#1181=DIRECTION('',(0.,0.,1.));
#1182=DIRECTION('',(1.,0.,0.));
#1183=DIRECTION('',(0.,0.,1.));
#1184=DIRECTION('',(1.,0.,0.));
#1185=DIRECTION('',(0.,0.,1.));
#1186=DIRECTION('',(1.,0.,0.));
#1187=CARTESIAN_POINT('',(0.,0.,0.));
#1188=CARTESIAN_POINT('',(-0.010125,0.005,0.006));
#1189=CARTESIAN_POINT('',(-0.010125,0.005,0.));
#1190=CARTESIAN_POINT('',(-0.10425,0.005,0.));
#1191=CARTESIAN_POINT('',(0.10425,0.005,0.));
#1192=CARTESIAN_POINT('',(-0.10425,0.005,0.006));
#1193=CARTESIAN_POINT('',(-0.10425,0.005,0.006));
#1194=CARTESIAN_POINT('',(-0.0865,0.005,0.006));
#1195=CARTESIAN_POINT('',(-0.06875,0.005,0.006));
#1196=CARTESIAN_POINT('',(-0.06875,0.005,0.006));
#1197=CARTESIAN_POINT('',(-0.06875,0.005,0.0045));
#1198=CARTESIAN_POINT('',(-0.06675,0.005,0.0045));
#1199=CARTESIAN_POINT('',(-0.06475,0.005,0.0045));
#1200=CARTESIAN_POINT('',(-0.06475,0.005,0.006));
#1201=CARTESIAN_POINT('',(-0.06475,0.005,0.006));
#1202=CARTESIAN_POINT('',(-0.0445,0.005,0.006));
#1203=CARTESIAN_POINT('',(-0.02425,0.005,0.006));
#1204=CARTESIAN_POINT('',(-0.02425,0.005,0.006));
#1205=CARTESIAN_POINT('',(-0.02425,0.005,0.0045));
#1206=CARTESIAN_POINT('',(-0.02225,0.005,0.0045));
#1207=CARTESIAN_POINT('',(-0.02025,0.005,0.0045));
#1208=CARTESIAN_POINT('',(-0.02025,0.005,0.006));
#1209=CARTESIAN_POINT('',(-0.02025,0.005,0.006));
#1210=CARTESIAN_POINT('',(-0.010125,0.005,0.006));
#1211=CARTESIAN_POINT('',(0.02025,0.005,0.006));
#1212=CARTESIAN_POINT('',(0.02025,0.005,0.006));
#1213=CARTESIAN_POINT('',(0.02025,0.005,0.0045));
#1214=CARTESIAN_POINT('',(0.02225,0.005,0.0045));
#1215=CARTESIAN_POINT('',(0.02425,0.005,0.0045));
#1216=CARTESIAN_POINT('',(0.02425,0.005,0.006));
#1217=CARTESIAN_POINT('',(0.02425,0.005,0.006));
#1218=CARTESIAN_POINT('',(0.0445,0.005,0.006));
#1219=CARTESIAN_POINT('',(0.06475,0.005,0.006));
#1220=CARTESIAN_POINT('',(0.06475,0.005,0.006));
#1221=CARTESIAN_POINT('',(0.06475,0.005,0.0045));
#1222=CARTESIAN_POINT('',(0.06675,0.005,0.0045));
#1223=CARTESIAN_POINT('',(0.06875,0.005,0.0045));
#1224=CARTESIAN_POINT('',(0.06875,0.005,0.006));
#1225=CARTESIAN_POINT('',(0.06875,0.005,0.006));
#1226=CARTESIAN_POINT('',(0.0865,0.005,0.006));
#1227=CARTESIAN_POINT('',(0.10425,0.005,0.006));
#1228=CARTESIAN_POINT('',(0.10425,0.005,0.006));
#1229=CARTESIAN_POINT('',(-0.02025,0.0025,0.006));
#1230=CARTESIAN_POINT('',(-0.02025,0.0025,0.0045));
#1231=CARTESIAN_POINT('',(-0.02025,0.,0.0045));
#1232=CARTESIAN_POINT('',(-0.02025,0.,0.006));
#1233=CARTESIAN_POINT('',(-0.02025,0.,0.006));
#1234=CARTESIAN_POINT('',(-0.02025,0.0025,0.006));
#1235=CARTESIAN_POINT('',(-0.010125,0.,0.006));
#1236=CARTESIAN_POINT('',(-0.010125,0.,0.));
#1237=CARTESIAN_POINT('',(0.10725,1.43114686768087E-17,0.));
#1238=CARTESIAN_POINT('',(-0.10725,-1.25767452008318E-17,0.));
#1239=CARTESIAN_POINT('',(0.10725,1.43114686768087E-17,0.006));
#1240=CARTESIAN_POINT('',(0.10725,1.43114686768087E-17,0.006));
#1241=CARTESIAN_POINT('',(0.088,0.,0.006));
#1242=CARTESIAN_POINT('',(0.06875,0.,0.006));
#1243=CARTESIAN_POINT('',(0.06875,0.,0.006));
#1244=CARTESIAN_POINT('',(0.06875,0.,0.0045));
#1245=CARTESIAN_POINT('',(0.06775,0.,0.0045));
#1246=CARTESIAN_POINT('',(0.06475,-6.93889390390723E-18,0.0045));
#1247=CARTESIAN_POINT('',(0.06475,-6.93889390390723E-18,0.006));
#1248=CARTESIAN_POINT('',(0.06475,-6.93889390390723E-18,0.006));
#1249=CARTESIAN_POINT('',(0.0445,0.,0.006));
#1250=CARTESIAN_POINT('',(0.02425,3.03576608295941E-18,0.006));
#1251=CARTESIAN_POINT('',(0.02425,3.03576608295941E-18,0.006));
#1252=CARTESIAN_POINT('',(0.02425,3.03576608295941E-18,0.0045));
#1253=CARTESIAN_POINT('',(0.02125,0.,0.0045));
#1254=CARTESIAN_POINT('',(0.02025,0.,0.0045));
#1255=CARTESIAN_POINT('',(0.02025,0.,0.006));
#1256=CARTESIAN_POINT('',(0.02025,0.,0.006));
#1257=CARTESIAN_POINT('',(-0.010125,0.,0.006));
#1258=CARTESIAN_POINT('',(-0.02325,0.,0.0045));
#1259=CARTESIAN_POINT('',(-0.02425,0.,0.0045));
#1260=CARTESIAN_POINT('',(-0.02425,0.,0.006));
#1261=CARTESIAN_POINT('',(-0.02425,0.,0.006));
#1262=CARTESIAN_POINT('',(-0.0445,0.,0.006));
#1263=CARTESIAN_POINT('',(-0.06475,0.,0.006));
#1264=CARTESIAN_POINT('',(-0.06475,0.,0.006));
#1265=CARTESIAN_POINT('',(-0.06475,0.,0.0045));
#1266=CARTESIAN_POINT('',(-0.06775,0.,0.0045));
#1267=CARTESIAN_POINT('',(-0.06875,0.,0.0045));
#1268=CARTESIAN_POINT('',(-0.06875,0.,0.006));
#1269=CARTESIAN_POINT('',(-0.06875,0.,0.006));
#1270=CARTESIAN_POINT('',(-0.088,0.,0.006));
#1271=CARTESIAN_POINT('',(-0.10725,-1.25767452008318E-17,0.006));
#1272=CARTESIAN_POINT('',(-0.10725,-1.25767452008318E-17,0.006));
#1273=CARTESIAN_POINT('',(0.02025,0.0025,0.006));
#1274=CARTESIAN_POINT('',(0.02025,0.0025,0.0045));
#1275=CARTESIAN_POINT('',(0.02025,0.0025,0.006));
#1276=CARTESIAN_POINT('',(0.,0.0075,0.006));
#1277=CARTESIAN_POINT('',(0.,0.0075,0.));
#1278=CARTESIAN_POINT('',(0.10425,0.0075,0.));
#1279=CARTESIAN_POINT('',(0.10425,0.01,0.));
#1280=CARTESIAN_POINT('',(0.10925,0.01,0.));
#1281=CARTESIAN_POINT('',(0.10925,0.015,0.));
#1282=CARTESIAN_POINT('',(0.11925,0.015,0.));
#1283=CARTESIAN_POINT('',(0.12925,0.015,0.));
#1284=CARTESIAN_POINT('',(0.12925,0.01,0.));
#1285=CARTESIAN_POINT('',(0.13425,0.01,0.));
#1286=CARTESIAN_POINT('',(0.13425,0.0075,0.));
#1287=CARTESIAN_POINT('',(0.13425,0.005,0.));
#1288=CARTESIAN_POINT('',(0.12925,0.005,0.));
#1289=CARTESIAN_POINT('',(0.12425,0.005,0.));
#1290=CARTESIAN_POINT('',(0.12425,0.0075,0.));
#1291=CARTESIAN_POINT('',(0.12425,0.01,0.));
#1292=CARTESIAN_POINT('',(0.11925,0.01,0.));
#1293=CARTESIAN_POINT('',(0.11425,0.01,0.));
#1294=CARTESIAN_POINT('',(0.11425,0.0075,0.));
#1295=CARTESIAN_POINT('',(0.11425,0.005,0.));
#1296=CARTESIAN_POINT('',(0.11175,0.005,0.));
#1297=CARTESIAN_POINT('',(0.10925,0.005,0.));
#1298=CARTESIAN_POINT('',(0.10925,0.0035,0.));
#1299=CARTESIAN_POINT('',(0.10925,0.002,0.));
#1300=CARTESIAN_POINT('',(0.10725,0.00200000000000004,0.));
#1301=CARTESIAN_POINT('',(-0.10725,0.002,0.));
#1302=CARTESIAN_POINT('',(-0.10925,0.002,0.));
#1303=CARTESIAN_POINT('',(-0.10925,0.0035,0.));
#1304=CARTESIAN_POINT('',(-0.10925,0.005,0.));
#1305=CARTESIAN_POINT('',(-0.11175,0.005,0.));
#1306=CARTESIAN_POINT('',(-0.11425,0.005,0.));
#1307=CARTESIAN_POINT('',(-0.11425,0.0075,0.));
#1308=CARTESIAN_POINT('',(-0.11425,0.01,0.));
#1309=CARTESIAN_POINT('',(-0.11925,0.01,0.));
#1310=CARTESIAN_POINT('',(-0.12425,0.01,0.));
#1311=CARTESIAN_POINT('',(-0.12425,0.0075,0.));
#1312=CARTESIAN_POINT('',(-0.12425,0.005,0.));
#1313=CARTESIAN_POINT('',(-0.12925,0.005,0.));
#1314=CARTESIAN_POINT('',(-0.13425,0.005,0.));
#1315=CARTESIAN_POINT('',(-0.13425,0.0075,0.));
#1316=CARTESIAN_POINT('',(-0.13425,0.01,0.));
#1317=CARTESIAN_POINT('',(-0.12925,0.01,0.));
#1318=CARTESIAN_POINT('',(-0.12925,0.015,0.));
#1319=CARTESIAN_POINT('',(-0.11925,0.015,0.));
#1320=CARTESIAN_POINT('',(-0.10925,0.015,0.));
#1321=CARTESIAN_POINT('',(-0.10925,0.01,0.));
#1322=CARTESIAN_POINT('',(-0.10425,0.01,0.));
#1323=CARTESIAN_POINT('',(-0.10425,0.0075,0.));
#1324=CARTESIAN_POINT('',(0.06475,0.0025,0.006));
#1325=CARTESIAN_POINT('',(0.06475,0.0025,0.0045));
#1326=CARTESIAN_POINT('',(0.06475,0.0025,0.006));
#1327=CARTESIAN_POINT('',(0.02425,0.0025,0.006));
#1328=CARTESIAN_POINT('',(0.02425,0.0025,0.0045));
#1329=CARTESIAN_POINT('',(0.02425,0.0025,0.006));
#1330=CARTESIAN_POINT('',(0.,0.0075,0.006));
#1331=CARTESIAN_POINT('',(0.06875,0.0025,0.006));
#1332=CARTESIAN_POINT('',(0.06875,0.0025,0.0045));
#1333=CARTESIAN_POINT('',(0.06875,0.0025,0.006));
#1334=CARTESIAN_POINT('',(0.10725,0.00200000000000004,0.006));
#1335=CARTESIAN_POINT('',(0.10925,0.002,0.006));
#1336=CARTESIAN_POINT('',(0.10925,0.002,0.006));
#1337=CARTESIAN_POINT('',(0.10725,0.00200000000000004,0.006));
#1338=CARTESIAN_POINT('',(0.10925,0.0035,0.006));
#1339=CARTESIAN_POINT('',(0.10925,0.005,0.006));
#1340=CARTESIAN_POINT('',(0.10925,0.005,0.006));
#1341=CARTESIAN_POINT('',(0.10925,0.0035,0.006));
#1342=CARTESIAN_POINT('',(0.11175,0.005,0.006));
#1343=CARTESIAN_POINT('',(0.11425,0.005,0.006));
#1344=CARTESIAN_POINT('',(0.11425,0.005,0.006));
#1345=CARTESIAN_POINT('',(0.11175,0.005,0.006));
#1346=CARTESIAN_POINT('',(0.11425,0.0075,0.006));
#1347=CARTESIAN_POINT('',(0.11425,0.01,0.006));
#1348=CARTESIAN_POINT('',(0.11425,0.01,0.006));
#1349=CARTESIAN_POINT('',(0.11425,0.0075,0.006));
#1350=CARTESIAN_POINT('',(0.11925,0.01,0.006));
#1351=CARTESIAN_POINT('',(0.12425,0.01,0.006));
#1352=CARTESIAN_POINT('',(0.12425,0.01,0.006));
#1353=CARTESIAN_POINT('',(0.11925,0.01,0.006));
#1354=CARTESIAN_POINT('',(0.12425,0.0075,0.006));
#1355=CARTESIAN_POINT('',(0.12425,0.005,0.006));
#1356=CARTESIAN_POINT('',(0.12425,0.005,0.006));
#1357=CARTESIAN_POINT('',(0.12425,0.0075,0.006));
#1358=CARTESIAN_POINT('',(0.12925,0.005,0.006));
#1359=CARTESIAN_POINT('',(0.13425,0.005,0.006));
#1360=CARTESIAN_POINT('',(0.13425,0.005,0.006));
#1361=CARTESIAN_POINT('',(0.12925,0.005,0.006));
#1362=CARTESIAN_POINT('',(0.13425,0.0075,0.006));
#1363=CARTESIAN_POINT('',(0.13425,0.01,0.006));
#1364=CARTESIAN_POINT('',(0.13425,0.01,0.006));
#1365=CARTESIAN_POINT('',(0.13425,0.0075,0.006));
#1366=CARTESIAN_POINT('',(0.12925,0.01,0.006));
#1367=CARTESIAN_POINT('',(0.12925,0.015,0.006));
#1368=CARTESIAN_POINT('',(0.12925,0.015,0.006));
#1369=CARTESIAN_POINT('',(0.12925,0.01,0.006));
#1370=CARTESIAN_POINT('',(0.11925,0.015,0.006));
#1371=CARTESIAN_POINT('',(0.10925,0.015,0.006));
#1372=CARTESIAN_POINT('',(0.10925,0.015,0.006));
#1373=CARTESIAN_POINT('',(0.11925,0.015,0.006));
#1374=CARTESIAN_POINT('',(0.10925,0.01,0.006));
#1375=CARTESIAN_POINT('',(0.10425,0.01,0.006));
#1376=CARTESIAN_POINT('',(0.10425,0.01,0.006));
#1377=CARTESIAN_POINT('',(0.10925,0.01,0.006));
#1378=CARTESIAN_POINT('',(0.10425,0.0075,0.006));
#1379=CARTESIAN_POINT('',(0.10425,0.0075,0.006));
#1380=CARTESIAN_POINT('',(0.,0.0075,0.006));
#1381=CARTESIAN_POINT('',(0.,0.0075,0.0045));
#1382=CARTESIAN_POINT('',(0.,0.0075,0.0045));
#1383=CARTESIAN_POINT('',(-0.06475,0.0025,0.006));
#1384=CARTESIAN_POINT('',(-0.06475,0.0025,0.0045));
#1385=CARTESIAN_POINT('',(-0.06475,0.0025,0.006));
#1386=CARTESIAN_POINT('',(-0.02425,0.0025,0.006));
#1387=CARTESIAN_POINT('',(-0.02425,0.0025,0.0045));
#1388=CARTESIAN_POINT('',(-0.02425,0.0025,0.006));
#1389=CARTESIAN_POINT('',(0.,0.0075,0.006));
#1390=CARTESIAN_POINT('',(-0.06875,0.0025,0.006));
#1391=CARTESIAN_POINT('',(-0.06875,0.0025,0.0045));
#1392=CARTESIAN_POINT('',(-0.06875,0.0025,0.006));
#1393=CARTESIAN_POINT('',(-0.10425,0.0075,0.006));
#1394=CARTESIAN_POINT('',(-0.10425,0.01,0.006));
#1395=CARTESIAN_POINT('',(-0.10425,0.01,0.006));
#1396=CARTESIAN_POINT('',(-0.10425,0.0075,0.006));
#1397=CARTESIAN_POINT('',(-0.10925,0.01,0.006));
#1398=CARTESIAN_POINT('',(-0.10925,0.015,0.006));
#1399=CARTESIAN_POINT('',(-0.10925,0.015,0.006));
#1400=CARTESIAN_POINT('',(-0.10925,0.01,0.006));
#1401=CARTESIAN_POINT('',(-0.11925,0.015,0.006));
#1402=CARTESIAN_POINT('',(-0.12925,0.015,0.006));
#1403=CARTESIAN_POINT('',(-0.12925,0.015,0.006));
#1404=CARTESIAN_POINT('',(-0.11925,0.015,0.006));
#1405=CARTESIAN_POINT('',(-0.12925,0.01,0.006));
#1406=CARTESIAN_POINT('',(-0.13425,0.01,0.006));
#1407=CARTESIAN_POINT('',(-0.13425,0.01,0.006));
#1408=CARTESIAN_POINT('',(-0.12925,0.01,0.006));
#1409=CARTESIAN_POINT('',(-0.13425,0.0075,0.006));
#1410=CARTESIAN_POINT('',(-0.13425,0.005,0.006));
#1411=CARTESIAN_POINT('',(-0.13425,0.005,0.006));
#1412=CARTESIAN_POINT('',(-0.13425,0.0075,0.006));
#1413=CARTESIAN_POINT('',(-0.12925,0.005,0.006));
#1414=CARTESIAN_POINT('',(-0.12425,0.005,0.006));
#1415=CARTESIAN_POINT('',(-0.12425,0.005,0.006));
#1416=CARTESIAN_POINT('',(-0.12925,0.005,0.006));
#1417=CARTESIAN_POINT('',(-0.12425,0.0075,0.006));
#1418=CARTESIAN_POINT('',(-0.12425,0.01,0.006));
#1419=CARTESIAN_POINT('',(-0.12425,0.01,0.006));
#1420=CARTESIAN_POINT('',(-0.12425,0.0075,0.006));
#1421=CARTESIAN_POINT('',(-0.11925,0.01,0.006));
#1422=CARTESIAN_POINT('',(-0.11425,0.01,0.006));
#1423=CARTESIAN_POINT('',(-0.11425,0.01,0.006));
#1424=CARTESIAN_POINT('',(-0.11925,0.01,0.006));
#1425=CARTESIAN_POINT('',(-0.11425,0.0075,0.006));
#1426=CARTESIAN_POINT('',(-0.11425,0.005,0.006));
#1427=CARTESIAN_POINT('',(-0.11425,0.005,0.006));
#1428=CARTESIAN_POINT('',(-0.11425,0.0075,0.006));
#1429=CARTESIAN_POINT('',(-0.11175,0.005,0.006));
#1430=CARTESIAN_POINT('',(-0.10925,0.005,0.006));
#1431=CARTESIAN_POINT('',(-0.10925,0.005,0.006));
#1432=CARTESIAN_POINT('',(-0.11175,0.005,0.006));
#1433=CARTESIAN_POINT('',(-0.10925,0.0035,0.006));
#1434=CARTESIAN_POINT('',(-0.10925,0.002,0.006));
#1435=CARTESIAN_POINT('',(-0.10925,0.002,0.006));
#1436=CARTESIAN_POINT('',(-0.10925,0.0035,0.006));
#1437=CARTESIAN_POINT('',(-0.10725,0.002,0.006));
#1438=CARTESIAN_POINT('',(-0.10725,0.002,0.006));
#1439=CARTESIAN_POINT('',(0.,0.0075,0.006));
#1440=CARTESIAN_POINT('',(0.,0.0075,0.0045));
#1441=CARTESIAN_POINT('',(0.,0.0075,0.0045));
#1442=MECHANICAL_DESIGN_GEOMETRIC_PRESENTATION_REPRESENTATION('',(#891),
#1443);
#1443=(
GEOMETRIC_REPRESENTATION_CONTEXT(3)
GLOBAL_UNCERTAINTY_ASSIGNED_CONTEXT((#1444))
GLOBAL_UNIT_ASSIGNED_CONTEXT((#1447,#1446,#1445))
REPRESENTATION_CONTEXT('Part 1','TOP_LEVEL_ASSEMBLY_PART')
);
#1444=UNCERTAINTY_MEASURE_WITH_UNIT(LENGTH_MEASURE(1.E-8),#1447,
'DISTANCE_ACCURACY_VALUE','Maximum Tolerance applied to model');
#1445=(
NAMED_UNIT(*)
SI_UNIT($,.STERADIAN.)
SOLID_ANGLE_UNIT()
);
#1446=(
NAMED_UNIT(*)
PLANE_ANGLE_UNIT()
SI_UNIT($,.RADIAN.)
);
#1447=(
LENGTH_UNIT()
NAMED_UNIT(*)
SI_UNIT($,.METRE.)
);
#1448=PRODUCT_DEFINITION_SHAPE('','',#1449);
#1449=PRODUCT_DEFINITION('','',#1451,#1450);
#1450=PRODUCT_DEFINITION_CONTEXT('',#1457,'design');
#1451=PRODUCT_DEFINITION_FORMATION_WITH_SPECIFIED_SOURCE('','',#1453,
 .NOT_KNOWN.);
#1452=PRODUCT_RELATED_PRODUCT_CATEGORY('','',(#1453));
#1453=PRODUCT('Part 1','Part 1','Part 1',(#1455));
#1454=PRODUCT_CATEGORY('','');
#1455=PRODUCT_CONTEXT('',#1457,'mechanical');
#1456=APPLICATION_PROTOCOL_DEFINITION('international standard',
'ap242_managed_model_based_3d_engineering',2011,#1457);
#1457=APPLICATION_CONTEXT('managed model based 3d engineering');
ENDSEC;
END-ISO-10303-21;
