ISO-10303-21;
HEADER;
/* Generated by software containing ST-Developer
 * from STEP Tools, Inc. (www.steptools.com) 
 */
/* OPTION: using custom renumber hook */

FILE_DESCRIPTION(
/* description */ ('STEP AP242',
'CAx-IF Rec.Pracs.---Representation and Presentation of Product Manufa
cturing Information (PMI)---4.0---2014-10-13',
'CAx-IF Rec.Pracs.---3D Tessellated Geometry---0.4---2014-09-14','2;1'),

/* implementation_level */ '2;1');

FILE_NAME(
/* name */ '67dc44dea2ea0a78a6f134f6',
/* time_stamp */ '2025-03-20T16:39:58Z',
/* author */ (''),
/* organization */ (''),
/* preprocessor_version */ 'ST-DEVELOPER v20',
/* originating_system */ 'ONSHAPE BY PTC INC, 1.195',
/* authorisation */ '  ');

FILE_SCHEMA (('AP242_MANAGED_MODEL_BASED_3D_ENGINEERING_MIM_LF { 1 0 10303 442 1 1 4 }'));
ENDSEC;

DATA;
#10=SHAPE_REPRESENTATION_RELATIONSHIP('','',#317,#11);
#11=ADVANCED_BREP_SHAPE_REPRESENTATION('',(#315),#515);
#12=CIRCLE('',#323,20.);
#13=CIRCLE('',#324,20.);
#14=CIRCLE('',#327,20.);
#15=CIRCLE('',#328,20.);
#16=CIRCLE('',#331,20.);
#17=CIRCLE('',#332,20.);
#18=CIRCLE('',#335,20.);
#19=CIRCLE('',#336,20.);
#20=CYLINDRICAL_SURFACE('',#322,20.);
#21=CYLINDRICAL_SURFACE('',#326,20.);
#22=CYLINDRICAL_SURFACE('',#330,20.);
#23=CYLINDRICAL_SURFACE('',#334,20.);
#24=ORIENTED_EDGE('',*,*,#108,.T.);
#25=ORIENTED_EDGE('',*,*,#109,.F.);
#26=ORIENTED_EDGE('',*,*,#110,.F.);
#27=ORIENTED_EDGE('',*,*,#111,.T.);
#28=ORIENTED_EDGE('',*,*,#112,.T.);
#29=ORIENTED_EDGE('',*,*,#113,.F.);
#30=ORIENTED_EDGE('',*,*,#114,.F.);
#31=ORIENTED_EDGE('',*,*,#109,.T.);
#32=ORIENTED_EDGE('',*,*,#115,.T.);
#33=ORIENTED_EDGE('',*,*,#116,.F.);
#34=ORIENTED_EDGE('',*,*,#117,.F.);
#35=ORIENTED_EDGE('',*,*,#113,.T.);
#36=ORIENTED_EDGE('',*,*,#118,.T.);
#37=ORIENTED_EDGE('',*,*,#119,.F.);
#38=ORIENTED_EDGE('',*,*,#120,.F.);
#39=ORIENTED_EDGE('',*,*,#116,.T.);
#40=ORIENTED_EDGE('',*,*,#121,.F.);
#41=ORIENTED_EDGE('',*,*,#122,.F.);
#42=ORIENTED_EDGE('',*,*,#123,.T.);
#43=ORIENTED_EDGE('',*,*,#119,.T.);
#44=ORIENTED_EDGE('',*,*,#124,.T.);
#45=ORIENTED_EDGE('',*,*,#125,.F.);
#46=ORIENTED_EDGE('',*,*,#126,.F.);
#47=ORIENTED_EDGE('',*,*,#122,.T.);
#48=ORIENTED_EDGE('',*,*,#127,.F.);
#49=ORIENTED_EDGE('',*,*,#128,.F.);
#50=ORIENTED_EDGE('',*,*,#129,.T.);
#51=ORIENTED_EDGE('',*,*,#125,.T.);
#52=ORIENTED_EDGE('',*,*,#130,.T.);
#53=ORIENTED_EDGE('',*,*,#131,.F.);
#54=ORIENTED_EDGE('',*,*,#132,.F.);
#55=ORIENTED_EDGE('',*,*,#128,.T.);
#56=ORIENTED_EDGE('',*,*,#133,.T.);
#57=ORIENTED_EDGE('',*,*,#134,.F.);
#58=ORIENTED_EDGE('',*,*,#135,.F.);
#59=ORIENTED_EDGE('',*,*,#131,.T.);
#60=ORIENTED_EDGE('',*,*,#136,.T.);
#61=ORIENTED_EDGE('',*,*,#137,.F.);
#62=ORIENTED_EDGE('',*,*,#138,.F.);
#63=ORIENTED_EDGE('',*,*,#134,.T.);
#64=ORIENTED_EDGE('',*,*,#139,.T.);
#65=ORIENTED_EDGE('',*,*,#140,.F.);
#66=ORIENTED_EDGE('',*,*,#141,.F.);
#67=ORIENTED_EDGE('',*,*,#137,.T.);
#68=ORIENTED_EDGE('',*,*,#142,.F.);
#69=ORIENTED_EDGE('',*,*,#143,.F.);
#70=ORIENTED_EDGE('',*,*,#144,.T.);
#71=ORIENTED_EDGE('',*,*,#140,.T.);
#72=ORIENTED_EDGE('',*,*,#145,.F.);
#73=ORIENTED_EDGE('',*,*,#146,.F.);
#74=ORIENTED_EDGE('',*,*,#147,.T.);
#75=ORIENTED_EDGE('',*,*,#143,.T.);
#76=ORIENTED_EDGE('',*,*,#148,.T.);
#77=ORIENTED_EDGE('',*,*,#111,.F.);
#78=ORIENTED_EDGE('',*,*,#149,.F.);
#79=ORIENTED_EDGE('',*,*,#146,.T.);
#80=ORIENTED_EDGE('',*,*,#110,.T.);
#81=ORIENTED_EDGE('',*,*,#114,.T.);
#82=ORIENTED_EDGE('',*,*,#117,.T.);
#83=ORIENTED_EDGE('',*,*,#120,.T.);
#84=ORIENTED_EDGE('',*,*,#123,.F.);
#85=ORIENTED_EDGE('',*,*,#126,.T.);
#86=ORIENTED_EDGE('',*,*,#129,.F.);
#87=ORIENTED_EDGE('',*,*,#132,.T.);
#88=ORIENTED_EDGE('',*,*,#135,.T.);
#89=ORIENTED_EDGE('',*,*,#138,.T.);
#90=ORIENTED_EDGE('',*,*,#141,.T.);
#91=ORIENTED_EDGE('',*,*,#144,.F.);
#92=ORIENTED_EDGE('',*,*,#147,.F.);
#93=ORIENTED_EDGE('',*,*,#149,.T.);
#94=ORIENTED_EDGE('',*,*,#108,.F.);
#95=ORIENTED_EDGE('',*,*,#148,.F.);
#96=ORIENTED_EDGE('',*,*,#145,.T.);
#97=ORIENTED_EDGE('',*,*,#142,.T.);
#98=ORIENTED_EDGE('',*,*,#139,.F.);
#99=ORIENTED_EDGE('',*,*,#136,.F.);
#100=ORIENTED_EDGE('',*,*,#133,.F.);
#101=ORIENTED_EDGE('',*,*,#130,.F.);
#102=ORIENTED_EDGE('',*,*,#127,.T.);
#103=ORIENTED_EDGE('',*,*,#124,.F.);
#104=ORIENTED_EDGE('',*,*,#121,.T.);
#105=ORIENTED_EDGE('',*,*,#118,.F.);
#106=ORIENTED_EDGE('',*,*,#115,.F.);
#107=ORIENTED_EDGE('',*,*,#112,.F.);
#108=EDGE_CURVE('',#150,#151,#178,.T.);
#109=EDGE_CURVE('',#152,#151,#179,.T.);
#110=EDGE_CURVE('',#153,#152,#180,.T.);
#111=EDGE_CURVE('',#153,#150,#181,.T.);
#112=EDGE_CURVE('',#151,#154,#182,.T.);
#113=EDGE_CURVE('',#155,#154,#183,.T.);
#114=EDGE_CURVE('',#152,#155,#184,.T.);
#115=EDGE_CURVE('',#154,#156,#185,.T.);
#116=EDGE_CURVE('',#157,#156,#186,.T.);
#117=EDGE_CURVE('',#155,#157,#187,.T.);
#118=EDGE_CURVE('',#156,#158,#12,.T.);
#119=EDGE_CURVE('',#159,#158,#188,.T.);
#120=EDGE_CURVE('',#157,#159,#13,.T.);
#121=EDGE_CURVE('',#160,#158,#189,.T.);
#122=EDGE_CURVE('',#161,#160,#190,.T.);
#123=EDGE_CURVE('',#161,#159,#191,.T.);
#124=EDGE_CURVE('',#160,#162,#14,.T.);
#125=EDGE_CURVE('',#163,#162,#192,.T.);
#126=EDGE_CURVE('',#161,#163,#15,.T.);
#127=EDGE_CURVE('',#164,#162,#193,.T.);
#128=EDGE_CURVE('',#165,#164,#194,.T.);
#129=EDGE_CURVE('',#165,#163,#195,.T.);
#130=EDGE_CURVE('',#164,#166,#16,.T.);
#131=EDGE_CURVE('',#167,#166,#196,.T.);
#132=EDGE_CURVE('',#165,#167,#17,.T.);
#133=EDGE_CURVE('',#166,#168,#197,.T.);
#134=EDGE_CURVE('',#169,#168,#198,.T.);
#135=EDGE_CURVE('',#167,#169,#199,.T.);
#136=EDGE_CURVE('',#168,#170,#18,.T.);
#137=EDGE_CURVE('',#171,#170,#200,.T.);
#138=EDGE_CURVE('',#169,#171,#19,.T.);
#139=EDGE_CURVE('',#170,#172,#201,.T.);
#140=EDGE_CURVE('',#173,#172,#202,.T.);
#141=EDGE_CURVE('',#171,#173,#203,.T.);
#142=EDGE_CURVE('',#174,#172,#204,.T.);
#143=EDGE_CURVE('',#175,#174,#205,.T.);
#144=EDGE_CURVE('',#175,#173,#206,.T.);
#145=EDGE_CURVE('',#176,#174,#207,.T.);
#146=EDGE_CURVE('',#177,#176,#208,.T.);
#147=EDGE_CURVE('',#177,#175,#209,.T.);
#148=EDGE_CURVE('',#176,#150,#210,.T.);
#149=EDGE_CURVE('',#177,#153,#211,.T.);
#150=VERTEX_POINT('',#430);
#151=VERTEX_POINT('',#431);
#152=VERTEX_POINT('',#433);
#153=VERTEX_POINT('',#435);
#154=VERTEX_POINT('',#439);
#155=VERTEX_POINT('',#441);
#156=VERTEX_POINT('',#445);
#157=VERTEX_POINT('',#447);
#158=VERTEX_POINT('',#451);
#159=VERTEX_POINT('',#453);
#160=VERTEX_POINT('',#457);
#161=VERTEX_POINT('',#459);
#162=VERTEX_POINT('',#463);
#163=VERTEX_POINT('',#465);
#164=VERTEX_POINT('',#469);
#165=VERTEX_POINT('',#471);
#166=VERTEX_POINT('',#475);
#167=VERTEX_POINT('',#477);
#168=VERTEX_POINT('',#481);
#169=VERTEX_POINT('',#483);
#170=VERTEX_POINT('',#487);
#171=VERTEX_POINT('',#489);
#172=VERTEX_POINT('',#493);
#173=VERTEX_POINT('',#495);
#174=VERTEX_POINT('',#499);
#175=VERTEX_POINT('',#501);
#176=VERTEX_POINT('',#505);
#177=VERTEX_POINT('',#507);
#178=LINE('',#429,#212);
#179=LINE('',#432,#213);
#180=LINE('',#434,#214);
#181=LINE('',#436,#215);
#182=LINE('',#438,#216);
#183=LINE('',#440,#217);
#184=LINE('',#442,#218);
#185=LINE('',#444,#219);
#186=LINE('',#446,#220);
#187=LINE('',#448,#221);
#188=LINE('',#452,#222);
#189=LINE('',#456,#223);
#190=LINE('',#458,#224);
#191=LINE('',#460,#225);
#192=LINE('',#464,#226);
#193=LINE('',#468,#227);
#194=LINE('',#470,#228);
#195=LINE('',#472,#229);
#196=LINE('',#476,#230);
#197=LINE('',#480,#231);
#198=LINE('',#482,#232);
#199=LINE('',#484,#233);
#200=LINE('',#488,#234);
#201=LINE('',#492,#235);
#202=LINE('',#494,#236);
#203=LINE('',#496,#237);
#204=LINE('',#498,#238);
#205=LINE('',#500,#239);
#206=LINE('',#502,#240);
#207=LINE('',#504,#241);
#208=LINE('',#506,#242);
#209=LINE('',#508,#243);
#210=LINE('',#510,#244);
#211=LINE('',#511,#245);
#212=VECTOR('',#347,1000.);
#213=VECTOR('',#348,1000.);
#214=VECTOR('',#349,1000.);
#215=VECTOR('',#350,1000.);
#216=VECTOR('',#353,1000.);
#217=VECTOR('',#354,1000.);
#218=VECTOR('',#355,1000.);
#219=VECTOR('',#358,1000.);
#220=VECTOR('',#359,1000.);
#221=VECTOR('',#360,1000.);
#222=VECTOR('',#365,1000.);
#223=VECTOR('',#370,1000.);
#224=VECTOR('',#371,1000.);
#225=VECTOR('',#372,1000.);
#226=VECTOR('',#377,1000.);
#227=VECTOR('',#382,1000.);
#228=VECTOR('',#383,1000.);
#229=VECTOR('',#384,1000.);
#230=VECTOR('',#389,1000.);
#231=VECTOR('',#394,1000.);
#232=VECTOR('',#395,1000.);
#233=VECTOR('',#396,1000.);
#234=VECTOR('',#401,1000.);
#235=VECTOR('',#406,1000.);
#236=VECTOR('',#407,1000.);
#237=VECTOR('',#408,1000.);
#238=VECTOR('',#411,1000.);
#239=VECTOR('',#412,1000.);
#240=VECTOR('',#413,1000.);
#241=VECTOR('',#416,1000.);
#242=VECTOR('',#417,1000.);
#243=VECTOR('',#418,1000.);
#244=VECTOR('',#421,1000.);
#245=VECTOR('',#422,1000.);
#246=EDGE_LOOP('',(#24,#25,#26,#27));
#247=EDGE_LOOP('',(#28,#29,#30,#31));
#248=EDGE_LOOP('',(#32,#33,#34,#35));
#249=EDGE_LOOP('',(#36,#37,#38,#39));
#250=EDGE_LOOP('',(#40,#41,#42,#43));
#251=EDGE_LOOP('',(#44,#45,#46,#47));
#252=EDGE_LOOP('',(#48,#49,#50,#51));
#253=EDGE_LOOP('',(#52,#53,#54,#55));
#254=EDGE_LOOP('',(#56,#57,#58,#59));
#255=EDGE_LOOP('',(#60,#61,#62,#63));
#256=EDGE_LOOP('',(#64,#65,#66,#67));
#257=EDGE_LOOP('',(#68,#69,#70,#71));
#258=EDGE_LOOP('',(#72,#73,#74,#75));
#259=EDGE_LOOP('',(#76,#77,#78,#79));
#260=EDGE_LOOP('',(#80,#81,#82,#83,#84,#85,#86,#87,#88,#89,#90,#91,#92,
#93));
#261=EDGE_LOOP('',(#94,#95,#96,#97,#98,#99,#100,#101,#102,#103,#104,#105,
#106,#107));
#262=FACE_BOUND('',#246,.T.);
#263=FACE_BOUND('',#247,.T.);
#264=FACE_BOUND('',#248,.T.);
#265=FACE_BOUND('',#249,.T.);
#266=FACE_BOUND('',#250,.T.);
#267=FACE_BOUND('',#251,.T.);
#268=FACE_BOUND('',#252,.T.);
#269=FACE_BOUND('',#253,.T.);
#270=FACE_BOUND('',#254,.T.);
#271=FACE_BOUND('',#255,.T.);
#272=FACE_BOUND('',#256,.T.);
#273=FACE_BOUND('',#257,.T.);
#274=FACE_BOUND('',#258,.T.);
#275=FACE_BOUND('',#259,.T.);
#276=FACE_BOUND('',#260,.T.);
#277=FACE_BOUND('',#261,.T.);
#278=PLANE('',#319);
#279=PLANE('',#320);
#280=PLANE('',#321);
#281=PLANE('',#325);
#282=PLANE('',#329);
#283=PLANE('',#333);
#284=PLANE('',#337);
#285=PLANE('',#338);
#286=PLANE('',#339);
#287=PLANE('',#340);
#288=PLANE('',#341);
#289=PLANE('',#342);
#290=ADVANCED_FACE('',(#262),#278,.F.);
#291=ADVANCED_FACE('',(#263),#279,.F.);
#292=ADVANCED_FACE('',(#264),#280,.F.);
#293=ADVANCED_FACE('',(#265),#20,.T.);
#294=ADVANCED_FACE('',(#266),#281,.T.);
#295=ADVANCED_FACE('',(#267),#21,.T.);
#296=ADVANCED_FACE('',(#268),#282,.T.);
#297=ADVANCED_FACE('',(#269),#22,.T.);
#298=ADVANCED_FACE('',(#270),#283,.F.);
#299=ADVANCED_FACE('',(#271),#23,.T.);
#300=ADVANCED_FACE('',(#272),#284,.F.);
#301=ADVANCED_FACE('',(#273),#285,.T.);
#302=ADVANCED_FACE('',(#274),#286,.T.);
#303=ADVANCED_FACE('',(#275),#287,.F.);
#304=ADVANCED_FACE('',(#276),#288,.T.);
#305=ADVANCED_FACE('',(#277),#289,.F.);
#306=CLOSED_SHELL('',(#290,#291,#292,#293,#294,#295,#296,#297,#298,#299,
#300,#301,#302,#303,#304,#305));
#307=STYLED_ITEM('',(#308),#315);
#308=PRESENTATION_STYLE_ASSIGNMENT((#309));
#309=SURFACE_STYLE_USAGE(.BOTH.,#310);
#310=SURFACE_SIDE_STYLE('',(#311));
#311=SURFACE_STYLE_FILL_AREA(#312);
#312=FILL_AREA_STYLE('',(#313));
#313=FILL_AREA_STYLE_COLOUR('',#314);
#314=COLOUR_RGB('',0.615686274509804,0.811764705882353,0.929411764705882);
#315=MANIFOLD_SOLID_BREP('Part 1',#306);
#316=SHAPE_DEFINITION_REPRESENTATION(#520,#317);
#317=SHAPE_REPRESENTATION('Part 1',(#318),#515);
#318=AXIS2_PLACEMENT_3D('',#427,#343,#344);
#319=AXIS2_PLACEMENT_3D('',#428,#345,#346);
#320=AXIS2_PLACEMENT_3D('',#437,#351,#352);
#321=AXIS2_PLACEMENT_3D('',#443,#356,#357);
#322=AXIS2_PLACEMENT_3D('',#449,#361,#362);
#323=AXIS2_PLACEMENT_3D('',#450,#363,#364);
#324=AXIS2_PLACEMENT_3D('',#454,#366,#367);
#325=AXIS2_PLACEMENT_3D('',#455,#368,#369);
#326=AXIS2_PLACEMENT_3D('',#461,#373,#374);
#327=AXIS2_PLACEMENT_3D('',#462,#375,#376);
#328=AXIS2_PLACEMENT_3D('',#466,#378,#379);
#329=AXIS2_PLACEMENT_3D('',#467,#380,#381);
#330=AXIS2_PLACEMENT_3D('',#473,#385,#386);
#331=AXIS2_PLACEMENT_3D('',#474,#387,#388);
#332=AXIS2_PLACEMENT_3D('',#478,#390,#391);
#333=AXIS2_PLACEMENT_3D('',#479,#392,#393);
#334=AXIS2_PLACEMENT_3D('',#485,#397,#398);
#335=AXIS2_PLACEMENT_3D('',#486,#399,#400);
#336=AXIS2_PLACEMENT_3D('',#490,#402,#403);
#337=AXIS2_PLACEMENT_3D('',#491,#404,#405);
#338=AXIS2_PLACEMENT_3D('',#497,#409,#410);
#339=AXIS2_PLACEMENT_3D('',#503,#414,#415);
#340=AXIS2_PLACEMENT_3D('',#509,#419,#420);
#341=AXIS2_PLACEMENT_3D('',#512,#423,#424);
#342=AXIS2_PLACEMENT_3D('',#513,#425,#426);
#343=DIRECTION('',(0.,0.,1.));
#344=DIRECTION('',(1.,0.,0.));
#345=DIRECTION('',(0.,0.,1.));
#346=DIRECTION('',(0.,-1.,0.));
#347=DIRECTION('',(-1.,0.,0.));
#348=DIRECTION('',(0.,-1.,0.));
#349=DIRECTION('',(-1.,0.,0.));
#350=DIRECTION('',(0.,-1.,0.));
#351=DIRECTION('',(-1.,0.,0.));
#352=DIRECTION('',(0.,1.,0.));
#353=DIRECTION('',(0.,0.,-1.));
#354=DIRECTION('',(0.,-1.,0.));
#355=DIRECTION('',(0.,0.,-1.));
#356=DIRECTION('',(0.,0.,-1.));
#357=DIRECTION('',(0.,1.,0.));
#358=DIRECTION('',(1.,0.,0.));
#359=DIRECTION('',(0.,-1.,0.));
#360=DIRECTION('',(1.,0.,0.));
#361=DIRECTION('',(0.,-1.,0.));
#362=DIRECTION('',(-1.,0.,0.));
#363=DIRECTION('',(0.,1.,0.));
#364=DIRECTION('',(1.,0.,0.));
#365=DIRECTION('',(0.,-1.,0.));
#366=DIRECTION('',(0.,1.,0.));
#367=DIRECTION('',(1.,0.,0.));
#368=DIRECTION('',(0.,0.,-1.));
#369=DIRECTION('',(0.,1.,0.));
#370=DIRECTION('',(1.,0.,0.));
#371=DIRECTION('',(0.,-1.,0.));
#372=DIRECTION('',(1.,0.,0.));
#373=DIRECTION('',(0.,-1.,0.));
#374=DIRECTION('',(-1.,0.,0.));
#375=DIRECTION('',(0.,1.,0.));
#376=DIRECTION('',(1.,0.,0.));
#377=DIRECTION('',(0.,-1.,0.));
#378=DIRECTION('',(0.,1.,0.));
#379=DIRECTION('',(1.,0.,0.));
#380=DIRECTION('',(-1.,0.,-9.08810882989619E-16));
#381=DIRECTION('',(-9.08810882989619E-16,0.,1.));
#382=DIRECTION('',(9.08810882989619E-16,0.,-1.));
#383=DIRECTION('',(0.,-1.,0.));
#384=DIRECTION('',(9.08810882989619E-16,0.,-1.));
#385=DIRECTION('',(0.,-1.,0.));
#386=DIRECTION('',(-1.,0.,0.));
#387=DIRECTION('',(0.,1.,0.));
#388=DIRECTION('',(1.,0.,0.));
#389=DIRECTION('',(0.,-1.,0.));
#390=DIRECTION('',(0.,1.,0.));
#391=DIRECTION('',(1.,0.,0.));
#392=DIRECTION('',(0.,0.,-1.));
#393=DIRECTION('',(0.,1.,0.));
#394=DIRECTION('',(1.,0.,0.));
#395=DIRECTION('',(0.,-1.,0.));
#396=DIRECTION('',(1.,0.,0.));
#397=DIRECTION('',(0.,-1.,0.));
#398=DIRECTION('',(-1.,0.,0.));
#399=DIRECTION('',(0.,1.,0.));
#400=DIRECTION('',(1.,0.,0.));
#401=DIRECTION('',(0.,-1.,0.));
#402=DIRECTION('',(0.,1.,0.));
#403=DIRECTION('',(1.,0.,0.));
#404=DIRECTION('',(0.,0.,1.));
#405=DIRECTION('',(0.,-1.,0.));
#406=DIRECTION('',(-1.,0.,0.));
#407=DIRECTION('',(0.,-1.,0.));
#408=DIRECTION('',(-1.,0.,0.));
#409=DIRECTION('',(1.,0.,0.));
#410=DIRECTION('',(0.,-1.,0.));
#411=DIRECTION('',(0.,0.,1.));
#412=DIRECTION('',(0.,-1.,0.));
#413=DIRECTION('',(0.,0.,1.));
#414=DIRECTION('',(0.,0.,1.));
#415=DIRECTION('',(0.,-1.,0.));
#416=DIRECTION('',(-1.,0.,0.));
#417=DIRECTION('',(0.,-1.,0.));
#418=DIRECTION('',(-1.,0.,0.));
#419=DIRECTION('',(-1.,0.,-7.79651000439015E-17));
#420=DIRECTION('',(-7.79651000439015E-17,0.,1.));
#421=DIRECTION('',(7.79651000439015E-17,0.,-1.));
#422=DIRECTION('',(7.79651000439015E-17,0.,-1.));
#423=DIRECTION('',(0.,1.,0.));
#424=DIRECTION('',(1.,0.,0.));
#425=DIRECTION('',(0.,1.,0.));
#426=DIRECTION('',(1.,0.,0.));
#427=CARTESIAN_POINT('',(0.,0.,0.));
#428=CARTESIAN_POINT('',(19.,6.,-109.25));
#429=CARTESIAN_POINT('',(19.,0.,-109.25));
#430=CARTESIAN_POINT('',(20.,0.,-109.25));
#431=CARTESIAN_POINT('',(18.,0.,-109.25));
#432=CARTESIAN_POINT('',(18.,6.,-109.25));
#433=CARTESIAN_POINT('',(18.,6.,-109.25));
#434=CARTESIAN_POINT('',(19.,6.,-109.25));
#435=CARTESIAN_POINT('',(20.,6.,-109.25));
#436=CARTESIAN_POINT('',(20.,6.,-109.25));
#437=CARTESIAN_POINT('',(18.,6.,-119.25));
#438=CARTESIAN_POINT('',(18.,0.,-119.25));
#439=CARTESIAN_POINT('',(18.,0.,-129.25));
#440=CARTESIAN_POINT('',(18.,6.,-129.25));
#441=CARTESIAN_POINT('',(18.,6.,-129.25));
#442=CARTESIAN_POINT('',(18.,6.,-119.25));
#443=CARTESIAN_POINT('',(19.,6.,-129.25));
#444=CARTESIAN_POINT('',(19.,0.,-129.25));
#445=CARTESIAN_POINT('',(60.,0.,-129.25));
#446=CARTESIAN_POINT('',(60.,6.,-129.25));
#447=CARTESIAN_POINT('',(60.,6.,-129.25));
#448=CARTESIAN_POINT('',(19.,6.,-129.25));
#449=CARTESIAN_POINT('',(40.,6.,-129.25));
#450=CARTESIAN_POINT('',(40.,0.,-129.25));
#451=CARTESIAN_POINT('',(40.,0.,-149.25));
#452=CARTESIAN_POINT('',(40.,6.,-149.25));
#453=CARTESIAN_POINT('',(40.,6.,-149.25));
#454=CARTESIAN_POINT('',(40.,6.,-129.25));
#455=CARTESIAN_POINT('',(30.,6.,-149.25));
#456=CARTESIAN_POINT('',(30.,0.,-149.25));
#457=CARTESIAN_POINT('',(20.,0.,-149.25));
#458=CARTESIAN_POINT('',(20.,6.,-149.25));
#459=CARTESIAN_POINT('',(20.,6.,-149.25));
#460=CARTESIAN_POINT('',(30.,6.,-149.25));
#461=CARTESIAN_POINT('',(20.,6.,-129.25));
#462=CARTESIAN_POINT('',(20.,0.,-129.25));
#463=CARTESIAN_POINT('',(1.17463806626408E-13,0.,-129.25));
#464=CARTESIAN_POINT('',(1.17463806626408E-13,6.,-129.25));
#465=CARTESIAN_POINT('',(1.17463806626408E-13,6.,-129.25));
#466=CARTESIAN_POINT('',(20.,6.,-129.25));
#467=CARTESIAN_POINT('',(5.87319033132042E-14,6.,-64.625));
#468=CARTESIAN_POINT('',(5.87319033132042E-14,0.,-64.625));
#469=CARTESIAN_POINT('',(1.14491749414469E-13,0.,129.25));
#470=CARTESIAN_POINT('',(1.14491749414469E-13,6.,129.25));
#471=CARTESIAN_POINT('',(1.14491749414469E-13,6.,129.25));
#472=CARTESIAN_POINT('',(5.87319033132042E-14,6.,-64.625));
#473=CARTESIAN_POINT('',(20.,6.,129.25));
#474=CARTESIAN_POINT('',(20.,0.,129.25));
#475=CARTESIAN_POINT('',(20.,0.,149.25));
#476=CARTESIAN_POINT('',(20.,6.,149.25));
#477=CARTESIAN_POINT('',(20.,6.,149.25));
#478=CARTESIAN_POINT('',(20.,6.,129.25));
#479=CARTESIAN_POINT('',(30.,6.,149.25));
#480=CARTESIAN_POINT('',(30.,0.,149.25));
#481=CARTESIAN_POINT('',(40.,0.,149.25));
#482=CARTESIAN_POINT('',(40.,6.,149.25));
#483=CARTESIAN_POINT('',(40.,6.,149.25));
#484=CARTESIAN_POINT('',(30.,6.,149.25));
#485=CARTESIAN_POINT('',(40.,6.,129.25));
#486=CARTESIAN_POINT('',(40.,0.,129.25));
#487=CARTESIAN_POINT('',(60.,0.,129.25));
#488=CARTESIAN_POINT('',(60.,6.,129.25));
#489=CARTESIAN_POINT('',(60.,6.,129.25));
#490=CARTESIAN_POINT('',(40.,6.,129.25));
#491=CARTESIAN_POINT('',(40.,6.,129.25));
#492=CARTESIAN_POINT('',(40.,0.,129.25));
#493=CARTESIAN_POINT('',(18.,0.,129.25));
#494=CARTESIAN_POINT('',(18.,6.,129.25));
#495=CARTESIAN_POINT('',(18.,6.,129.25));
#496=CARTESIAN_POINT('',(40.,6.,129.25));
#497=CARTESIAN_POINT('',(18.,6.,119.25));
#498=CARTESIAN_POINT('',(18.,0.,119.25));
#499=CARTESIAN_POINT('',(18.,0.,109.25));
#500=CARTESIAN_POINT('',(18.,6.,109.25));
#501=CARTESIAN_POINT('',(18.,6.,109.25));
#502=CARTESIAN_POINT('',(18.,6.,119.25));
#503=CARTESIAN_POINT('',(19.,6.,109.25));
#504=CARTESIAN_POINT('',(19.,0.,109.25));
#505=CARTESIAN_POINT('',(20.,0.,109.25));
#506=CARTESIAN_POINT('',(20.,6.,109.25));
#507=CARTESIAN_POINT('',(20.,6.,109.25));
#508=CARTESIAN_POINT('',(19.,6.,109.25));
#509=CARTESIAN_POINT('',(20.,6.,87.));
#510=CARTESIAN_POINT('',(20.,0.,87.));
#511=CARTESIAN_POINT('',(20.,6.,87.));
#512=CARTESIAN_POINT('',(30.,6.,0.));
#513=CARTESIAN_POINT('',(30.,0.,0.));
#514=MECHANICAL_DESIGN_GEOMETRIC_PRESENTATION_REPRESENTATION('',(#307),
#515);
#515=(
GEOMETRIC_REPRESENTATION_CONTEXT(3)
GLOBAL_UNCERTAINTY_ASSIGNED_CONTEXT((#516))
GLOBAL_UNIT_ASSIGNED_CONTEXT((#519,#518,#517))
REPRESENTATION_CONTEXT('Part 1','TOP_LEVEL_ASSEMBLY_PART')
);
#516=UNCERTAINTY_MEASURE_WITH_UNIT(LENGTH_MEASURE(1.E-5),#519,
'DISTANCE_ACCURACY_VALUE','Maximum Tolerance applied to model');
#517=(
NAMED_UNIT(*)
SI_UNIT($,.STERADIAN.)
SOLID_ANGLE_UNIT()
);
#518=(
NAMED_UNIT(*)
PLANE_ANGLE_UNIT()
SI_UNIT($,.RADIAN.)
);
#519=(
LENGTH_UNIT()
NAMED_UNIT(*)
SI_UNIT(.MILLI.,.METRE.)
);
#520=PRODUCT_DEFINITION_SHAPE('','',#521);
#521=PRODUCT_DEFINITION('','',#523,#522);
#522=PRODUCT_DEFINITION_CONTEXT('',#529,'design');
#523=PRODUCT_DEFINITION_FORMATION_WITH_SPECIFIED_SOURCE('','',#525,
 .NOT_KNOWN.);
#524=PRODUCT_RELATED_PRODUCT_CATEGORY('','',(#525));
#525=PRODUCT('Part 1','Part 1','Part 1',(#527));
#526=PRODUCT_CATEGORY('','');
#527=PRODUCT_CONTEXT('',#529,'mechanical');
#528=APPLICATION_PROTOCOL_DEFINITION('international standard',
'ap242_managed_model_based_3d_engineering',2011,#529);
#529=APPLICATION_CONTEXT('managed model based 3d engineering');
ENDSEC;
END-ISO-10303-21;
