ISO-10303-21;
HEADER;
/* Generated by software containing ST-Developer
 * from STEP Tools, Inc. (www.steptools.com) 
 */
/* OPTION: using custom renumber hook */

FILE_DESCRIPTION(
/* description */ ('STEP AP242',
'CAx-IF Rec.Pracs.---Representation and Presentation of Product Manufa
cturing Information (PMI)---4.0---2014-10-13',
'CAx-IF Rec.Pracs.---3D Tessellated Geometry---0.4---2014-09-14','2;1'),

/* implementation_level */ '2;1');

FILE_NAME(
/* name */ '67dc460b85a28f0466de6d44',
/* time_stamp */ '2025-03-20T16:44:59Z',
/* author */ (''),
/* organization */ (''),
/* preprocessor_version */ 'ST-DEVELOPER v20',
/* originating_system */ 'ONSHAPE BY PTC INC, 1.195',
/* authorisation */ '  ');

FILE_SCHEMA (('AP242_MANAGED_MODEL_BASED_3D_ENGINEERING_MIM_LF { 1 0 10303 442 1 1 4 }'));
ENDSEC;

DATA;
#10=SHAPE_REPRESENTATION_RELATIONSHIP('','',#170,#11);
#11=ADVANCED_BREP_SHAPE_REPRESENTATION('',(#168),#277);
#12=TOROIDAL_SURFACE('',#187,0.023,0.001);
#13=CYLINDRICAL_SURFACE('',#179,0.022);
#14=CYLINDRICAL_SURFACE('',#182,0.024);
#15=CIRCLE('',#177,0.024);
#16=CIRCLE('',#180,0.022);
#17=CIRCLE('',#181,0.022);
#18=CIRCLE('',#183,0.024);
#19=CIRCLE('',#185,0.023);
#20=ORIENTED_EDGE('',*,*,#54,.F.);
#21=ORIENTED_EDGE('',*,*,#55,.F.);
#22=ORIENTED_EDGE('',*,*,#56,.T.);
#23=ORIENTED_EDGE('',*,*,#57,.T.);
#24=ORIENTED_EDGE('',*,*,#58,.T.);
#25=ORIENTED_EDGE('',*,*,#59,.F.);
#26=ORIENTED_EDGE('',*,*,#60,.F.);
#27=ORIENTED_EDGE('',*,*,#55,.T.);
#28=ORIENTED_EDGE('',*,*,#61,.T.);
#29=ORIENTED_EDGE('',*,*,#62,.F.);
#30=ORIENTED_EDGE('',*,*,#63,.F.);
#31=ORIENTED_EDGE('',*,*,#59,.T.);
#32=ORIENTED_EDGE('',*,*,#64,.F.);
#33=ORIENTED_EDGE('',*,*,#57,.F.);
#34=ORIENTED_EDGE('',*,*,#65,.T.);
#35=ORIENTED_EDGE('',*,*,#62,.T.);
#36=ORIENTED_EDGE('',*,*,#66,.T.);
#37=ORIENTED_EDGE('',*,*,#56,.F.);
#38=ORIENTED_EDGE('',*,*,#60,.T.);
#39=ORIENTED_EDGE('',*,*,#63,.T.);
#40=ORIENTED_EDGE('',*,*,#65,.F.);
#41=ORIENTED_EDGE('',*,*,#54,.T.);
#42=ORIENTED_EDGE('',*,*,#64,.T.);
#43=ORIENTED_EDGE('',*,*,#61,.F.);
#44=ORIENTED_EDGE('',*,*,#58,.F.);
#45=ORIENTED_EDGE('',*,*,#67,.T.);
#46=ORIENTED_EDGE('',*,*,#68,.T.);
#47=ORIENTED_EDGE('',*,*,#66,.F.);
#48=ORIENTED_EDGE('',*,*,#69,.F.);
#49=ORIENTED_EDGE('',*,*,#70,.T.);
#50=ORIENTED_EDGE('',*,*,#69,.T.);
#51=ORIENTED_EDGE('',*,*,#68,.F.);
#52=ORIENTED_EDGE('',*,*,#70,.F.);
#53=ORIENTED_EDGE('',*,*,#67,.F.);
#54=EDGE_CURVE('',#71,#72,#84,.T.);
#55=EDGE_CURVE('',#73,#71,#85,.T.);
#56=EDGE_CURVE('',#73,#74,#86,.T.);
#57=EDGE_CURVE('',#74,#72,#87,.T.);
#58=EDGE_CURVE('',#71,#75,#88,.T.);
#59=EDGE_CURVE('',#76,#75,#89,.T.);
#60=EDGE_CURVE('',#73,#76,#90,.T.);
#61=EDGE_CURVE('',#75,#77,#91,.T.);
#62=EDGE_CURVE('',#78,#77,#92,.T.);
#63=EDGE_CURVE('',#76,#78,#93,.T.);
#64=EDGE_CURVE('',#72,#77,#94,.T.);
#65=EDGE_CURVE('',#74,#78,#95,.T.);
#66=EDGE_CURVE('',#79,#79,#15,.F.);
#67=EDGE_CURVE('',#80,#80,#16,.T.);
#68=EDGE_CURVE('',#81,#81,#17,.F.);
#69=EDGE_CURVE('',#82,#82,#18,.T.);
#70=EDGE_CURVE('',#83,#83,#19,.F.);
#71=VERTEX_POINT('',#237);
#72=VERTEX_POINT('',#238);
#73=VERTEX_POINT('',#240);
#74=VERTEX_POINT('',#242);
#75=VERTEX_POINT('',#246);
#76=VERTEX_POINT('',#248);
#77=VERTEX_POINT('',#252);
#78=VERTEX_POINT('',#254);
#79=VERTEX_POINT('',#261);
#80=VERTEX_POINT('',#265);
#81=VERTEX_POINT('',#267);
#82=VERTEX_POINT('',#270);
#83=VERTEX_POINT('',#273);
#84=LINE('',#236,#96);
#85=LINE('',#239,#97);
#86=LINE('',#241,#98);
#87=LINE('',#243,#99);
#88=LINE('',#245,#100);
#89=LINE('',#247,#101);
#90=LINE('',#249,#102);
#91=LINE('',#251,#103);
#92=LINE('',#253,#104);
#93=LINE('',#255,#105);
#94=LINE('',#257,#106);
#95=LINE('',#258,#107);
#96=VECTOR('',#192,1.);
#97=VECTOR('',#193,1.);
#98=VECTOR('',#194,1.);
#99=VECTOR('',#195,1.);
#100=VECTOR('',#198,1.);
#101=VECTOR('',#199,1.);
#102=VECTOR('',#200,1.);
#103=VECTOR('',#203,1.);
#104=VECTOR('',#204,1.);
#105=VECTOR('',#205,1.);
#106=VECTOR('',#208,1.);
#107=VECTOR('',#209,1.);
#108=EDGE_LOOP('',(#20,#21,#22,#23));
#109=EDGE_LOOP('',(#24,#25,#26,#27));
#110=EDGE_LOOP('',(#28,#29,#30,#31));
#111=EDGE_LOOP('',(#32,#33,#34,#35));
#112=EDGE_LOOP('',(#36));
#113=EDGE_LOOP('',(#37,#38,#39,#40));
#114=EDGE_LOOP('',(#41,#42,#43,#44));
#115=EDGE_LOOP('',(#45));
#116=EDGE_LOOP('',(#46));
#117=EDGE_LOOP('',(#47));
#118=EDGE_LOOP('',(#48));
#119=EDGE_LOOP('',(#49));
#120=EDGE_LOOP('',(#50));
#121=EDGE_LOOP('',(#51));
#122=EDGE_LOOP('',(#52));
#123=EDGE_LOOP('',(#53));
#124=FACE_BOUND('',#108,.T.);
#125=FACE_BOUND('',#109,.T.);
#126=FACE_BOUND('',#110,.T.);
#127=FACE_BOUND('',#111,.T.);
#128=FACE_BOUND('',#112,.T.);
#129=FACE_BOUND('',#113,.T.);
#130=FACE_BOUND('',#114,.T.);
#131=FACE_BOUND('',#115,.T.);
#132=FACE_BOUND('',#116,.T.);
#133=FACE_BOUND('',#117,.T.);
#134=FACE_BOUND('',#118,.T.);
#135=FACE_BOUND('',#119,.T.);
#136=FACE_BOUND('',#120,.T.);
#137=FACE_BOUND('',#121,.T.);
#138=FACE_BOUND('',#122,.T.);
#139=FACE_BOUND('',#123,.T.);
#140=PLANE('',#172);
#141=PLANE('',#173);
#142=PLANE('',#174);
#143=PLANE('',#175);
#144=PLANE('',#176);
#145=PLANE('',#178);
#146=PLANE('',#184);
#147=PLANE('',#186);
#148=ADVANCED_FACE('',(#124),#140,.T.);
#149=ADVANCED_FACE('',(#125),#141,.F.);
#150=ADVANCED_FACE('',(#126),#142,.F.);
#151=ADVANCED_FACE('',(#127),#143,.T.);
#152=ADVANCED_FACE('',(#128,#129),#144,.T.);
#153=ADVANCED_FACE('',(#130),#145,.F.);
#154=ADVANCED_FACE('',(#131,#132),#13,.F.);
#155=ADVANCED_FACE('',(#133,#134),#14,.T.);
#156=ADVANCED_FACE('',(#135,#136),#146,.T.);
#157=ADVANCED_FACE('',(#137),#147,.T.);
#158=ADVANCED_FACE('',(#138,#139),#12,.T.);
#159=CLOSED_SHELL('',(#148,#149,#150,#151,#152,#153,#154,#155,#156,#157,
#158));
#160=STYLED_ITEM('',(#161),#168);
#161=PRESENTATION_STYLE_ASSIGNMENT((#162));
#162=SURFACE_STYLE_USAGE(.BOTH.,#163);
#163=SURFACE_SIDE_STYLE('',(#164));
#164=SURFACE_STYLE_FILL_AREA(#165);
#165=FILL_AREA_STYLE('',(#166));
#166=FILL_AREA_STYLE_COLOUR('',#167);
#167=COLOUR_RGB('',0.615686274509804,0.811764705882353,0.929411764705882);
#168=MANIFOLD_SOLID_BREP('Part 1',#159);
#169=SHAPE_DEFINITION_REPRESENTATION(#282,#170);
#170=SHAPE_REPRESENTATION('Part 1',(#171),#277);
#171=AXIS2_PLACEMENT_3D('',#234,#188,#189);
#172=AXIS2_PLACEMENT_3D('',#235,#190,#191);
#173=AXIS2_PLACEMENT_3D('',#244,#196,#197);
#174=AXIS2_PLACEMENT_3D('',#250,#201,#202);
#175=AXIS2_PLACEMENT_3D('',#256,#206,#207);
#176=AXIS2_PLACEMENT_3D('',#259,#210,#211);
#177=AXIS2_PLACEMENT_3D('',#260,#212,#213);
#178=AXIS2_PLACEMENT_3D('',#262,#214,#215);
#179=AXIS2_PLACEMENT_3D('',#263,#216,#217);
#180=AXIS2_PLACEMENT_3D('',#264,#218,#219);
#181=AXIS2_PLACEMENT_3D('',#266,#220,#221);
#182=AXIS2_PLACEMENT_3D('',#268,#222,#223);
#183=AXIS2_PLACEMENT_3D('',#269,#224,#225);
#184=AXIS2_PLACEMENT_3D('',#271,#226,#227);
#185=AXIS2_PLACEMENT_3D('',#272,#228,#229);
#186=AXIS2_PLACEMENT_3D('',#274,#230,#231);
#187=AXIS2_PLACEMENT_3D('',#275,#232,#233);
#188=DIRECTION('',(0.,0.,1.));
#189=DIRECTION('',(1.,0.,0.));
#190=DIRECTION('',(1.,0.,0.));
#191=DIRECTION('',(0.,-1.,0.));
#192=DIRECTION('',(0.,0.,1.));
#193=DIRECTION('',(0.,-1.,0.));
#194=DIRECTION('',(0.,0.,1.));
#195=DIRECTION('',(0.,-1.,0.));
#196=DIRECTION('',(0.,0.,1.));
#197=DIRECTION('',(0.,-1.,0.));
#198=DIRECTION('',(-1.,0.,0.));
#199=DIRECTION('',(0.,-1.,0.));
#200=DIRECTION('',(-1.,0.,0.));
#201=DIRECTION('',(1.,0.,0.));
#202=DIRECTION('',(0.,-1.,0.));
#203=DIRECTION('',(0.,0.,1.));
#204=DIRECTION('',(0.,-1.,0.));
#205=DIRECTION('',(0.,0.,1.));
#206=DIRECTION('',(0.,0.,1.));
#207=DIRECTION('',(0.,-1.,0.));
#208=DIRECTION('',(-1.,0.,0.));
#209=DIRECTION('',(-1.,0.,0.));
#210=DIRECTION('',(0.,1.,0.));
#211=DIRECTION('',(1.,0.,0.));
#212=DIRECTION('',(0.,1.,0.));
#213=DIRECTION('',(1.,0.,0.));
#214=DIRECTION('',(0.,1.,0.));
#215=DIRECTION('',(1.,0.,0.));
#216=DIRECTION('',(0.,-1.,0.));
#217=DIRECTION('',(-1.,0.,0.));
#218=DIRECTION('',(0.,1.,0.));
#219=DIRECTION('',(1.,0.,0.));
#220=DIRECTION('',(0.,1.,0.));
#221=DIRECTION('',(1.,0.,0.));
#222=DIRECTION('',(0.,-1.,0.));
#223=DIRECTION('',(-1.,0.,0.));
#224=DIRECTION('',(0.,1.,0.));
#225=DIRECTION('',(1.,0.,0.));
#226=DIRECTION('',(0.,1.,0.));
#227=DIRECTION('',(1.,0.,0.));
#228=DIRECTION('',(0.,1.,0.));
#229=DIRECTION('',(1.,0.,0.));
#230=DIRECTION('',(0.,1.,0.));
#231=DIRECTION('',(1.,0.,0.));
#232=DIRECTION('',(0.,1.,0.));
#233=DIRECTION('',(1.,0.,0.));
#234=CARTESIAN_POINT('',(0.,0.,0.));
#235=CARTESIAN_POINT('',(0.025,0.002,0.));
#236=CARTESIAN_POINT('',(0.025,0.,0.));
#237=CARTESIAN_POINT('',(0.025,0.,-0.025));
#238=CARTESIAN_POINT('',(0.025,0.,0.025));
#239=CARTESIAN_POINT('',(0.025,0.002,-0.025));
#240=CARTESIAN_POINT('',(0.025,0.002,-0.025));
#241=CARTESIAN_POINT('',(0.025,0.002,0.));
#242=CARTESIAN_POINT('',(0.025,0.002,0.025));
#243=CARTESIAN_POINT('',(0.025,0.002,0.025));
#244=CARTESIAN_POINT('',(0.,0.002,-0.025));
#245=CARTESIAN_POINT('',(0.,0.,-0.025));
#246=CARTESIAN_POINT('',(-0.025,0.,-0.025));
#247=CARTESIAN_POINT('',(-0.025,0.002,-0.025));
#248=CARTESIAN_POINT('',(-0.025,0.002,-0.025));
#249=CARTESIAN_POINT('',(0.,0.002,-0.025));
#250=CARTESIAN_POINT('',(-0.025,0.002,0.));
#251=CARTESIAN_POINT('',(-0.025,0.,0.));
#252=CARTESIAN_POINT('',(-0.025,0.,0.025));
#253=CARTESIAN_POINT('',(-0.025,0.002,0.025));
#254=CARTESIAN_POINT('',(-0.025,0.002,0.025));
#255=CARTESIAN_POINT('',(-0.025,0.002,0.));
#256=CARTESIAN_POINT('',(0.,0.002,0.025));
#257=CARTESIAN_POINT('',(0.,0.,0.025));
#258=CARTESIAN_POINT('',(0.,0.002,0.025));
#259=CARTESIAN_POINT('',(0.,0.002,0.));
#260=CARTESIAN_POINT('',(0.,0.002,-1.46957615897682E-18));
#261=CARTESIAN_POINT('',(0.024,0.002,-1.46957615897682E-18));
#262=CARTESIAN_POINT('',(0.,0.,0.));
#263=CARTESIAN_POINT('',(0.,0.004,-1.34711147906209E-18));
#264=CARTESIAN_POINT('',(0.,0.003,-1.34711147906209E-18));
#265=CARTESIAN_POINT('',(0.022,0.003,-1.34711147906209E-18));
#266=CARTESIAN_POINT('',(0.,0.002,-1.34711147906209E-18));
#267=CARTESIAN_POINT('',(0.022,0.002,-1.34711147906209E-18));
#268=CARTESIAN_POINT('',(0.,0.004,-1.46957615897682E-18));
#269=CARTESIAN_POINT('',(0.,0.004,-1.46957615897682E-18));
#270=CARTESIAN_POINT('',(0.024,0.004,-1.46957615897682E-18));
#271=CARTESIAN_POINT('',(0.,0.004,0.));
#272=CARTESIAN_POINT('',(0.,0.004,-1.34711147906209E-18));
#273=CARTESIAN_POINT('',(0.023,0.004,-1.34711147906209E-18));
#274=CARTESIAN_POINT('',(0.,0.002,0.));
#275=CARTESIAN_POINT('',(0.,0.003,-1.34711147906209E-18));
#276=MECHANICAL_DESIGN_GEOMETRIC_PRESENTATION_REPRESENTATION('',(#160),
#277);
#277=(
GEOMETRIC_REPRESENTATION_CONTEXT(3)
GLOBAL_UNCERTAINTY_ASSIGNED_CONTEXT((#278))
GLOBAL_UNIT_ASSIGNED_CONTEXT((#281,#280,#279))
REPRESENTATION_CONTEXT('Part 1','TOP_LEVEL_ASSEMBLY_PART')
);
#278=UNCERTAINTY_MEASURE_WITH_UNIT(LENGTH_MEASURE(1.E-8),#281,
'DISTANCE_ACCURACY_VALUE','Maximum Tolerance applied to model');
#279=(
NAMED_UNIT(*)
SI_UNIT($,.STERADIAN.)
SOLID_ANGLE_UNIT()
);
#280=(
NAMED_UNIT(*)
PLANE_ANGLE_UNIT()
SI_UNIT($,.RADIAN.)
);
#281=(
LENGTH_UNIT()
NAMED_UNIT(*)
SI_UNIT($,.METRE.)
);
#282=PRODUCT_DEFINITION_SHAPE('','',#283);
#283=PRODUCT_DEFINITION('','',#285,#284);
#284=PRODUCT_DEFINITION_CONTEXT('',#291,'design');
#285=PRODUCT_DEFINITION_FORMATION_WITH_SPECIFIED_SOURCE('','',#287,
 .NOT_KNOWN.);
#286=PRODUCT_RELATED_PRODUCT_CATEGORY('','',(#287));
#287=PRODUCT('Part 1','Part 1','Part 1',(#289));
#288=PRODUCT_CATEGORY('','');
#289=PRODUCT_CONTEXT('',#291,'mechanical');
#290=APPLICATION_PROTOCOL_DEFINITION('international standard',
'ap242_managed_model_based_3d_engineering',2011,#291);
#291=APPLICATION_CONTEXT('managed model based 3d engineering');
ENDSEC;
END-ISO-10303-21;
