ISO-10303-21;
HEADER;
/* Generated by software containing ST-Developer
 * from STEP Tools, Inc. (www.steptools.com) 
 */
/* OPTION: using custom renumber hook */

FILE_DESCRIPTION(
/* description */ ('STEP AP242',
'CAx-IF Rec.Pracs.---Representation and Presentation of Product Manufa
cturing Information (PMI)---4.0---2014-10-13',
'CAx-IF Rec.Pracs.---3D Tessellated Geometry---0.4---2014-09-14','2;1'),

/* implementation_level */ '2;1');

FILE_NAME(
/* name */ '67dc44af70e97268f2b445c7',
/* time_stamp */ '2025-03-20T16:39:12Z',
/* author */ (''),
/* organization */ (''),
/* preprocessor_version */ 'ST-DEVELOPER v20',
/* originating_system */ 'ONSHAPE BY PTC INC, 1.195',
/* authorisation */ '  ');

FILE_SCHEMA (('AP242_MANAGED_MODEL_BASED_3D_ENGINEERING_MIM_LF { 1 0 10303 442 1 1 4 }'));
ENDSEC;

DATA;
#10=SHAPE_REPRESENTATION_RELATIONSHIP('','',#283,#11);
#11=ADVANCED_BREP_SHAPE_REPRESENTATION('',(#281),#441);
#12=ORIENTED_EDGE('',*,*,#84,.F.);
#13=ORIENTED_EDGE('',*,*,#85,.F.);
#14=ORIENTED_EDGE('',*,*,#86,.T.);
#15=ORIENTED_EDGE('',*,*,#87,.T.);
#16=ORIENTED_EDGE('',*,*,#88,.T.);
#17=ORIENTED_EDGE('',*,*,#89,.F.);
#18=ORIENTED_EDGE('',*,*,#90,.T.);
#19=ORIENTED_EDGE('',*,*,#91,.T.);
#20=ORIENTED_EDGE('',*,*,#92,.T.);
#21=ORIENTED_EDGE('',*,*,#93,.F.);
#22=ORIENTED_EDGE('',*,*,#94,.T.);
#23=ORIENTED_EDGE('',*,*,#95,.T.);
#24=ORIENTED_EDGE('',*,*,#93,.T.);
#25=ORIENTED_EDGE('',*,*,#96,.T.);
#26=ORIENTED_EDGE('',*,*,#97,.F.);
#27=ORIENTED_EDGE('',*,*,#98,.F.);
#28=ORIENTED_EDGE('',*,*,#99,.T.);
#29=ORIENTED_EDGE('',*,*,#100,.F.);
#30=ORIENTED_EDGE('',*,*,#101,.F.);
#31=ORIENTED_EDGE('',*,*,#97,.T.);
#32=ORIENTED_EDGE('',*,*,#102,.T.);
#33=ORIENTED_EDGE('',*,*,#103,.F.);
#34=ORIENTED_EDGE('',*,*,#104,.T.);
#35=ORIENTED_EDGE('',*,*,#105,.T.);
#36=ORIENTED_EDGE('',*,*,#106,.T.);
#37=ORIENTED_EDGE('',*,*,#107,.F.);
#38=ORIENTED_EDGE('',*,*,#108,.T.);
#39=ORIENTED_EDGE('',*,*,#109,.T.);
#40=ORIENTED_EDGE('',*,*,#110,.T.);
#41=ORIENTED_EDGE('',*,*,#95,.F.);
#42=ORIENTED_EDGE('',*,*,#111,.F.);
#43=ORIENTED_EDGE('',*,*,#100,.T.);
#44=ORIENTED_EDGE('',*,*,#94,.F.);
#45=ORIENTED_EDGE('',*,*,#98,.T.);
#46=ORIENTED_EDGE('',*,*,#101,.T.);
#47=ORIENTED_EDGE('',*,*,#111,.T.);
#48=ORIENTED_EDGE('',*,*,#84,.T.);
#49=ORIENTED_EDGE('',*,*,#110,.F.);
#50=ORIENTED_EDGE('',*,*,#99,.F.);
#51=ORIENTED_EDGE('',*,*,#112,.T.);
#52=ORIENTED_EDGE('',*,*,#113,.F.);
#53=ORIENTED_EDGE('',*,*,#91,.F.);
#54=ORIENTED_EDGE('',*,*,#114,.T.);
#55=ORIENTED_EDGE('',*,*,#103,.T.);
#56=ORIENTED_EDGE('',*,*,#89,.T.);
#57=ORIENTED_EDGE('',*,*,#115,.T.);
#58=ORIENTED_EDGE('',*,*,#105,.F.);
#59=ORIENTED_EDGE('',*,*,#116,.F.);
#60=ORIENTED_EDGE('',*,*,#104,.F.);
#61=ORIENTED_EDGE('',*,*,#114,.F.);
#62=ORIENTED_EDGE('',*,*,#90,.F.);
#63=ORIENTED_EDGE('',*,*,#116,.T.);
#64=ORIENTED_EDGE('',*,*,#115,.F.);
#65=ORIENTED_EDGE('',*,*,#88,.F.);
#66=ORIENTED_EDGE('',*,*,#117,.F.);
#67=ORIENTED_EDGE('',*,*,#106,.F.);
#68=ORIENTED_EDGE('',*,*,#107,.T.);
#69=ORIENTED_EDGE('',*,*,#117,.T.);
#70=ORIENTED_EDGE('',*,*,#87,.F.);
#71=ORIENTED_EDGE('',*,*,#118,.F.);
#72=ORIENTED_EDGE('',*,*,#112,.F.);
#73=ORIENTED_EDGE('',*,*,#109,.F.);
#74=ORIENTED_EDGE('',*,*,#119,.T.);
#75=ORIENTED_EDGE('',*,*,#85,.T.);
#76=ORIENTED_EDGE('',*,*,#108,.F.);
#77=ORIENTED_EDGE('',*,*,#118,.T.);
#78=ORIENTED_EDGE('',*,*,#86,.F.);
#79=ORIENTED_EDGE('',*,*,#119,.F.);
#80=ORIENTED_EDGE('',*,*,#92,.F.);
#81=ORIENTED_EDGE('',*,*,#113,.T.);
#82=ORIENTED_EDGE('',*,*,#102,.F.);
#83=ORIENTED_EDGE('',*,*,#96,.F.);
#84=EDGE_CURVE('',#120,#121,#144,.T.);
#85=EDGE_CURVE('',#122,#120,#145,.T.);
#86=EDGE_CURVE('',#122,#123,#146,.T.);
#87=EDGE_CURVE('',#123,#124,#147,.T.);
#88=EDGE_CURVE('',#124,#125,#148,.T.);
#89=EDGE_CURVE('',#126,#125,#149,.T.);
#90=EDGE_CURVE('',#126,#127,#150,.T.);
#91=EDGE_CURVE('',#127,#128,#151,.T.);
#92=EDGE_CURVE('',#128,#129,#152,.T.);
#93=EDGE_CURVE('',#130,#129,#153,.T.);
#94=EDGE_CURVE('',#130,#131,#154,.T.);
#95=EDGE_CURVE('',#131,#121,#155,.T.);
#96=EDGE_CURVE('',#129,#132,#156,.T.);
#97=EDGE_CURVE('',#133,#132,#157,.T.);
#98=EDGE_CURVE('',#130,#133,#158,.T.);
#99=EDGE_CURVE('',#134,#135,#159,.T.);
#100=EDGE_CURVE('',#136,#135,#160,.T.);
#101=EDGE_CURVE('',#133,#136,#161,.T.);
#102=EDGE_CURVE('',#132,#137,#162,.T.);
#103=EDGE_CURVE('',#138,#137,#163,.T.);
#104=EDGE_CURVE('',#138,#139,#164,.T.);
#105=EDGE_CURVE('',#139,#140,#165,.T.);
#106=EDGE_CURVE('',#140,#141,#166,.T.);
#107=EDGE_CURVE('',#142,#141,#167,.T.);
#108=EDGE_CURVE('',#142,#143,#168,.T.);
#109=EDGE_CURVE('',#143,#134,#169,.T.);
#110=EDGE_CURVE('',#135,#121,#170,.T.);
#111=EDGE_CURVE('',#136,#131,#171,.T.);
#112=EDGE_CURVE('',#134,#120,#172,.T.);
#113=EDGE_CURVE('',#128,#137,#173,.T.);
#114=EDGE_CURVE('',#127,#138,#174,.T.);
#115=EDGE_CURVE('',#125,#140,#175,.T.);
#116=EDGE_CURVE('',#126,#139,#176,.T.);
#117=EDGE_CURVE('',#141,#124,#177,.T.);
#118=EDGE_CURVE('',#142,#123,#178,.T.);
#119=EDGE_CURVE('',#143,#122,#179,.T.);
#120=VERTEX_POINT('',#368);
#121=VERTEX_POINT('',#369);
#122=VERTEX_POINT('',#371);
#123=VERTEX_POINT('',#373);
#124=VERTEX_POINT('',#375);
#125=VERTEX_POINT('',#377);
#126=VERTEX_POINT('',#379);
#127=VERTEX_POINT('',#381);
#128=VERTEX_POINT('',#383);
#129=VERTEX_POINT('',#385);
#130=VERTEX_POINT('',#387);
#131=VERTEX_POINT('',#389);
#132=VERTEX_POINT('',#393);
#133=VERTEX_POINT('',#395);
#134=VERTEX_POINT('',#399);
#135=VERTEX_POINT('',#400);
#136=VERTEX_POINT('',#402);
#137=VERTEX_POINT('',#405);
#138=VERTEX_POINT('',#407);
#139=VERTEX_POINT('',#409);
#140=VERTEX_POINT('',#411);
#141=VERTEX_POINT('',#413);
#142=VERTEX_POINT('',#415);
#143=VERTEX_POINT('',#417);
#144=LINE('',#367,#180);
#145=LINE('',#370,#181);
#146=LINE('',#372,#182);
#147=LINE('',#374,#183);
#148=LINE('',#376,#184);
#149=LINE('',#378,#185);
#150=LINE('',#380,#186);
#151=LINE('',#382,#187);
#152=LINE('',#384,#188);
#153=LINE('',#386,#189);
#154=LINE('',#388,#190);
#155=LINE('',#390,#191);
#156=LINE('',#392,#192);
#157=LINE('',#394,#193);
#158=LINE('',#396,#194);
#159=LINE('',#398,#195);
#160=LINE('',#401,#196);
#161=LINE('',#403,#197);
#162=LINE('',#404,#198);
#163=LINE('',#406,#199);
#164=LINE('',#408,#200);
#165=LINE('',#410,#201);
#166=LINE('',#412,#202);
#167=LINE('',#414,#203);
#168=LINE('',#416,#204);
#169=LINE('',#418,#205);
#170=LINE('',#420,#206);
#171=LINE('',#421,#207);
#172=LINE('',#424,#208);
#173=LINE('',#426,#209);
#174=LINE('',#427,#210);
#175=LINE('',#429,#211);
#176=LINE('',#430,#212);
#177=LINE('',#433,#213);
#178=LINE('',#435,#214);
#179=LINE('',#437,#215);
#180=VECTOR('',#303,1000.);
#181=VECTOR('',#304,1000.);
#182=VECTOR('',#305,1000.);
#183=VECTOR('',#306,1000.);
#184=VECTOR('',#307,1000.);
#185=VECTOR('',#308,1000.);
#186=VECTOR('',#309,1000.);
#187=VECTOR('',#310,1000.);
#188=VECTOR('',#311,1000.);
#189=VECTOR('',#312,1000.);
#190=VECTOR('',#313,1000.);
#191=VECTOR('',#314,1000.);
#192=VECTOR('',#317,1000.);
#193=VECTOR('',#318,1000.);
#194=VECTOR('',#319,1000.);
#195=VECTOR('',#322,1000.);
#196=VECTOR('',#323,1000.);
#197=VECTOR('',#324,1000.);
#198=VECTOR('',#325,1000.);
#199=VECTOR('',#326,1000.);
#200=VECTOR('',#327,1000.);
#201=VECTOR('',#328,1000.);
#202=VECTOR('',#329,1000.);
#203=VECTOR('',#330,1000.);
#204=VECTOR('',#331,1000.);
#205=VECTOR('',#332,1000.);
#206=VECTOR('',#335,1000.);
#207=VECTOR('',#336,1000.);
#208=VECTOR('',#341,1000.);
#209=VECTOR('',#344,1000.);
#210=VECTOR('',#345,1000.);
#211=VECTOR('',#348,1000.);
#212=VECTOR('',#349,1000.);
#213=VECTOR('',#354,1000.);
#214=VECTOR('',#357,1000.);
#215=VECTOR('',#360,1000.);
#216=EDGE_LOOP('',(#12,#13,#14,#15,#16,#17,#18,#19,#20,#21,#22,#23));
#217=EDGE_LOOP('',(#24,#25,#26,#27));
#218=EDGE_LOOP('',(#28,#29,#30,#31,#32,#33,#34,#35,#36,#37,#38,#39));
#219=EDGE_LOOP('',(#40,#41,#42,#43));
#220=EDGE_LOOP('',(#44,#45,#46,#47));
#221=EDGE_LOOP('',(#48,#49,#50,#51));
#222=EDGE_LOOP('',(#52,#53,#54,#55));
#223=EDGE_LOOP('',(#56,#57,#58,#59));
#224=EDGE_LOOP('',(#60,#61,#62,#63));
#225=EDGE_LOOP('',(#64,#65,#66,#67));
#226=EDGE_LOOP('',(#68,#69,#70,#71));
#227=EDGE_LOOP('',(#72,#73,#74,#75));
#228=EDGE_LOOP('',(#76,#77,#78,#79));
#229=EDGE_LOOP('',(#80,#81,#82,#83));
#230=FACE_BOUND('',#216,.T.);
#231=FACE_BOUND('',#217,.T.);
#232=FACE_BOUND('',#218,.T.);
#233=FACE_BOUND('',#219,.T.);
#234=FACE_BOUND('',#220,.T.);
#235=FACE_BOUND('',#221,.T.);
#236=FACE_BOUND('',#222,.T.);
#237=FACE_BOUND('',#223,.T.);
#238=FACE_BOUND('',#224,.T.);
#239=FACE_BOUND('',#225,.T.);
#240=FACE_BOUND('',#226,.T.);
#241=FACE_BOUND('',#227,.T.);
#242=FACE_BOUND('',#228,.T.);
#243=FACE_BOUND('',#229,.T.);
#244=PLANE('',#285);
#245=PLANE('',#286);
#246=PLANE('',#287);
#247=PLANE('',#288);
#248=PLANE('',#289);
#249=PLANE('',#290);
#250=PLANE('',#291);
#251=PLANE('',#292);
#252=PLANE('',#293);
#253=PLANE('',#294);
#254=PLANE('',#295);
#255=PLANE('',#296);
#256=PLANE('',#297);
#257=PLANE('',#298);
#258=ADVANCED_FACE('',(#230),#244,.T.);
#259=ADVANCED_FACE('',(#231),#245,.F.);
#260=ADVANCED_FACE('',(#232),#246,.F.);
#261=ADVANCED_FACE('',(#233),#247,.F.);
#262=ADVANCED_FACE('',(#234),#248,.T.);
#263=ADVANCED_FACE('',(#235),#249,.F.);
#264=ADVANCED_FACE('',(#236),#250,.T.);
#265=ADVANCED_FACE('',(#237),#251,.F.);
#266=ADVANCED_FACE('',(#238),#252,.T.);
#267=ADVANCED_FACE('',(#239),#253,.T.);
#268=ADVANCED_FACE('',(#240),#254,.F.);
#269=ADVANCED_FACE('',(#241),#255,.T.);
#270=ADVANCED_FACE('',(#242),#256,.T.);
#271=ADVANCED_FACE('',(#243),#257,.T.);
#272=CLOSED_SHELL('',(#258,#259,#260,#261,#262,#263,#264,#265,#266,#267,
#268,#269,#270,#271));
#273=STYLED_ITEM('',(#274),#281);
#274=PRESENTATION_STYLE_ASSIGNMENT((#275));
#275=SURFACE_STYLE_USAGE(.BOTH.,#276);
#276=SURFACE_SIDE_STYLE('',(#277));
#277=SURFACE_STYLE_FILL_AREA(#278);
#278=FILL_AREA_STYLE('',(#279));
#279=FILL_AREA_STYLE_COLOUR('',#280);
#280=COLOUR_RGB('',0.615686274509804,0.811764705882353,0.929411764705882);
#281=MANIFOLD_SOLID_BREP('Part 1',#272);
#282=SHAPE_DEFINITION_REPRESENTATION(#446,#283);
#283=SHAPE_REPRESENTATION('Part 1',(#284),#441);
#284=AXIS2_PLACEMENT_3D('',#365,#299,#300);
#285=AXIS2_PLACEMENT_3D('',#366,#301,#302);
#286=AXIS2_PLACEMENT_3D('',#391,#315,#316);
#287=AXIS2_PLACEMENT_3D('',#397,#320,#321);
#288=AXIS2_PLACEMENT_3D('',#419,#333,#334);
#289=AXIS2_PLACEMENT_3D('',#422,#337,#338);
#290=AXIS2_PLACEMENT_3D('',#423,#339,#340);
#291=AXIS2_PLACEMENT_3D('',#425,#342,#343);
#292=AXIS2_PLACEMENT_3D('',#428,#346,#347);
#293=AXIS2_PLACEMENT_3D('',#431,#350,#351);
#294=AXIS2_PLACEMENT_3D('',#432,#352,#353);
#295=AXIS2_PLACEMENT_3D('',#434,#355,#356);
#296=AXIS2_PLACEMENT_3D('',#436,#358,#359);
#297=AXIS2_PLACEMENT_3D('',#438,#361,#362);
#298=AXIS2_PLACEMENT_3D('',#439,#363,#364);
#299=DIRECTION('',(0.,0.,1.));
#300=DIRECTION('',(1.,0.,0.));
#301=DIRECTION('',(0.,0.,1.));
#302=DIRECTION('',(0.,-1.,0.));
#303=DIRECTION('',(-1.,0.,0.));
#304=DIRECTION('',(0.,-1.,0.));
#305=DIRECTION('',(-1.,0.,-3.20667447626761E-16));
#306=DIRECTION('',(0.,-1.,0.));
#307=DIRECTION('',(-1.,0.,0.));
#308=DIRECTION('',(0.,-1.,0.));
#309=DIRECTION('',(-1.,0.,0.));
#310=DIRECTION('',(0.,-1.,0.));
#311=DIRECTION('',(-1.,0.,0.));
#312=DIRECTION('',(0.,-1.,0.));
#313=DIRECTION('',(-1.,0.,0.));
#314=DIRECTION('',(0.,-1.,0.));
#315=DIRECTION('',(-1.,0.,0.));
#316=DIRECTION('',(0.,1.,0.));
#317=DIRECTION('',(0.,0.,-1.));
#318=DIRECTION('',(0.,-1.,0.));
#319=DIRECTION('',(0.,0.,-1.));
#320=DIRECTION('',(0.,0.,1.));
#321=DIRECTION('',(0.,-1.,0.));
#322=DIRECTION('',(-1.,0.,0.));
#323=DIRECTION('',(0.,-1.,0.));
#324=DIRECTION('',(-1.,0.,0.));
#325=DIRECTION('',(1.,0.,0.));
#326=DIRECTION('',(0.,-1.,0.));
#327=DIRECTION('',(1.,0.,0.));
#328=DIRECTION('',(0.,-1.,0.));
#329=DIRECTION('',(1.,0.,0.));
#330=DIRECTION('',(0.,-1.,0.));
#331=DIRECTION('',(1.,0.,0.));
#332=DIRECTION('',(0.,-1.,0.));
#333=DIRECTION('',(1.,0.,0.));
#334=DIRECTION('',(0.,-1.,0.));
#335=DIRECTION('',(0.,0.,1.));
#336=DIRECTION('',(0.,0.,1.));
#337=DIRECTION('',(0.,1.,0.));
#338=DIRECTION('',(1.,0.,0.));
#339=DIRECTION('',(0.,1.,0.));
#340=DIRECTION('',(1.,0.,0.));
#341=DIRECTION('',(0.,0.,1.));
#342=DIRECTION('',(-1.,0.,0.));
#343=DIRECTION('',(0.,1.,0.));
#344=DIRECTION('',(0.,0.,-1.));
#345=DIRECTION('',(0.,0.,-1.));
#346=DIRECTION('',(-1.,0.,0.));
#347=DIRECTION('',(0.,1.,0.));
#348=DIRECTION('',(0.,0.,-1.));
#349=DIRECTION('',(0.,0.,-1.));
#350=DIRECTION('',(0.,1.,0.));
#351=DIRECTION('',(1.,0.,0.));
#352=DIRECTION('',(0.,1.,0.));
#353=DIRECTION('',(1.,0.,0.));
#354=DIRECTION('',(0.,0.,1.));
#355=DIRECTION('',(1.,0.,0.));
#356=DIRECTION('',(0.,-1.,0.));
#357=DIRECTION('',(0.,0.,1.));
#358=DIRECTION('',(1.,0.,0.));
#359=DIRECTION('',(0.,-1.,0.));
#360=DIRECTION('',(0.,0.,1.));
#361=DIRECTION('',(0.,1.,0.));
#362=DIRECTION('',(1.,0.,0.));
#363=DIRECTION('',(0.,1.,0.));
#364=DIRECTION('',(1.,0.,0.));
#365=CARTESIAN_POINT('',(0.,0.,0.));
#366=CARTESIAN_POINT('',(-1.5,6.,0.));
#367=CARTESIAN_POINT('',(-1.5,0.,0.));
#368=CARTESIAN_POINT('',(55.,0.,7.14932445268062E-15));
#369=CARTESIAN_POINT('',(-3.,0.,-1.7347234759768E-15));
#370=CARTESIAN_POINT('',(55.,6.,7.14932445268062E-15));
#371=CARTESIAN_POINT('',(55.,6.,7.14932445268062E-15));
#372=CARTESIAN_POINT('',(53.5,6.,6.66832328124048E-15));
#373=CARTESIAN_POINT('',(52.,6.,6.18732210980034E-15));
#374=CARTESIAN_POINT('',(52.,6.,6.18732210980034E-15));
#375=CARTESIAN_POINT('',(52.,5.,6.18732210980034E-15));
#376=CARTESIAN_POINT('',(44.5,5.,0.));
#377=CARTESIAN_POINT('',(46.,5.,0.));
#378=CARTESIAN_POINT('',(46.,6.,0.));
#379=CARTESIAN_POINT('',(46.,6.,0.));
#380=CARTESIAN_POINT('',(44.5,6.,0.));
#381=CARTESIAN_POINT('',(6.,6.,0.));
#382=CARTESIAN_POINT('',(6.,6.,0.));
#383=CARTESIAN_POINT('',(6.,5.,0.));
#384=CARTESIAN_POINT('',(7.5,5.,0.));
#385=CARTESIAN_POINT('',(0.,5.,0.));
#386=CARTESIAN_POINT('',(0.,6.,0.));
#387=CARTESIAN_POINT('',(0.,6.,0.));
#388=CARTESIAN_POINT('',(-1.5,6.,0.));
#389=CARTESIAN_POINT('',(-3.,6.,-1.7347234759768E-15));
#390=CARTESIAN_POINT('',(-3.,6.,-1.7347234759768E-15));
#391=CARTESIAN_POINT('',(0.,6.,-4.875));
#392=CARTESIAN_POINT('',(0.,5.,-4.875));
#393=CARTESIAN_POINT('',(0.,5.,-9.75));
#394=CARTESIAN_POINT('',(0.,6.,-9.75));
#395=CARTESIAN_POINT('',(0.,6.,-9.75));
#396=CARTESIAN_POINT('',(0.,6.,-4.875));
#397=CARTESIAN_POINT('',(-1.5,6.,-9.75));
#398=CARTESIAN_POINT('',(-1.5,0.,-9.75));
#399=CARTESIAN_POINT('',(55.,0.,-9.75));
#400=CARTESIAN_POINT('',(-3.,0.,-9.75));
#401=CARTESIAN_POINT('',(-3.,6.,-9.75));
#402=CARTESIAN_POINT('',(-3.,6.,-9.75));
#403=CARTESIAN_POINT('',(-1.5,6.,-9.75));
#404=CARTESIAN_POINT('',(7.5,5.,-9.75));
#405=CARTESIAN_POINT('',(6.,5.,-9.75));
#406=CARTESIAN_POINT('',(6.,6.,-9.75));
#407=CARTESIAN_POINT('',(6.,6.,-9.75));
#408=CARTESIAN_POINT('',(44.5,6.,-9.75));
#409=CARTESIAN_POINT('',(46.,6.,-9.75));
#410=CARTESIAN_POINT('',(46.,6.,-9.75));
#411=CARTESIAN_POINT('',(46.,5.,-9.75));
#412=CARTESIAN_POINT('',(44.5,5.,-9.75));
#413=CARTESIAN_POINT('',(52.,5.,-9.75));
#414=CARTESIAN_POINT('',(52.,6.,-9.75));
#415=CARTESIAN_POINT('',(52.,6.,-9.75));
#416=CARTESIAN_POINT('',(53.5,6.,-9.75));
#417=CARTESIAN_POINT('',(55.,6.,-9.75));
#418=CARTESIAN_POINT('',(55.,6.,-9.75));
#419=CARTESIAN_POINT('',(-3.,6.,-4.875));
#420=CARTESIAN_POINT('',(-3.,0.,-4.875));
#421=CARTESIAN_POINT('',(-3.,6.,-4.875));
#422=CARTESIAN_POINT('',(26.,6.,-4.875));
#423=CARTESIAN_POINT('',(26.,0.,-4.875));
#424=CARTESIAN_POINT('',(55.,0.,-4.875));
#425=CARTESIAN_POINT('',(6.,6.,-4.875));
#426=CARTESIAN_POINT('',(6.,5.,-4.875));
#427=CARTESIAN_POINT('',(6.,6.,-4.875));
#428=CARTESIAN_POINT('',(46.,6.,-4.875));
#429=CARTESIAN_POINT('',(46.,5.,-4.875));
#430=CARTESIAN_POINT('',(46.,6.,-4.875));
#431=CARTESIAN_POINT('',(26.,6.,-4.875));
#432=CARTESIAN_POINT('',(26.,5.,-4.875));
#433=CARTESIAN_POINT('',(52.,5.,-4.875));
#434=CARTESIAN_POINT('',(52.,6.,-4.875));
#435=CARTESIAN_POINT('',(52.,6.,-4.875));
#436=CARTESIAN_POINT('',(55.,6.,-4.875));
#437=CARTESIAN_POINT('',(55.,6.,-4.875));
#438=CARTESIAN_POINT('',(26.,6.,-4.875));
#439=CARTESIAN_POINT('',(26.,5.,-4.875));
#440=MECHANICAL_DESIGN_GEOMETRIC_PRESENTATION_REPRESENTATION('',(#273),
#441);
#441=(
GEOMETRIC_REPRESENTATION_CONTEXT(3)
GLOBAL_UNCERTAINTY_ASSIGNED_CONTEXT((#442))
GLOBAL_UNIT_ASSIGNED_CONTEXT((#445,#444,#443))
REPRESENTATION_CONTEXT('Part 1','TOP_LEVEL_ASSEMBLY_PART')
);
#442=UNCERTAINTY_MEASURE_WITH_UNIT(LENGTH_MEASURE(1.E-5),#445,
'DISTANCE_ACCURACY_VALUE','Maximum Tolerance applied to model');
#443=(
NAMED_UNIT(*)
SI_UNIT($,.STERADIAN.)
SOLID_ANGLE_UNIT()
);
#444=(
NAMED_UNIT(*)
PLANE_ANGLE_UNIT()
SI_UNIT($,.RADIAN.)
);
#445=(
LENGTH_UNIT()
NAMED_UNIT(*)
SI_UNIT(.MILLI.,.METRE.)
);
#446=PRODUCT_DEFINITION_SHAPE('','',#447);
#447=PRODUCT_DEFINITION('','',#449,#448);
#448=PRODUCT_DEFINITION_CONTEXT('',#455,'design');
#449=PRODUCT_DEFINITION_FORMATION_WITH_SPECIFIED_SOURCE('','',#451,
 .NOT_KNOWN.);
#450=PRODUCT_RELATED_PRODUCT_CATEGORY('','',(#451));
#451=PRODUCT('Part 1','Part 1','Part 1',(#453));
#452=PRODUCT_CATEGORY('','');
#453=PRODUCT_CONTEXT('',#455,'mechanical');
#454=APPLICATION_PROTOCOL_DEFINITION('international standard',
'ap242_managed_model_based_3d_engineering',2011,#455);
#455=APPLICATION_CONTEXT('managed model based 3d engineering');
ENDSEC;
END-ISO-10303-21;
