ISO-10303-21;
HEADER;
/* Generated by software containing ST-Developer
 * from STEP Tools, Inc. (www.steptools.com) 
 */
/* OPTION: using custom renumber hook */

FILE_DESCRIPTION(
/* description */ ('STEP AP242',
'CAx-IF Rec.Pracs.---Representation and Presentation of Product Manufa
cturing Information (PMI)---4.0---2014-10-13',
'CAx-IF Rec.Pracs.---3D Tessellated Geometry---0.4---2014-09-14','2;1'),

/* implementation_level */ '2;1');

FILE_NAME(
/* name */ '67dc45f951938767bbcc3618',
/* time_stamp */ '2025-03-20T16:44:41Z',
/* author */ (''),
/* organization */ (''),
/* preprocessor_version */ 'ST-DEVELOPER v20',
/* originating_system */ 'ONSHAPE BY PTC INC, 1.195',
/* authorisation */ '  ');

FILE_SCHEMA (('AP242_MANAGED_MODEL_BASED_3D_ENGINEERING_MIM_LF { 1 0 10303 442 1 1 4 }'));
ENDSEC;

DATA;
#10=SHAPE_REPRESENTATION_RELATIONSHIP('','',#159,#11);
#11=ADVANCED_BREP_SHAPE_REPRESENTATION('',(#157),#257);
#12=TOROIDAL_SURFACE('',#174,0.011,0.001);
#13=CYLINDRICAL_SURFACE('',#168,0.01);
#14=CYLINDRICAL_SURFACE('',#171,0.011);
#15=CIRCLE('',#166,0.011);
#16=CIRCLE('',#169,0.01);
#17=CIRCLE('',#170,0.01);
#18=CIRCLE('',#172,0.011);
#19=ORIENTED_EDGE('',*,*,#51,.F.);
#20=ORIENTED_EDGE('',*,*,#52,.F.);
#21=ORIENTED_EDGE('',*,*,#53,.T.);
#22=ORIENTED_EDGE('',*,*,#54,.T.);
#23=ORIENTED_EDGE('',*,*,#55,.T.);
#24=ORIENTED_EDGE('',*,*,#56,.F.);
#25=ORIENTED_EDGE('',*,*,#57,.F.);
#26=ORIENTED_EDGE('',*,*,#52,.T.);
#27=ORIENTED_EDGE('',*,*,#58,.T.);
#28=ORIENTED_EDGE('',*,*,#59,.F.);
#29=ORIENTED_EDGE('',*,*,#60,.F.);
#30=ORIENTED_EDGE('',*,*,#56,.T.);
#31=ORIENTED_EDGE('',*,*,#61,.F.);
#32=ORIENTED_EDGE('',*,*,#54,.F.);
#33=ORIENTED_EDGE('',*,*,#62,.T.);
#34=ORIENTED_EDGE('',*,*,#59,.T.);
#35=ORIENTED_EDGE('',*,*,#63,.T.);
#36=ORIENTED_EDGE('',*,*,#53,.F.);
#37=ORIENTED_EDGE('',*,*,#57,.T.);
#38=ORIENTED_EDGE('',*,*,#60,.T.);
#39=ORIENTED_EDGE('',*,*,#62,.F.);
#40=ORIENTED_EDGE('',*,*,#51,.T.);
#41=ORIENTED_EDGE('',*,*,#61,.T.);
#42=ORIENTED_EDGE('',*,*,#58,.F.);
#43=ORIENTED_EDGE('',*,*,#55,.F.);
#44=ORIENTED_EDGE('',*,*,#64,.T.);
#45=ORIENTED_EDGE('',*,*,#65,.T.);
#46=ORIENTED_EDGE('',*,*,#63,.F.);
#47=ORIENTED_EDGE('',*,*,#66,.F.);
#48=ORIENTED_EDGE('',*,*,#65,.F.);
#49=ORIENTED_EDGE('',*,*,#66,.T.);
#50=ORIENTED_EDGE('',*,*,#64,.F.);
#51=EDGE_CURVE('',#67,#68,#79,.T.);
#52=EDGE_CURVE('',#69,#67,#80,.T.);
#53=EDGE_CURVE('',#69,#70,#81,.T.);
#54=EDGE_CURVE('',#70,#68,#82,.T.);
#55=EDGE_CURVE('',#67,#71,#83,.T.);
#56=EDGE_CURVE('',#72,#71,#84,.T.);
#57=EDGE_CURVE('',#69,#72,#85,.T.);
#58=EDGE_CURVE('',#71,#73,#86,.T.);
#59=EDGE_CURVE('',#74,#73,#87,.T.);
#60=EDGE_CURVE('',#72,#74,#88,.T.);
#61=EDGE_CURVE('',#68,#73,#89,.T.);
#62=EDGE_CURVE('',#70,#74,#90,.T.);
#63=EDGE_CURVE('',#75,#75,#15,.F.);
#64=EDGE_CURVE('',#76,#76,#16,.T.);
#65=EDGE_CURVE('',#77,#77,#17,.F.);
#66=EDGE_CURVE('',#78,#78,#18,.T.);
#67=VERTEX_POINT('',#220);
#68=VERTEX_POINT('',#221);
#69=VERTEX_POINT('',#223);
#70=VERTEX_POINT('',#225);
#71=VERTEX_POINT('',#229);
#72=VERTEX_POINT('',#231);
#73=VERTEX_POINT('',#235);
#74=VERTEX_POINT('',#237);
#75=VERTEX_POINT('',#244);
#76=VERTEX_POINT('',#248);
#77=VERTEX_POINT('',#250);
#78=VERTEX_POINT('',#253);
#79=LINE('',#219,#91);
#80=LINE('',#222,#92);
#81=LINE('',#224,#93);
#82=LINE('',#226,#94);
#83=LINE('',#228,#95);
#84=LINE('',#230,#96);
#85=LINE('',#232,#97);
#86=LINE('',#234,#98);
#87=LINE('',#236,#99);
#88=LINE('',#238,#100);
#89=LINE('',#240,#101);
#90=LINE('',#241,#102);
#91=VECTOR('',#179,1.);
#92=VECTOR('',#180,1.);
#93=VECTOR('',#181,1.);
#94=VECTOR('',#182,1.);
#95=VECTOR('',#185,1.);
#96=VECTOR('',#186,1.);
#97=VECTOR('',#187,1.);
#98=VECTOR('',#190,1.);
#99=VECTOR('',#191,1.);
#100=VECTOR('',#192,1.);
#101=VECTOR('',#195,1.);
#102=VECTOR('',#196,1.);
#103=EDGE_LOOP('',(#19,#20,#21,#22));
#104=EDGE_LOOP('',(#23,#24,#25,#26));
#105=EDGE_LOOP('',(#27,#28,#29,#30));
#106=EDGE_LOOP('',(#31,#32,#33,#34));
#107=EDGE_LOOP('',(#35));
#108=EDGE_LOOP('',(#36,#37,#38,#39));
#109=EDGE_LOOP('',(#40,#41,#42,#43));
#110=EDGE_LOOP('',(#44));
#111=EDGE_LOOP('',(#45));
#112=EDGE_LOOP('',(#46));
#113=EDGE_LOOP('',(#47));
#114=EDGE_LOOP('',(#48));
#115=EDGE_LOOP('',(#49));
#116=EDGE_LOOP('',(#50));
#117=FACE_BOUND('',#103,.T.);
#118=FACE_BOUND('',#104,.T.);
#119=FACE_BOUND('',#105,.T.);
#120=FACE_BOUND('',#106,.T.);
#121=FACE_BOUND('',#107,.T.);
#122=FACE_BOUND('',#108,.T.);
#123=FACE_BOUND('',#109,.T.);
#124=FACE_BOUND('',#110,.T.);
#125=FACE_BOUND('',#111,.T.);
#126=FACE_BOUND('',#112,.T.);
#127=FACE_BOUND('',#113,.T.);
#128=FACE_BOUND('',#114,.T.);
#129=FACE_BOUND('',#115,.T.);
#130=FACE_BOUND('',#116,.T.);
#131=PLANE('',#161);
#132=PLANE('',#162);
#133=PLANE('',#163);
#134=PLANE('',#164);
#135=PLANE('',#165);
#136=PLANE('',#167);
#137=PLANE('',#173);
#138=ADVANCED_FACE('',(#117),#131,.T.);
#139=ADVANCED_FACE('',(#118),#132,.F.);
#140=ADVANCED_FACE('',(#119),#133,.F.);
#141=ADVANCED_FACE('',(#120),#134,.T.);
#142=ADVANCED_FACE('',(#121,#122),#135,.T.);
#143=ADVANCED_FACE('',(#123),#136,.F.);
#144=ADVANCED_FACE('',(#124,#125),#13,.F.);
#145=ADVANCED_FACE('',(#126,#127),#14,.T.);
#146=ADVANCED_FACE('',(#128),#137,.T.);
#147=ADVANCED_FACE('',(#129,#130),#12,.T.);
#148=CLOSED_SHELL('',(#138,#139,#140,#141,#142,#143,#144,#145,#146,#147));
#149=STYLED_ITEM('',(#150),#157);
#150=PRESENTATION_STYLE_ASSIGNMENT((#151));
#151=SURFACE_STYLE_USAGE(.BOTH.,#152);
#152=SURFACE_SIDE_STYLE('',(#153));
#153=SURFACE_STYLE_FILL_AREA(#154);
#154=FILL_AREA_STYLE('',(#155));
#155=FILL_AREA_STYLE_COLOUR('',#156);
#156=COLOUR_RGB('',0.615686274509804,0.811764705882353,0.929411764705882);
#157=MANIFOLD_SOLID_BREP('Part 1',#148);
#158=SHAPE_DEFINITION_REPRESENTATION(#262,#159);
#159=SHAPE_REPRESENTATION('Part 1',(#160),#257);
#160=AXIS2_PLACEMENT_3D('',#217,#175,#176);
#161=AXIS2_PLACEMENT_3D('',#218,#177,#178);
#162=AXIS2_PLACEMENT_3D('',#227,#183,#184);
#163=AXIS2_PLACEMENT_3D('',#233,#188,#189);
#164=AXIS2_PLACEMENT_3D('',#239,#193,#194);
#165=AXIS2_PLACEMENT_3D('',#242,#197,#198);
#166=AXIS2_PLACEMENT_3D('',#243,#199,#200);
#167=AXIS2_PLACEMENT_3D('',#245,#201,#202);
#168=AXIS2_PLACEMENT_3D('',#246,#203,#204);
#169=AXIS2_PLACEMENT_3D('',#247,#205,#206);
#170=AXIS2_PLACEMENT_3D('',#249,#207,#208);
#171=AXIS2_PLACEMENT_3D('',#251,#209,#210);
#172=AXIS2_PLACEMENT_3D('',#252,#211,#212);
#173=AXIS2_PLACEMENT_3D('',#254,#213,#214);
#174=AXIS2_PLACEMENT_3D('',#255,#215,#216);
#175=DIRECTION('',(0.,0.,1.));
#176=DIRECTION('',(1.,0.,0.));
#177=DIRECTION('',(1.,0.,0.));
#178=DIRECTION('',(0.,-1.,0.));
#179=DIRECTION('',(0.,0.,1.));
#180=DIRECTION('',(0.,-1.,0.));
#181=DIRECTION('',(0.,0.,1.));
#182=DIRECTION('',(0.,-1.,0.));
#183=DIRECTION('',(0.,0.,1.));
#184=DIRECTION('',(0.,-1.,0.));
#185=DIRECTION('',(-1.,0.,0.));
#186=DIRECTION('',(0.,-1.,0.));
#187=DIRECTION('',(-1.,0.,0.));
#188=DIRECTION('',(1.,0.,0.));
#189=DIRECTION('',(0.,-1.,0.));
#190=DIRECTION('',(0.,0.,1.));
#191=DIRECTION('',(0.,-1.,0.));
#192=DIRECTION('',(0.,0.,1.));
#193=DIRECTION('',(0.,0.,1.));
#194=DIRECTION('',(0.,-1.,0.));
#195=DIRECTION('',(-1.,0.,0.));
#196=DIRECTION('',(-1.,0.,0.));
#197=DIRECTION('',(0.,1.,0.));
#198=DIRECTION('',(1.,0.,0.));
#199=DIRECTION('',(0.,1.,0.));
#200=DIRECTION('',(1.,0.,0.));
#201=DIRECTION('',(0.,1.,0.));
#202=DIRECTION('',(1.,0.,0.));
#203=DIRECTION('',(0.,-1.,0.));
#204=DIRECTION('',(-1.,0.,0.));
#205=DIRECTION('',(0.,1.,0.));
#206=DIRECTION('',(1.,0.,0.));
#207=DIRECTION('',(0.,1.,0.));
#208=DIRECTION('',(1.,0.,0.));
#209=DIRECTION('',(0.,-1.,0.));
#210=DIRECTION('',(-1.,0.,0.));
#211=DIRECTION('',(0.,1.,0.));
#212=DIRECTION('',(1.,0.,0.));
#213=DIRECTION('',(0.,1.,0.));
#214=DIRECTION('',(1.,0.,0.));
#215=DIRECTION('',(0.,1.,0.));
#216=DIRECTION('',(1.,0.,0.));
#217=CARTESIAN_POINT('',(0.,0.,0.));
#218=CARTESIAN_POINT('',(0.02025,0.002,-3.46944695195361E-18));
#219=CARTESIAN_POINT('',(0.02025,0.,-3.46944695195361E-18));
#220=CARTESIAN_POINT('',(0.02025,0.,-0.02025));
#221=CARTESIAN_POINT('',(0.02025,0.,0.02025));
#222=CARTESIAN_POINT('',(0.02025,0.002,-0.02025));
#223=CARTESIAN_POINT('',(0.02025,0.002,-0.02025));
#224=CARTESIAN_POINT('',(0.02025,0.002,-3.46944695195361E-18));
#225=CARTESIAN_POINT('',(0.02025,0.002,0.02025));
#226=CARTESIAN_POINT('',(0.02025,0.002,0.02025));
#227=CARTESIAN_POINT('',(3.46944695195361E-18,0.002,-0.02025));
#228=CARTESIAN_POINT('',(3.46944695195361E-18,0.,-0.02025));
#229=CARTESIAN_POINT('',(-0.02025,0.,-0.02025));
#230=CARTESIAN_POINT('',(-0.02025,0.002,-0.02025));
#231=CARTESIAN_POINT('',(-0.02025,0.002,-0.02025));
#232=CARTESIAN_POINT('',(3.46944695195361E-18,0.002,-0.02025));
#233=CARTESIAN_POINT('',(-0.02025,0.002,-3.46944695195361E-18));
#234=CARTESIAN_POINT('',(-0.02025,0.,-3.46944695195361E-18));
#235=CARTESIAN_POINT('',(-0.02025,0.,0.02025));
#236=CARTESIAN_POINT('',(-0.02025,0.002,0.02025));
#237=CARTESIAN_POINT('',(-0.02025,0.002,0.02025));
#238=CARTESIAN_POINT('',(-0.02025,0.002,-3.46944695195361E-18));
#239=CARTESIAN_POINT('',(-3.46944695195361E-18,0.002,0.02025));
#240=CARTESIAN_POINT('',(-3.46944695195361E-18,0.,0.02025));
#241=CARTESIAN_POINT('',(-3.46944695195361E-18,0.002,0.02025));
#242=CARTESIAN_POINT('',(0.,0.002,-3.46944695195361E-18));
#243=CARTESIAN_POINT('',(0.,0.002,-6.73555739531044E-19));
#244=CARTESIAN_POINT('',(0.011,0.002,-6.73555739531044E-19));
#245=CARTESIAN_POINT('',(0.,0.,-3.46944695195361E-18));
#246=CARTESIAN_POINT('',(0.,0.004,-6.12323399573677E-19));
#247=CARTESIAN_POINT('',(0.,0.003,-6.12323399573677E-19));
#248=CARTESIAN_POINT('',(0.01,0.003,-6.12323399573677E-19));
#249=CARTESIAN_POINT('',(0.,0.002,-6.12323399573677E-19));
#250=CARTESIAN_POINT('',(0.01,0.002,-6.12323399573677E-19));
#251=CARTESIAN_POINT('',(0.,0.004,-6.73555739531044E-19));
#252=CARTESIAN_POINT('',(0.,0.004,-6.73555739531044E-19));
#253=CARTESIAN_POINT('',(0.011,0.004,-6.73555739531044E-19));
#254=CARTESIAN_POINT('',(0.,0.002,-3.46944695195361E-18));
#255=CARTESIAN_POINT('',(0.,0.003,-6.12323399573677E-19));
#256=MECHANICAL_DESIGN_GEOMETRIC_PRESENTATION_REPRESENTATION('',(#149),
#257);
#257=(
GEOMETRIC_REPRESENTATION_CONTEXT(3)
GLOBAL_UNCERTAINTY_ASSIGNED_CONTEXT((#258))
GLOBAL_UNIT_ASSIGNED_CONTEXT((#261,#260,#259))
REPRESENTATION_CONTEXT('Part 1','TOP_LEVEL_ASSEMBLY_PART')
);
#258=UNCERTAINTY_MEASURE_WITH_UNIT(LENGTH_MEASURE(1.E-8),#261,
'DISTANCE_ACCURACY_VALUE','Maximum Tolerance applied to model');
#259=(
NAMED_UNIT(*)
SI_UNIT($,.STERADIAN.)
SOLID_ANGLE_UNIT()
);
#260=(
NAMED_UNIT(*)
PLANE_ANGLE_UNIT()
SI_UNIT($,.RADIAN.)
);
#261=(
LENGTH_UNIT()
NAMED_UNIT(*)
SI_UNIT($,.METRE.)
);
#262=PRODUCT_DEFINITION_SHAPE('','',#263);
#263=PRODUCT_DEFINITION('','',#265,#264);
#264=PRODUCT_DEFINITION_CONTEXT('',#271,'design');
#265=PRODUCT_DEFINITION_FORMATION_WITH_SPECIFIED_SOURCE('','',#267,
 .NOT_KNOWN.);
#266=PRODUCT_RELATED_PRODUCT_CATEGORY('','',(#267));
#267=PRODUCT('Part 1','Part 1','Part 1',(#269));
#268=PRODUCT_CATEGORY('','');
#269=PRODUCT_CONTEXT('',#271,'mechanical');
#270=APPLICATION_PROTOCOL_DEFINITION('international standard',
'ap242_managed_model_based_3d_engineering',2011,#271);
#271=APPLICATION_CONTEXT('managed model based 3d engineering');
ENDSEC;
END-ISO-10303-21;
